<?xml version="1.0" encoding="UTF-8" standalone="no"?>
<svg
   xmlns:dc="http://purl.org/dc/elements/1.1/"
   xmlns:cc="http://creativecommons.org/ns#"
   xmlns:rdf="http://www.w3.org/1999/02/22-rdf-syntax-ns#"
   xmlns:svg="http://www.w3.org/2000/svg"
   xmlns="http://www.w3.org/2000/svg"
   xmlns:sodipodi="http://sodipodi.sourceforge.net/DTD/sodipodi-0.dtd"
   xmlns:inkscape="http://www.inkscape.org/namespaces/inkscape"
   version="1.1"
   x="0px"
   y="0px"
   viewBox="0 0 84.165001 84.156998"
   enable-background="new 0 0 65 65"
   xml:space="preserve"
   id="svg4506"
   sodipodi:docname="noun_Oscilloscope_1298444.svg"
   width="84.165001"
   height="84.156998"
   inkscape:version="0.92.1 r15371"><metadata
     id="metadata4512"><rdf:RDF><cc:Work
         rdf:about=""><dc:format>image/svg+xml</dc:format><dc:type
           rdf:resource="http://purl.org/dc/dcmitype/StillImage" /><dc:title></dc:title></cc:Work></rdf:RDF></metadata><defs
     id="defs4510" /><sodipodi:namedview
     pagecolor="#ffffff"
     bordercolor="#666666"
     borderopacity="1"
     objecttolerance="10"
     gridtolerance="10"
     guidetolerance="10"
     inkscape:pageopacity="0"
     inkscape:pageshadow="2"
     inkscape:window-width="1920"
     inkscape:window-height="1017"
     id="namedview4508"
     showgrid="false"
     fit-margin-top="10"
     fit-margin-bottom="10"
     fit-margin-right="10"
     fit-margin-left="10"
     inkscape:zoom="2.9046154"
     inkscape:cx="42.083"
     inkscape:cy="33.954"
     inkscape:window-x="1912"
     inkscape:window-y="-8"
     inkscape:window-maximized="1"
     inkscape:current-layer="svg4506" /><path
     d="M 70.546,10 H 13.621 C 11.624,10 10,11.625 10,13.622 v 30.5 c 0,1.997 1.625,3.621 3.621,3.621 h 0.184 c 0.792,13.11 11.892,23.622 25.656,24.227 0.521,1.275 1.832,2.187 3.374,2.187 h 5.966 c 1.997,0 3.621,-1.522 3.621,-3.395 v -0.788 c 0,-1.872 -1.624,-3.395 -3.621,-3.395 h -5.966 c -1.62,0 -2.978,1.008 -3.44,2.385 C 27.32,68.339 17.602,59.181 16.813,47.743 h 3.525 c 0.837,8.97 9.086,16.087 19.305,16.558 0.607,1.079 1.802,1.824 3.191,1.824 H 48.8 c 1.997,0 3.621,-1.523 3.621,-3.396 v -0.788 c 0,-1.871 -1.624,-3.394 -3.621,-3.394 h -5.966 c -1.757,0 -3.224,1.18 -3.551,2.738 C 30.897,60.693 24.167,54.963 23.34,47.742 h 47.205 c 1.996,0 3.62,-1.624 3.62,-3.621 v -30.5 C 74.166,11.625 72.542,10 70.546,10 Z M 42.213,69.974 c 0,-0.183 0.272,-0.395 0.622,-0.395 h 5.966 c 0.35,0 0.621,0.212 0.621,0.395 v 0.788 c 0,0.183 -0.271,0.395 -0.621,0.395 h -5.966 c -0.35,0 -0.622,-0.212 -0.622,-0.395 z m 0,-8.033 c 0,-0.182 0.272,-0.394 0.622,-0.394 h 5.966 c 0.35,0 0.621,0.212 0.621,0.394 v 0.788 c 0,0.183 -0.271,0.396 -0.621,0.396 h -5.966 c -0.35,0 -0.622,-0.213 -0.622,-0.396 z M 71.166,44.122 c 0,0.343 -0.278,0.621 -0.62,0.621 H 13.621 C 13.279,44.743 13,44.465 13,44.122 v -30.5 C 13,13.279 13.279,13 13.621,13 h 56.925 c 0.342,0 0.62,0.279 0.62,0.622 z"
     id="path4490"
     inkscape:connector-curvature="0" /><path
     d="M 64.535,15.792 H 41.377 c -1.997,0 -3.622,1.625 -3.622,3.622 v 18.915 c 0,1.997 1.625,3.622 3.622,3.622 h 23.158 c 1.997,0 3.622,-1.625 3.622,-3.622 V 19.414 c 0,-1.997 -1.625,-3.622 -3.622,-3.622 z m -23.158,3 h 23.158 c 0.343,0 0.622,0.279 0.622,0.622 v 7.957 h -6.28 c -0.016,0 -0.03,0.004 -0.045,0.004 -0.05,0.001 -0.098,0.008 -0.146,0.015 -0.052,0.007 -0.103,0.012 -0.151,0.024 -0.041,0.009 -0.08,0.024 -0.12,0.037 -0.053,0.017 -0.104,0.033 -0.154,0.056 -0.038,0.017 -0.073,0.039 -0.109,0.059 -0.048,0.026 -0.096,0.052 -0.14,0.083 -0.035,0.024 -0.066,0.054 -0.099,0.082 -0.042,0.035 -0.084,0.069 -0.121,0.109 -0.027,0.029 -0.052,0.063 -0.078,0.095 -0.037,0.045 -0.072,0.091 -0.104,0.141 -0.008,0.011 -0.017,0.02 -0.023,0.031 l -2.405,4.059 -6.871,-8.939 C 48.3,23.213 48.287,23.203 48.275,23.189 48.244,23.151 48.209,23.116 48.172,23.08 48.134,23.042 48.096,23.006 48.055,22.973 48.042,22.963 48.033,22.95 48.019,22.94 47.996,22.922 47.969,22.912 47.945,22.896 47.9,22.866 47.854,22.837 47.806,22.813 47.763,22.791 47.72,22.772 47.675,22.755 47.63,22.738 47.586,22.721 47.54,22.707 c -0.05,-0.014 -0.1,-0.025 -0.149,-0.034 -0.044,-0.008 -0.087,-0.015 -0.131,-0.019 -0.053,-0.005 -0.104,-0.006 -0.156,-0.005 -0.044,0 -0.088,0.002 -0.132,0.006 -0.052,0.005 -0.103,0.014 -0.153,0.024 -0.043,0.009 -0.086,0.019 -0.128,0.031 -0.052,0.015 -0.102,0.035 -0.152,0.056 -0.039,0.017 -0.077,0.033 -0.115,0.053 -0.051,0.027 -0.099,0.058 -0.146,0.09 -0.022,0.016 -0.047,0.026 -0.069,0.043 -0.013,0.01 -0.022,0.023 -0.035,0.033 -0.04,0.033 -0.077,0.069 -0.113,0.107 -0.038,0.038 -0.074,0.076 -0.107,0.117 -0.01,0.013 -0.021,0.022 -0.031,0.035 l -3.086,4.129 h -2.079 v -7.959 c -0.003,-0.343 0.276,-0.622 0.619,-0.622 z M 64.535,38.951 H 41.377 c -0.343,0 -0.622,-0.279 -0.622,-0.622 v -7.957 h 2.831 c 0.111,0 0.219,-0.014 0.323,-0.037 0.028,-0.006 0.055,-0.018 0.083,-0.025 0.075,-0.021 0.149,-0.046 0.22,-0.078 0.034,-0.016 0.066,-0.036 0.101,-0.055 0.062,-0.034 0.12,-0.071 0.176,-0.113 0.032,-0.024 0.063,-0.049 0.093,-0.076 0.058,-0.052 0.109,-0.107 0.158,-0.167 0.016,-0.018 0.034,-0.031 0.048,-0.05 l 2.351,-3.146 6.997,9.103 c 0,0 0,10e-4 10e-4,10e-4 l 0.017,0.022 c 0.012,0.016 0.027,0.026 0.04,0.041 0.055,0.066 0.113,0.128 0.18,0.185 0.033,0.028 0.068,0.051 0.104,0.076 0.034,0.024 0.064,0.053 0.102,0.075 0.017,0.01 0.034,0.012 0.051,0.021 0.077,0.042 0.157,0.074 0.24,0.102 0.037,0.012 0.073,0.029 0.111,0.039 0.114,0.029 0.231,0.045 0.351,0.046 0.003,0 0.007,0.001 0.011,0.001 h 10e-4 10e-4 c 0.003,0 0.005,-0.001 0.008,-0.001 0.144,-10e-4 0.283,-0.027 0.42,-0.068 0.045,-0.013 0.086,-0.034 0.13,-0.052 0.099,-0.04 0.192,-0.089 0.281,-0.15 0.023,-0.016 0.051,-0.022 0.074,-0.04 0.029,-0.022 0.051,-0.049 0.078,-0.073 0.027,-0.025 0.055,-0.049 0.081,-0.076 0.075,-0.078 0.143,-0.162 0.198,-0.251 0.005,-0.009 0.013,-0.015 0.019,-0.024 l 0.011,-0.018 c 0.002,-0.004 0.005,-0.008 0.007,-0.012 l 3.082,-5.2 h 5.426 v 7.958 c -0.004,0.342 -0.283,0.621 -0.626,0.621 z"
     id="path4492"
     inkscape:connector-curvature="0" /><path
     d="m 20.15,15.362 c -2.283,0 -4.141,1.857 -4.141,4.141 0,2.283 1.857,4.14 4.141,4.14 2.284,0 4.141,-1.857 4.141,-4.14 0,-2.283 -1.857,-4.141 -4.141,-4.141 z m 0,5.28 c -0.629,0 -1.141,-0.511 -1.141,-1.14 0,-0.629 0.512,-1.141 1.141,-1.141 0.629,0 1.141,0.512 1.141,1.141 0,0.629 -0.512,1.14 -1.141,1.14 z"
     id="path4494"
     inkscape:connector-curvature="0" /><path
     d="m 20.15,24.731 c -2.283,0 -4.141,1.857 -4.141,4.141 0,2.283 1.857,4.14 4.141,4.14 2.284,0 4.141,-1.857 4.141,-4.14 0,-2.283 -1.857,-4.141 -4.141,-4.141 z m 0,5.281 c -0.629,0 -1.141,-0.511 -1.141,-1.14 0,-0.629 0.512,-1.141 1.141,-1.141 0.629,0 1.141,0.512 1.141,1.141 0,0.628 -0.512,1.14 -1.141,1.14 z"
     id="path4496"
     inkscape:connector-curvature="0" /><path
     d="m 20.15,34.1 c -2.283,0 -4.141,1.857 -4.141,4.141 0,2.284 1.857,4.141 4.141,4.141 2.284,0 4.141,-1.857 4.141,-4.141 0,-2.284 -1.857,-4.141 -4.141,-4.141 z m 0,5.282 c -0.629,0 -1.141,-0.512 -1.141,-1.141 0,-0.629 0.512,-1.141 1.141,-1.141 0.629,0 1.141,0.512 1.141,1.141 0,0.629 -0.512,1.141 -1.141,1.141 z"
     id="path4498"
     inkscape:connector-curvature="0" /><path
     d="m 30.945,15.744 c -0.829,0 -1.5,0.671 -1.5,1.5 v 23.255 c 0,0.829 0.671,1.5 1.5,1.5 0.829,0 1.5,-0.671 1.5,-1.5 V 17.244 c 0,-0.829 -0.671,-1.5 -1.5,-1.5 z"
     id="path4500"
     inkscape:connector-curvature="0" /></svg>