<?xml version="1.0" encoding="UTF-8" standalone="no"?>
<svg
   xmlns:dc="http://purl.org/dc/elements/1.1/"
   xmlns:cc="http://creativecommons.org/ns#"
   xmlns:rdf="http://www.w3.org/1999/02/22-rdf-syntax-ns#"
   xmlns:svg="http://www.w3.org/2000/svg"
   xmlns="http://www.w3.org/2000/svg"
   xmlns:sodipodi="http://sodipodi.sourceforge.net/DTD/sodipodi-0.dtd"
   xmlns:inkscape="http://www.inkscape.org/namespaces/inkscape"
   version="1.1"
   x="0px"
   y="0px"
   viewBox="0 0 104.6 109.7"
   enable-background="new 0 0 100 100"
   xml:space="preserve"
   id="svg10811"
   sodipodi:docname="noun_3d-printer_153851.svg"
   width="104.6"
   height="109.7"
   inkscape:version="0.92.1 r15371"><metadata
     id="metadata10817"><rdf:RDF><cc:Work
         rdf:about=""><dc:format>image/svg+xml</dc:format><dc:type
           rdf:resource="http://purl.org/dc/dcmitype/StillImage" /><dc:title></dc:title></cc:Work></rdf:RDF></metadata><defs
     id="defs10815" /><sodipodi:namedview
     pagecolor="#ffffff"
     bordercolor="#666666"
     borderopacity="1"
     objecttolerance="10"
     gridtolerance="10"
     guidetolerance="10"
     inkscape:pageopacity="0"
     inkscape:pageshadow="2"
     inkscape:window-width="1920"
     inkscape:window-height="1017"
     id="namedview10813"
     showgrid="false"
     fit-margin-top="10"
     fit-margin-left="10"
     fit-margin-bottom="10"
     fit-margin-right="10"
     inkscape:zoom="1.888"
     inkscape:cx="52.8"
     inkscape:cy="42.4"
     inkscape:window-x="1912"
     inkscape:window-y="-8"
     inkscape:window-maximized="1"
     inkscape:current-layer="svg10811" /><path
     d="m 34.3,98 v 0 c 0,1 -0.8,1.7 -1.7,1.7 h -6.1 c -1,0 -1.7,-0.8 -1.7,-1.7 v 0"
     id="path10791"
     inkscape:connector-curvature="0" /><path
     d="m 46.4,40.2 v 0 c 0,1 -0.8,1.7 -1.7,1.7 h -6.1 c -1,0 -1.7,-0.8 -1.7,-1.7 v 0"
     id="path10793"
     inkscape:connector-curvature="0" /><path
     d="m 80.2,80 v 0 c 0,5.4 -4.4,9.9 -9.9,9.9 H 35.6 c -5.4,0 -9.9,-4.4 -9.9,-9.9 v 0"
     id="path10795"
     inkscape:connector-curvature="0" /><path
     d="m 80.5,98 v 0 c 0,1 -0.8,1.7 -1.7,1.7 H 72.7 C 71.7,99.7 71,98.9 71,98 v 0"
     id="path10797"
     inkscape:connector-curvature="0" /><rect
     x="16.1"
     y="74.100006"
     width="73.800003"
     height="4.5"
     id="rect10799" /><path
     d="M 80.6,10 H 24 c -7.7,0 -14,6.3 -14,14 v 58.6 c 0,7.7 6.3,14 14,14 h 56.6 c 7.7,0 14,-6.3 14,-14 V 24 c 0,-7.7 -6.2,-14 -14,-14 z m 0,82.6 H 24 c -5.5,0 -10,-4.5 -10,-10 V 24 c 0,-5.5 4.5,-10 10,-10 h 56.6 c 4.5,0 8.3,3 9.6,7.1 H 85.9 L 80.5,18.3 H 22.1 v 2.9 l 11.4,4.9 h 55.3 v 16.7 h -2.1 v 2.1 h -2.1 v 12.4 l 4.2,3.3 h 1.8 v 22 c 0,5.5 -4.4,10 -10,10 z"
     id="path10801"
     inkscape:connector-curvature="0" /><polygon
     points="37.1,22.2 44.3,22.2 40.5,35 37.1,35 "
     id="polygon10803"
     transform="translate(2.8,4.8)" /><path
     d="M 78.1,71.9 77.7,71.1 76.9,59.8 c 0,0 0,0 0,0 0,-0.1 0,-0.2 -0.1,-0.3 0,0 0,0 0,0 L 66.1,47.9 c 0,0 0,0 -0.1,0 0,0 -0.1,-0.1 -0.1,-0.1 0,0 0,0 -0.1,0 L 51.1,43.6 c 0,0 0,0 0,0 -0.1,0 -0.1,0 -0.2,0 0,0 0,0 0,0 l -9,2.9 v -4.2 h -0.7 v 4.4 l -2.7,0.9 c 0,0 0,0 0,0 0,0 0,0 0,0 0,0 0,0 -0.1,0 0,0 0,0 0,0 0,0 0,0 -0.1,0 l -11.6,9.3 c 0,0 0,0 -0.1,0.1 0,0 0,0 0,0 0,0 0,0 0,0 0,0 0,0.1 -0.1,0.1 0,0 0,0 0,0 0,0 0,0 0,0 l -3.1,14.8 c 0,0 0,0 0,0 0,0 0,0.1 0,0.1 0,0 0,0 0,0.1 0,0.1 0,0.1 0.1,0.2 0,0 0,0 0,0 0,0 0,0 0,0 0,0.1 0.1,0.1 0.2,0.1 0,0 0,0 0,0 0.1,0 0.1,0 0.2,0 0,0 0,0 0,0 0,0 0,0 0,0 0,0 0,0 0,0 h 53.3 c 0.1,0 0.1,0 0.2,0 0,0 0.1,0 0.1,0 0.1,0 0.1,0 0.2,0 0.4,0.1 0.5,-0.2 0.4,-0.5 z m -1.6,-3.3 -4.8,-10.2 4.2,1.7 z m -2,-10.1 -3.2,-1.3 -3.1,-5.6 z M 69.6,56.3 57.2,49 65.4,48.7 Z m -13.3,-6.7 13,7.6 -10.2,1.9 z M 58.1,59.1 44.8,57 55.3,49.3 Z m 4.4,-11.3 -6.8,0.2 -3,-3 z M 50.9,44.6 54.2,48 41.5,47.6 Z M 54,49 43.6,56.6 39.5,48.5 Z m -15.4,0 4.1,8 -11.3,2 z m -2.5,1.8 -6,8.2 -2.2,-1.6 z m -8.7,7.4 2.2,1.6 -4.4,8.7 z M 24.7,71.6 30.1,61 33.5,71.6 Z m 6.2,-11.5 11.6,-2 -8.1,12.9 z m 4.2,11.5 8.3,-13.2 6.4,13.2 z m 9.2,-13.6 13.6,2.1 -7.3,11 z m 7.2,13.6 7.3,-11 7.7,11 z M 59.6,60.1 70,58.2 67.2,71 Z M 68,71.6 70.8,59 76.7,71.4 v 0.2 z"
     id="path10805"
     inkscape:connector-curvature="0" /></svg>