<svg xmlns="http://www.w3.org/2000/svg" viewBox="0 0 32 35" x="0px" y="0px"><path fill="#000" fill-rule="evenodd" d="M27.382 20H25v2h5v3a1 1 0 0 1-1 1H18a1 1 0 0 1-1-1v-3h5v-3.236L19.618 14H18a1 1 0 0 1-1-1v-3h3V8h-6V2h11v3h2V2h2a1 1 0 0 1 1 1v4a1 1 0 0 1-1 1h-6v3.236L27.382 20zM29 10c1.654 0 3-1.346 3-3V3c0-1.654-1.346-3-3-3H8C6.346 0 5 1.346 5 3v1H0v2h5v1c0 1.654 1.346 3 3 3h2V8H8a1 1 0 0 1-1-1V3a1 1 0 0 1 1-1h4v8h3v3c0 1.654 1.346 3 3 3h.382L20 19.236V20h-5v5c0 1.654 1.346 3 3 3h11c1.654 0 3-1.346 3-3v-5h-2.382L25 10.764V10h4z"/><text x="0" y="43" fill="#000000" font-size="5px" font-weight="bold" font-family="'Helvetica Neue', Helvetica, Arial-Unicode, Arial, Sans-serif">Created by Denis Shumaylov</text><text x="0" y="48" fill="#000000" font-size="5px" font-weight="bold" font-family="'Helvetica Neue', Helvetica, Arial-Unicode, Arial, Sans-serif">from the Noun Project</text></svg>