<svg xmlns="http://www.w3.org/2000/svg" xmlns:xlink="http://www.w3.org/1999/xlink" version="1.1" x="0px" y="0px" viewBox="0 0 1000 1250" style="enable-background:new 0 0 1000 1000;" xml:space="preserve"><g><path d="M244.3,515h-84.5c-3.6,0-6.5,2.9-6.5,6.5v18.9c0,3.6,2.9,6.5,6.5,6.5h8.6v9.2c0,3.6,2.9,6.5,6.5,6.5h21.3   v124.1l11.5-27.2v-96.9H228c3.6,0,6.5-2.9,6.5-6.5v-9.2h9.7c3.6,0,6.5-2.9,6.5-6.5v-0.3h17v16h15v-42h-15v16h-17v-8.7   C250.8,517.9,247.9,515,244.3,515z"/><path d="M541.3,125.5c0-2.1-1.7-3.8-3.8-3.8c-2.1,0-3.8,1.7-3.8,3.8v7.9h7.5V125.5z"/><path d="M840.1,375.2c0-8.3-0.6-16.8-2.1-25C824.3,276,764.2,226,688.7,226h-34.2v-11.3h9.8v-76.4H636v76.4h11V226   c-35.3,0-70.5,0-105.7,0v-11.3h9.8v-76.4h-28.4v76.4h11.1V226c-68.2,0-136.5,0-204.7,0c-56.9,0-113.7,0-170.6,0   c-25.3,0-45.8,9.9-60.2,30.8c-10,14.4-16.1,29.8-15.1,48.5c1.4,27.4,0,54.9,0.4,82.3c0.6,50.2,21.2,89.6,64.1,116.6   c3.8,2.4,8.8,3.6,13.3,3.7c27.5,0.3,54.9,0.3,82.3,0c4.5,0,9.5-1.3,13.3-3.6c37.1-22.7,57.3-56.3,63.7-100.2h7.8   c60.8,0,121.5,0,182.3,0c29.1,0,47.7,18.5,47.8,47.8c0.1,66.7,0.1,133.3,0,200c0,4.3-1.1,8.9-2.5,13c-12,32.7-29.6,62-52.4,88.4   c-4.4,5.1-8.8,7.2-15.6,7.2c-97.1-0.2-269.2-0.2-359.4-0.2c-32.6,0-59,26.4-59,59c0,16.3,6.6,31,17.3,41.7   c10.7,10.7,25.4,17.3,41.7,17.3h712.1c16,0,29-13,29-29v-60.2c0-16-13-29-29-29v-11.9c0-70.2,0-140.3,0-210.4h63.4v-20h-63.4   c0-23.7,0-47.3,0-71h63.5v-20h-63.5C840.2,409.6,840.2,392.4,840.1,375.2z M780.1,700.4h-162V552.8h162V700.4z M698.7,478.2   c-45.2-0.3-81.3-36.8-81.2-82.2c0-44.6,37.5-81.3,82.6-80.9c44.6,0.3,80.7,37,80.5,81.9C780.4,442.4,744,478.4,698.7,478.2z"/><path d="M654.6,125.5c0-2.1-1.7-3.8-3.8-3.8s-3.8,1.7-3.8,3.8v7.9h7.5V125.5z"/><circle cx="698.2" cy="395.1" r="30"/><path d="M930.8,374.4c-9.9,0-18,8.1-18,18V579c0,9.9,8.1,18,18,18s18-8.1,18-18V392.4   C948.8,382.4,940.7,374.4,930.8,374.4z"/><rect x="637.6" y="572.1" width="30" height="30"/><rect x="729.6" y="572.1" width="30" height="30"/><rect x="637.6" y="653.1" width="30" height="30"/><rect x="729.6" y="653.1" width="30" height="30"/></g><text x="0" y="1015" fill="#000000" font-size="5px" font-weight="bold" font-family="'Helvetica Neue', Helvetica, Arial-Unicode, Arial, Sans-serif">Created by leo-graph.com</text><text x="0" y="1020" fill="#000000" font-size="5px" font-weight="bold" font-family="'Helvetica Neue', Helvetica, Arial-Unicode, Arial, Sans-serif">from the Noun Project</text></svg>