<?xml version="1.0" encoding="UTF-8" standalone="no"?>
<svg
   xmlns:dc="http://purl.org/dc/elements/1.1/"
   xmlns:cc="http://creativecommons.org/ns#"
   xmlns:rdf="http://www.w3.org/1999/02/22-rdf-syntax-ns#"
   xmlns:svg="http://www.w3.org/2000/svg"
   xmlns="http://www.w3.org/2000/svg"
   xmlns:sodipodi="http://sodipodi.sourceforge.net/DTD/sodipodi-0.dtd"
   xmlns:inkscape="http://www.inkscape.org/namespaces/inkscape"
   version="1.1"
   x="0px"
   y="0px"
   viewBox="0 0 87.607727 109.16399"
   enable-background="new 0 0 100 100"
   xml:space="preserve"
   id="svg4505"
   sodipodi:docname="noun_soldering iron_901424.svg"
   width="87.607727"
   height="109.16399"
   inkscape:version="0.92.1 r15371"><metadata
     id="metadata4511"><rdf:RDF><cc:Work
         rdf:about=""><dc:format>image/svg+xml</dc:format><dc:type
           rdf:resource="http://purl.org/dc/dcmitype/StillImage" /><dc:title></dc:title></cc:Work></rdf:RDF></metadata><defs
     id="defs4509" /><sodipodi:namedview
     pagecolor="#ffffff"
     bordercolor="#666666"
     borderopacity="1"
     objecttolerance="10"
     gridtolerance="10"
     guidetolerance="10"
     inkscape:pageopacity="0"
     inkscape:pageshadow="2"
     inkscape:window-width="1920"
     inkscape:window-height="1017"
     id="namedview4507"
     showgrid="false"
     fit-margin-top="10"
     fit-margin-left="10"
     fit-margin-right="10"
     fit-margin-bottom="10"
     inkscape:zoom="1.888"
     inkscape:cx="43.804"
     inkscape:cy="42.081001"
     inkscape:window-x="-8"
     inkscape:window-y="-3"
     inkscape:window-maximized="1"
     inkscape:current-layer="svg4505" /><path
     d="m 75.447,12.041987 c -1.438,-1.684 -3.492,-2.346 -5.936,-1.913 -4.688,0.829 -7.875,4.801 -9.375,7.132 -0.731,-0.024 -1.456,0.322 -1.872,0.986 l -1.731,2.759 c -2.148,-0.664 -3.858,0.176 -5.374,2.591 l -17.789,25.858 -0.888,-0.558 c -0.749,-0.47 -1.737,-0.243 -2.208,0.506 -0.469,0.749 -0.243,1.737 0.506,2.207 l 2.011,1.261 -9.698,15.455 2.17,1.362 -8.541,13.613 -6.722,15.863 11.298,-12.866 8.605,-13.7 2.168,1.361 9.698,-15.456 2.011,1.263 c 0.75,0.47 1.737,0.242 2.207,-0.506 0.47,-0.748 0.244,-1.737 -0.505,-2.207 l -0.889,-0.557 15.542,-27.265 c 1.516,-2.416 1.528,-4.322 -0.004,-5.966 l 1.731,-2.759 c 0.445,-0.709 0.413,-1.576 10e-4,-2.244 1.347,-2.059 4.123,-5.493 7.991,-6.177 1.738,-0.307 3.11,0.111 4.079,1.247 1.287,1.505 3.698,6.707 -1.713,22.444 l 1.88,0.646 c 4.166,-12.108 4.629,-20.54 1.347,-24.38 z m -55.18,73.424 -5.852,6.662 3.455,-8.166 8.516,-13.569 2.395,1.502 z m 11.388,-13.332 -1.047,-0.657 -4.64,-2.911 -1.048,-0.657 8.641,-13.772 6.734,4.226 z"
     id="path4499"
     inkscape:connector-curvature="0" /></svg>