<?xml version="1.0" encoding="UTF-8" standalone="no"?>
<svg
   xmlns:dc="http://purl.org/dc/elements/1.1/"
   xmlns:cc="http://creativecommons.org/ns#"
   xmlns:rdf="http://www.w3.org/1999/02/22-rdf-syntax-ns#"
   xmlns:svg="http://www.w3.org/2000/svg"
   xmlns="http://www.w3.org/2000/svg"
   xmlns:sodipodi="http://sodipodi.sourceforge.net/DTD/sodipodi-0.dtd"
   xmlns:inkscape="http://www.inkscape.org/namespaces/inkscape"
   viewBox="0 0 112.97999 113.32836"
   x="0px"
   y="0px"
   version="1.1"
   id="svg4491"
   sodipodi:docname="noun_vinyl cutter_1693976.svg"
   inkscape:version="0.92.1 r15371"
   width="112.97999"
   height="113.32836">
  <metadata
     id="metadata4497">
    <rdf:RDF>
      <cc:Work
         rdf:about="">
        <dc:format>image/svg+xml</dc:format>
        <dc:type
           rdf:resource="http://purl.org/dc/dcmitype/StillImage" />
        <dc:title></dc:title>
      </cc:Work>
    </rdf:RDF>
  </metadata>
  <defs
     id="defs4495" />
  <sodipodi:namedview
     pagecolor="#ffffff"
     bordercolor="#666666"
     borderopacity="1"
     objecttolerance="10"
     gridtolerance="10"
     guidetolerance="10"
     inkscape:pageopacity="0"
     inkscape:pageshadow="2"
     inkscape:window-width="1920"
     inkscape:window-height="1017"
     id="namedview4493"
     showgrid="false"
     inkscape:zoom="6.784"
     inkscape:cx="55.879574"
     inkscape:cy="44.492583"
     inkscape:window-x="1912"
     inkscape:window-y="-8"
     inkscape:window-maximized="1"
     inkscape:current-layer="svg4491"
     fit-margin-top="10"
     fit-margin-left="10"
     fit-margin-right="10"
     fit-margin-bottom="10" />
  <path
     d="m 42.217465,10.005698 c -0.897035,0.01994 -1.793769,0.05557 -2.689453,0.109375 -1.04718,0.04854 -2.094692,0.112132 -3.142579,0.144532 -1.041998,0.03797 -2.083183,0.07028 -3.125,0.113281 -1.000983,0.0382 -2.002419,0.07576 -3.003906,0.09766 -0.815366,0.0209 -1.631615,0.03892 -2.447265,0.04492 -0.603445,0.0126 -1.207005,0.04225 -1.810547,0.03125 -0.372917,-0.0125 -0.745713,-0.02663 -1.115235,-0.08203 -0.418141,-0.07603 -0.724482,0.0704 -0.923828,0.298828 -1.36067,0.328719 -1.392709,2.460919 0.28711,2.628906 0.584575,0.12523 1.144224,0.341312 1.705078,0.544922 1.471295,0.5222 2.916913,1.109324 4.355468,1.714844 2.202761,0.95735 4.393956,1.940449 6.601563,2.886719 2.588935,1.1107 5.208658,2.146654 7.839844,3.152344 2.777519,1.04374 5.582626,2.013341 8.384765,2.988281 0.494391,0.17699 0.985029,0.363506 1.478516,0.542969 -0.436408,0.140837 -0.875028,0.274943 -1.304688,0.435547 -0.582248,0.219625 -1.149975,0.47302 -1.708984,0.746093 -0.704292,0.359679 -1.337835,0.412449 -1.578125,0.816407 -0.455642,1.016826 -0.322523,2.240593 -0.21875,3.328125 -0.04162,0.76195 -0.08668,1.523223 -0.15625,2.283203 -0.02316,0.250528 -0.06327,0.498756 -0.0957,0.748047 -0.216183,-0.159984 -0.487379,-0.316284 -0.585938,-0.363282 -0.44261,-0.21131 -0.896977,-0.397803 -1.345703,-0.595703 -0.672633,-0.29823 -1.322488,-0.642302 -1.990234,-0.951172 -1.042596,-0.47292 -2.096366,-0.921151 -3.152344,-1.363281 -1.391013,-0.56757 -2.78777,-1.123757 -4.205078,-1.623047 -1.629333,-0.58427 -3.265535,-1.146882 -4.896484,-1.726562 -1.790996,-0.65539 -3.580704,-1.315077 -5.373047,-1.966797 -1.797001,-0.65202 -3.583842,-1.327075 -5.367188,-2.015625 -1.539654,-0.58651 -3.081041,-1.174287 -4.58789,-1.841797 -1.130574,-0.50278 -2.253329,-1.0234 -3.363282,-1.570313 -0.595147,-0.288209 -1.187684,-0.582278 -1.757813,-0.917968 -1.624122,-0.97447 -3.3584971,1.14466 -1.734375,2.11914 -0.780336,1.915848 0.311141,11.09875 -0.05859,17.097657 -1.4216554,-0.49011 -1.6246837,2.301925 0.08984,2.75 0.453201,0.14701 0.886943,0.344133 1.326172,0.527343 0.729215,0.30621 1.467467,0.589612 2.197266,0.894532 0.772312,0.33428 1.551827,0.651664 2.322266,0.990234 0.598675,0.26616 1.196624,0.53685 1.791016,0.8125 0.24098,0.08852 0.460518,0.208388 0.677734,0.339844 -0.971167,1.745227 -1.790569,3.572416 -2.435547,5.46289 -0.126776,0.37159 -0.2397,0.747164 -0.359375,1.121094 -0.431654,1.43014 -0.771548,2.887891 -1.00586,4.363281 -0.147095,0.92622 -0.161469,1.140887 -0.265625,2.066407 -0.204916,1.85219 -0.195941,3.6998 -0.08789,5.55664 0.09545,1.40527 0.279172,2.80145 0.490235,4.19336 0.148328,0.9675 0.329532,1.931079 0.566407,2.880859 0.153666,0.58009 0.337341,1.149392 0.638672,1.669922 0.07105,0.1268 0.16503,0.238219 0.25,0.355469 0.205549,0.276241 0.444374,0.447783 0.691406,0.537109 0.104248,0.08157 0.219414,0.156545 0.359375,0.21875 0.499145,0.19264 0.959155,0.461413 1.40625,0.751953 1.048605,0.72786 2.07608,1.485261 3.125,2.212891 1.691834,1.12134 3.461932,2.119345 5.232422,3.109375 2.234698,1.22353 4.50245,2.38305 6.794922,3.49414 2.598095,1.24488 5.214917,2.450532 7.822265,3.675782 2.736232,1.26991 5.445418,2.598757 8.152344,3.929687 2.644709,1.28536 5.275942,2.598091 7.890625,3.943359 2.450682,1.26177 4.876261,2.570714 7.306641,3.871094 2.048528,1.06735 4.08604,2.154919 6.146484,3.199217 1.131179,0.5636 2.253865,1.15311 3.421875,1.63867 0.643739,0.26762 0.833596,0.32429 1.476563,0.54883 0.901111,0.25118 0.456409,0.14427 1.330078,0.31836 1.598794,0.30843 2.193328,-1.58811 1.148437,-2.35547 2.7e-5,-0.0189 4.6e-5,-0.0378 0,-0.0566 -0.002,-0.19009 -0.01546,-0.38175 -0.06445,-0.5664 -0.01891,-0.0633 -0.06415,-0.27958 -0.121094,-0.326175 -0.0668,-0.33553 -0.106967,-0.675558 -0.123047,-1.017578 -0.01458,-0.77464 -0.009,-1.548813 0.128907,-2.314453 0.220476,-1.30462 0.523654,-2.591456 0.923828,-3.853516 0.534263,-1.67216 1.089986,-3.339052 1.634765,-5.007812 0.665326,-2.011123 1.342908,-4.018182 2.123047,-5.988282 0.366421,-0.87937 0.53612,-1.31309 0.9375,-2.18164 0.700671,-1.51618 1.500241,-2.98489 2.367188,-4.41211 0.09562,-0.152575 0.194643,-0.302879 0.291015,-0.455078 0.481097,0.188386 0.967046,0.365216 1.453125,0.541016 1.088744,0.37368 2.196424,0.687569 3.291016,1.042968 1.000628,0.329262 2.003112,0.651966 2.982422,1.041016 0.680891,0.30263 1.334518,0.660572 1.990234,1.013672 0.495544,0.27244 1.009418,0.506216 1.53125,0.722656 0.296636,0.13557 0.605699,0.243201 0.90625,0.369141 1.749874,0.72477 2.648564,-0.929141 1.845704,-2.664063 0.40276,-10.452668 0.27149,-13.038282 0.93555,-16.861328 1.12379,-1.52458 -1.03246,-3.114463 -2.15625,-1.589844 -0.0632,0.0877 -0.12692,0.174447 -0.20704,0.248047 -0.20842,0.21713 -0.426368,0.425827 -0.648432,0.628907 -0.514164,0.40938 -1.031716,0.813658 -1.535157,1.236328 -0.523546,0.43271 -1.026639,0.891174 -1.5625,1.308594 -0.372254,0.27613 -0.742037,0.555983 -1.126953,0.814453 -0.262889,0.197166 -0.425878,0.424782 -0.517578,0.660156 -0.514887,0.267141 -1.002715,0.59077 -1.478516,0.921875 -1.464415,1.04048 -2.726163,2.320386 -3.947265,3.628906 -1.642831,1.835 -3.010446,3.88765 -4.316407,5.96875 -0.919921,1.51185 -1.767527,3.069731 -2.511718,4.675781 -0.430225,0.92847 -0.604654,1.372687 -0.996094,2.310547 -0.807451,2.0319 -1.506753,4.104538 -2.193359,6.179688 -0.547754,1.67739 -1.105409,3.35043 -1.642579,5.03125 -0.439464,1.38179 -0.76986,2.792393 -1.013671,4.220703 -0.165786,0.93004 -0.183016,1.873133 -0.166016,2.814453 0.01171,0.316087 0.04507,0.628807 0.08789,0.941406 -1.116208,-0.462718 -2.186304,-1.02768 -3.267578,-1.564453 -2.042868,-1.03499 -4.062616,-2.114175 -6.09375,-3.171875 -2.44307,-1.30716 -4.882201,-2.622325 -7.345704,-3.890625 -2.629165,-1.35269 -5.27426,-2.674317 -7.933593,-3.966797 -2.721103,-1.33785 -5.442839,-2.672619 -8.19336,-3.949218 -2.597755,-1.2207 -5.206284,-2.42206 -7.794922,-3.66211 -2.245641,-1.08765 -4.466987,-2.224445 -6.65625,-3.421875 -1.695402,-0.94788 -3.39121,-1.902726 -5.013671,-2.972656 -1.073642,-0.74425 -2.122922,-1.521459 -3.199219,-2.261719 -0.564751,-0.36232 -1.143338,-0.702489 -1.769531,-0.949219 -0.0268,-0.01191 -0.05165,-0.01696 -0.07813,-0.02734 -0.0058,-0.0089 0.0153,0.02387 -0.02344,-0.03125 -0.05297,-0.04179 -0.08332,-0.159479 -0.09961,-0.205078 -0.08502,-0.237871 -0.161186,-0.479237 -0.228516,-0.722657 -0.218576,-0.86694 -0.378232,-1.745686 -0.515625,-2.628906 -0.199064,-1.3107 -0.373484,-2.625999 -0.464844,-3.949219 -0.100864,-1.701 -0.111055,-3.406855 0.07617,-5.103515 0.22351,-2.00901 0.553683,-3.97834 1.162109,-5.91211 0.108732,-0.34177 0.210827,-0.6858 0.326172,-1.02539 0.610643,-1.79784 1.387863,-3.534346 2.31836,-5.189453 0.193345,-0.326271 0.379212,-0.656826 0.580078,-0.978516 0.954068,-1.52796 2.068713,-2.953266 3.314453,-4.253906 1.035982,-1.04323 2.104989,-2.065002 3.351563,-2.857422 0.136025,-0.08307 0.275622,-0.160306 0.414062,-0.240235 0.171763,-0.007 0.354146,-0.0401 0.546875,-0.117187 0.348784,-0.131213 0.68557,-0.28767 1.019531,-0.451172 0.03289,-0.01541 0.06504,-0.03144 0.0957,-0.04883 0.167765,-0.08319 0.335316,-0.164375 0.501953,-0.25 0.827406,-0.43546 1.639782,-0.900308 2.453126,-1.361328 0.680337,-0.39505 1.383208,-0.749455 2.097656,-1.078125 0.380045,-0.16154 0.747408,-0.35587 1.134765,-0.5 0.25676,-0.07329 0.504497,-0.171954 0.746094,-0.285157 0.225642,-0.112428 0.102362,-0.04688 0.369141,-0.199218 0.380974,-0.223618 0.593441,-0.521971 0.683594,-0.833985 0.74161,0.286775 1.480572,0.582384 2.216796,0.882813 1.02402,0.42935 2.045498,0.861352 3.056641,1.320312 0.671911,0.31577 1.331622,0.658558 2.009766,0.960938 0.132971,0.06152 0.267271,0.120387 0.402343,0.177734 0.08302,0.07996 0.176142,0.155255 0.28711,0.22461 0.226186,0.16475 0.457959,0.32348 0.697265,0.46875 0.02841,0.01663 0.451867,0.303706 0.22461,0.154296 0.117957,0.09094 0.243245,0.171341 0.373047,0.244141 0.143197,0.07477 0.288419,0.115403 0.4375,0.142578 0.05706,0.02194 0.09618,0.04659 0.142578,0.06055 0.0058,0.0015 0.01359,4.22e-4 0.01953,0.002 -0.07857,0.515383 -0.163429,1.03059 -0.220703,1.548828 -0.03261,0.36011 -0.07095,0.732074 0.0078,1.089844 0.02368,0.10752 0.06538,0.209183 0.09766,0.314453 0.102247,0.258697 0.246262,0.453136 0.410156,0.59961 0.104421,0.230926 0.282143,0.449815 0.556641,0.632812 0.476697,0.33265 0.977025,0.622525 1.492187,0.890625 0.648494,0.33148 1.338171,0.568507 2.011719,0.841797 0.451771,0.175537 0.881492,0.395745 1.300781,0.634766 -0.06829,0.14881 -0.120932,0.314952 -0.142578,0.509765 -0.07673,0.45966 -0.08521,0.929672 -0.07422,1.394531 0.03052,0.639621 0.219407,1.246788 0.457031,1.835938 0.213157,0.53205 0.507918,1.023077 0.833985,1.492188 0.537118,0.921604 1.113011,1.472249 2.169922,1.832031 -0.478083,-1.661801 -0.523094,-2.399104 -0.490235,-3.681641 0.09072,-0.861203 0.04287,-2.016361 0.667969,-1.523437 0.191479,0.100185 0.510947,-0.04241 0.707031,-0.05859 0.521214,-0.19603 1.035664,-0.410138 1.552735,-0.617188 0.769613,-0.31174 1.552856,-0.588286 2.318359,-0.910156 0.513381,-0.219265 1.019866,-0.45424 1.523726,-0.69468 0.618602,0.398985 1.135252,0.417794 1.691118,0.848977 0.505546,0.16744 1.011358,0.336603 1.517578,0.501953 0.861902,0.2816 1.722013,0.568262 2.570312,0.888672 1.245441,0.46516 2.472677,0.976124 3.708985,1.464844 1.602741,0.64189 3.210147,1.269952 4.824218,1.882812 1.766517,0.67312 3.553618,1.293923 5.328126,1.945313 1.691168,0.622 3.383513,1.240117 5.082031,1.841797 1.49424,0.51884 2.987765,1.040957 4.472656,1.585937 1.134219,0.41093 2.270853,0.811569 3.404297,1.22461 0.695677,0.256838 1.386842,0.526641 2.078125,0.794921 0.24056,0.09992 0.120217,0.05044 0.361328,0.148438 1.75478,0.71282 2.76259,-1.769602 1.00781,-2.482422 -0.24399,-0.09903 -0.11027,-0.04455 -0.400388,-0.164063 -0.708514,-0.27474 -1.415853,-0.549577 -2.128906,-0.8125 -1.131521,-0.41232 -2.268041,-0.814569 -3.400391,-1.224609 -1.494378,-0.54847 -2.996177,-1.073673 -4.5,-1.595703 -1.689005,-0.59829 -3.372999,-1.213501 -5.054688,-1.832031 -1.765309,-0.64776 -3.541386,-1.264434 -5.298828,-1.933594 -1.602795,-0.60835 -3.199513,-1.231851 -4.791015,-1.869141 -1.249367,-0.49377 -2.489373,-1.010688 -3.748047,-1.480468 -0.88643,-0.33402 -1.784944,-0.636148 -2.685547,-0.929688 -0.424561,-0.13836 -0.847692,-0.27922 -1.271484,-0.419922 0.09349,-0.945478 0.167046,-1.89178 0.253906,-2.83789 0.119815,-1.32464 0.229158,-2.650636 0.306641,-3.978516 0.04584,-0.8881 0.07688,-1.775883 0.11914,-2.664062 0.01419,-0.184468 -0.0064,-0.348034 -0.04102,-0.5 0.333515,-0.07344 0.666607,-0.154141 0.998047,-0.236329 0.250373,-0.06213 0.449831,-0.166402 0.611329,-0.294921 0.442754,0.15612 0.883263,0.318923 1.326171,0.474609 2.832613,0.96265 5.684808,1.867542 8.539063,2.763672 2.561385,0.78213 5.094607,1.647505 7.605469,2.578125 2.08822,0.76613 4.153623,1.593322 6.220703,2.414062 1.650504,0.65967 3.31906,1.269561 4.99414,1.863282 1.178738,0.385455 2.794205,1.361366 3.031015,-0.212427 0.04,-0.41154 0.0454,-0.825151 0.0527,-1.238281 0.0178,-0.65053 0.0574,-1.300209 0.10351,-1.949219 0.0647,-0.71875 0.13559,-1.435407 0.19922,-2.154297 0.0395,-0.60101 0.0991,-1.200608 0.16797,-1.798828 0.0463,-0.42517 0.12548,-0.844806 0.25,-1.253906 0.31151,-4.198464 -0.64754,-4.797725 -2.11882,-5.199705 -1.499908,-0.58688 -3.019751,-1.118913 -4.535156,-1.664063 -2.023841,-0.70959 -4.064215,-1.371556 -6.103516,-2.035156 -0.801971,-0.26801 -1.442081,-0.478475 -2.240234,-0.759766 -1.58388,-0.558199 -3.148861,-1.164555 -4.728516,-1.734374 -2.548192,-0.92432 -5.103433,-1.830813 -7.71289,-2.570313 -2.622452,-0.76017 -5.258041,-1.47372 -7.884766,-2.21875 -2.355205,-0.690932 -4.700001,-1.418971 -7.058649,-2.097691 -1.856186,-0.53286 -3.716072,-1.05058 -5.578125,-1.5625 -1.111543,-0.32536 -2.22173,-0.661264 -3.289062,-1.115234 -0.498813,-0.2001 -0.997522,-0.403273 -1.486328,-0.626953 -0.21176,-0.105879 -0.415848,-0.161882 -0.607422,-0.175781 -0.271488,-0.0197 -0.508607,0.05817 -0.716797,0.177734 -0.207725,-0.05298 -0.414785,-0.109164 -0.626953,-0.142578 -0.444555,-0.08585 -0.892925,-0.146163 -1.345703,-0.164063 -0.494988,-0.033 -0.990864,-0.06289 -1.486328,-0.08789 -0.686856,-0.0424 -1.374236,-0.068681 -2.0625,-0.05078 z m 16.070312,16.566407 c 1.154013,0.426977 2.309245,0.848822 3.464844,1.271484 1.09679,0.403214 2.201053,0.786575 3.300781,1.181641 -0.426445,0.130548 -0.853037,0.262482 -1.273437,0.412109 -1.010102,0.351601 -2.013522,0.724132 -3.009766,1.113282 -0.01039,0.004 -0.02085,0.0077 -0.03125,0.01172 -1.865089,-0.796178 -1.81242,-1.174961 -3.157202,-1.438551 -0.840003,-0.18729 -1.585783,-0.665849 -2.395532,-0.961839 -0.139686,-0.05413 -0.277196,-0.113742 -0.416016,-0.169922 0.526311,-0.180701 1.054508,-0.356204 1.583984,-0.527344 0.480415,-0.12532 0.943102,-0.292577 1.394532,-0.498047 0.229149,-0.105427 0.40537,-0.242364 0.539062,-0.394531 z m 6.759766,5.267578 c -0.03429,0.754385 -0.06049,1.50943 -0.09961,2.263672 -0.07589,1.29348 -0.183922,2.58467 -0.300781,3.875 -0.05055,0.548791 -0.100838,1.097426 -0.148437,1.646484 -0.124765,0.05599 -0.252052,0.105588 -0.375,0.166016 -0.790685,0.38611 -1.587377,0.763145 -2.396485,1.109375 -0.558415,0.237116 -1.127445,0.447813 -1.693359,0.666016 0.01414,-0.364478 0.02476,-0.729748 0.04883,-1.09375 0.07718,-1.1401 0.171263,-2.278645 0.189453,-3.421875 0.02418,-1.03921 0.06352,-2.077882 0.160156,-3.113282 0.01173,-0.147687 0.03699,-0.293931 0.05078,-0.441406 0.41638,-0.143456 0.832646,-0.286596 1.24414,-0.443359 0.970859,-0.37927 1.949147,-0.743488 2.933594,-1.085938 0.127916,-0.04532 0.258219,-0.08336 0.386719,-0.126953 z m -19.9375,14.822266 c -0.536751,-0.006 -0.964722,0.117031 -1.361328,0.488281 -0.271535,0.27118 -0.482643,0.586344 -0.570313,0.964844 -0.07991,0.38126 -0.07401,0.760579 0.08594,1.119141 0.100559,0.25267 0.217746,0.498453 0.316406,0.751953 0.137592,0.33197 0.290433,0.657568 0.435547,0.986328 0.06704,0.1193 0.108072,0.251052 0.138672,0.382812 0.06888,0.23201 0.01548,0.48754 0.02734,0.72461 -0.0027,0.06582 0.0043,0.03919 0.0039,0.06641 -0.0055,0.0016 -0.0062,0.0063 -0.0098,0.0059 -0.304693,0.10638 -0.633687,0.119019 -0.953125,0.136719 -0.391084,0.0145 -0.780818,-0.0034 -1.166016,-0.08008 -0.471494,-0.09942 -0.936649,-0.225981 -1.398437,-0.363281 -0.724758,-0.17876 -1.371658,-0.240025 -2.09375,0.0098 -0.111858,0.04889 -0.22676,0.09179 -0.335938,0.146485 -0.45233,0.22642 -0.845224,0.563984 -1.191406,0.927734 -0.389879,0.46136 -0.723141,0.965843 -0.857422,1.564453 -0.01617,0.11483 -0.04373,0.229853 -0.04883,0.345703 -0.02641,0.59928 0.212878,1.144414 0.640625,1.558594 0.30224,0.28 0.600701,0.565307 0.90625,0.841797 0.381055,0.36544 0.768105,0.723499 1.132813,1.105469 0.374609,0.41685 0.678197,0.888056 0.886718,1.410156 0.193781,0.48728 0.377725,0.981352 0.427735,1.507812 0.01677,0.16799 0.01774,0.334651 0.02734,0.501954 0.0014,0.0256 0.02614,-0.0011 0.02734,-0.002 0.0086,-0.0059 0.0151,-0.01558 0.02539,-0.01758 0.03216,-0.0052 -0.0322,0.05478 -0.05273,0.08008 -0.08624,0.10625 -0.208998,0.168028 -0.326172,0.236328 -0.404911,0.228812 -0.852897,0.363207 -1.310547,0.441407 -0.576519,0.0708 -1.155719,0.08884 -1.736328,0.08984 -0.610709,0.02024 -1.224487,0.05153 -1.816407,0.216797 -0.555136,0.1704 -1.018377,0.386811 -1.478515,0.744141 -0.431977,0.35231 -0.814145,0.754434 -1.085938,1.246094 -0.124329,0.25894 -0.172263,0.335362 -0.251953,0.632812 -0.10811,0.4035 -0.0953,0.826918 -0.03711,1.236328 0.105861,0.62933 0.277757,1.244078 0.603515,1.798828 0.331616,0.53778 0.728957,1.024943 1.263672,1.375 0.427621,0.277091 0.88075,0.508045 1.316406,0.771485 0.37887,0.24085 0.747641,0.498472 1.13086,0.732422 v -0.002 c 0.481464,0.300912 0.942987,0.304009 1.314453,0.138672 0.101805,0.05342 0.202481,0.109444 0.304687,0.162109 1.049726,0.56142 2.116578,1.08776 3.181641,1.619141 1.066821,0.517448 2.132602,1.037268 3.205078,1.542968 0.679816,0.32801 1.358769,0.658466 2.009766,1.041016 1.635129,0.95589 2.986691,-1.35661 1.351562,-2.3125 -0.203249,-0.118325 -0.412431,-0.226308 -0.61914,-0.337891 -0.04872,-0.336965 -0.205014,-0.654519 -0.507813,-0.86914 -0.07076,-0.52501 0.0048,-1.060066 0.06641,-1.582032 0.14682,-0.95601 0.336514,-1.906861 0.623047,-2.832031 0.390538,-1.23549 0.84453,-2.448744 1.41211,-3.615234 0.701912,-1.47936 1.451933,-2.93665 2.333984,-4.31836 0.360023,-0.55533 0.535128,-0.840586 0.919922,-1.373046 0.569049,-0.787431 1.203361,-1.526127 1.845703,-2.253907 0.674774,-0.76007 1.356342,-1.516272 2.083984,-2.226562 0.320397,-0.30672 0.646119,-0.613519 1.019532,-0.855469 v 0.002 c 1.655685,-0.91983 0.354905,-3.261627 -1.300782,-2.341797 -0.58008,0.34247 -1.082537,0.795633 -1.568359,1.257813 -0.781992,0.76049 -1.5123,1.571548 -2.236328,2.386719 -0.689025,0.78005 -1.3667,1.571102 -1.978516,2.414062 -0.444874,0.61294 -0.617306,0.896733 -1.03125,1.533203 -0.947317,1.48067 -1.754328,3.040983 -2.507812,4.626953 -0.620418,1.27636 -1.1159,2.604038 -1.544922,3.955078 -0.329195,1.05561 -0.547179,2.139339 -0.716797,3.230469 -0.06588,0.423336 -0.104159,0.849528 -0.115234,1.275391 -0.5159,-0.248822 -1.033434,-0.494374 -1.548828,-0.744141 -1.054934,-0.5263 -2.112662,-1.047347 -3.152344,-1.603515 -0.607806,-0.312661 -1.204657,-0.642895 -1.810547,-0.958985 -0.378198,-0.189099 -0.729168,-0.211687 -1.03125,-0.130859 -0.326561,-0.186997 -0.663741,-0.355695 -0.974609,-0.56836 -0.192295,-0.13069 -0.329293,-0.313905 -0.439454,-0.515625 -0.146159,-0.264178 -0.213987,-0.553938 -0.257767,-0.849638 0.01092,-0.04762 -0.04705,-0.187941 0,-0.244141 0.02879,-0.0343 -0.03705,0.12328 0.03711,0.0059 0.0054,-0.002 0.01388,-0.0019 0.01758,-0.0059 0.109542,-0.12811 0.206025,-0.246986 0.34375,-0.347656 0.128464,-0.07735 0.250979,-0.177462 0.394531,-0.226562 0.06033,-0.0206 0.122296,-0.02938 0.183593,-0.04687 0.371636,-0.08479 0.755358,-0.09572 1.134766,-0.107422 0.658057,0.0021 1.315243,-0.03132 1.96875,-0.107422 0.81164,-0.1159 1.529771,-0.361001 2.253906,-0.738281 0.500008,-0.27544 0.97198,-0.629668 1.291016,-1.111329 0.06816,-0.10291 0.120731,-0.214905 0.181641,-0.322265 0.294082,-0.62068 0.286642,-1.292948 0.232421,-1.960938 -0.0678,-0.78477 -0.320057,-1.527769 -0.605468,-2.255859 -0.316863,-0.81179 -0.793781,-1.534476 -1.359375,-2.191406 -0.412003,-0.44535 -0.85927,-0.855691 -1.296875,-1.275391 -0.188049,-0.171856 -0.374148,-0.345958 -0.560547,-0.519531 0.03206,-0.03669 0.06507,-0.07314 0.09766,-0.109375 0.147383,-0.11756 0.304728,-0.312044 0.501953,-0.339844 -2.92e-4,0.0053 -0.0052,0.01463 0,0.01563 0.03542,0.01059 0.07308,0.0028 0.109375,0.0098 0.106593,0.0202 0.209861,0.04942 0.314453,0.07813 0.494583,0.15067 0.996724,0.277377 1.501954,0.386719 0.598545,0.123528 1.207244,0.155318 1.816406,0.136718 0.557434,-0.01097 1.105938,-0.0954 1.640625,-0.25 0.404865,-0.14719 0.81331,-0.333479 1.132812,-0.630859 0.08518,-0.07929 0.162951,-0.1666 0.244141,-0.25 0.389949,-0.46228 0.493424,-1.029591 0.527344,-1.613281 0.02586,-0.44801 0.0067,-0.893278 -0.06445,-1.335938 -0.0705,-0.38403 -0.208664,-0.748999 -0.376953,-1.099609 -0.02479,-0.06058 -0.05345,-0.119887 -0.08008,-0.179688 0.144845,0.03072 0.290882,0.05603 0.435547,0.08789 0.494398,0.12742 0.994039,0.225306 1.496094,0.316406 0.54399,0.09843 1.096645,0.127581 1.646484,0.175781 0.449798,0.05501 0.896786,0.139475 1.339844,0.234375 0.524037,0.1326 1.0584,0.15861 1.59375,0.09961 0.06294,-0.0109 0.126513,-0.0223 0.189453,-0.0332 1.861015,-0.35214 1.362968,-2.983 -0.498047,-2.63086 -0.0051,0.002 -0.01053,0.0039 -0.01563,0.0059 -0.240463,0.03997 -0.477127,-0.0052 -0.71289,-0.0625 -0.549505,-0.11564 -1.103614,-0.22035 -1.66211,-0.28125 -0.468126,-0.04107 -0.938563,-0.06368 -1.402343,-0.142579 -0.469587,-0.08514 -0.936088,-0.177194 -1.398438,-0.296874 -0.434231,-0.09535 -0.870515,-0.189625 -1.308594,-0.265626 -0.310496,-0.05006 -0.6117,-0.15111 -0.929687,-0.15039 z m 22.648437,8.384766 c -0.591066,0.03617 -1.176973,0.123228 -1.701172,0.417968 -0.0799,0.05494 -0.170744,0.09842 -0.240234,0.166016 -0.484374,0.47139 -0.637168,0.884569 -0.501953,1.542969 0.04965,0.23884 0.121379,0.471847 0.167969,0.710937 0.08261,0.45342 0.129089,0.915652 0.267578,1.357422 0.108615,0.30537 0.235327,0.601389 0.388672,0.886719 0.01761,0.04161 0.02483,0.08768 0.04297,0.128906 -0.01622,0.04573 -0.02173,0.09735 -0.05664,0.132813 -0.256279,0.222248 -0.571203,0.344903 -0.902344,0.408203 -0.539215,0.11204 -1.083358,0.171734 -1.634766,0.177734 -0.768395,0.01941 -1.545705,0.05365 -2.283203,0.292969 -0.141142,0.0539 -0.283905,0.100509 -0.421875,0.162109 -0.571264,0.25492 -1.076294,0.647951 -1.515625,1.087891 -0.428602,0.48958 -0.805103,1.024426 -0.876953,1.691406 -0.04181,0.48749 0.0079,0.966714 0.220703,1.414062 0.184536,0.414541 0.421315,0.790214 0.69336,1.152344 0.134398,0.19588 0.27142,0.389672 0.36914,0.607422 0.09474,0.34185 0.181044,0.686276 0.246094,1.035156 0.06125,0.37083 0.111608,0.742418 0.142578,1.117188 0.0335,0.26919 0.05773,0.539214 0.08984,0.808594 5.96e-4,0.01107 -0.01249,0.145755 -0.002,0.183593 -0.28552,0.14675 -0.608405,0.174337 -0.921875,0.22461 -0.509914,0.0503 -1.021272,0.04548 -1.533203,0.04492 -0.566448,0.0081 -1.136324,0.01803 -1.691407,0.144531 -0.574181,0.15312 -1.121525,0.376394 -1.597656,0.740234 -0.579569,0.45636 -0.984628,0.918003 -1.232422,1.626953 -0.223,0.77294 -0.248972,1.36545 0.04883,2.13086 0.28196,0.63203 0.645734,1.213761 1.09961,1.738281 0.450866,0.55822 0.910053,1.110111 1.351562,1.675781 0.345628,0.42606 0.702552,0.846002 1.123047,1.201172 0.0301,0.0258 0.06146,0.04148 0.0918,0.06445 0.15495,0.154635 0.354585,0.287466 0.617187,0.375 0.446642,0.15852 0.870779,0.37254 1.289063,0.59375 0.786958,0.41008 1.560642,0.846176 2.345703,1.259766 0.886157,0.46012 1.761297,0.943116 2.640625,1.416016 0.732365,0.395099 1.449318,0.813097 2.162109,1.242187 0.302482,0.18031 0.607052,0.358476 0.908204,0.541016 0.675893,0.409533 1.295939,0.23495 1.689453,-0.16211 0.654801,-0.13306 1.214617,-0.725742 1.029297,-1.652343 -0.136195,-0.578772 -0.163271,-1.175479 -0.173828,-1.767579 0.0062,-1.06072 0.08352,-2.117382 0.253906,-3.164062 0.128984,-0.68451 0.297209,-1.362195 0.541015,-2.015625 0.131801,-0.35324 0.259375,-0.62356 0.414063,-0.96875 0.522755,-1.09109 1.11759,-2.144714 1.736328,-3.183594 0.594931,-0.98542 1.303471,-1.892924 2.037109,-2.777344 0.60459,-0.7121 1.233531,-1.4022 1.861329,-2.09375 0.519962,-0.58029 1.068887,-1.134426 1.61914,-1.685546 0.05255,-0.05108 0.10712,-0.09988 0.160156,-0.150391 0.101737,-0.06463 0.201499,-0.140951 0.298828,-0.238281 0.06232,-0.06453 0.114618,-0.137851 0.173829,-0.205078 0.09291,-0.08607 0.184655,-0.173327 0.277343,-0.259766 0.268932,-0.22527 0.466912,-0.502654 0.632813,-0.808594 0.001,-7e-5 0.0028,-0.0015 0.0039,-0.002 0.0078,-0.01377 0.01026,-0.02729 0.01758,-0.04102 0.06538,-0.07865 0.126891,-0.160154 0.195313,-0.236328 0.150735,-0.12213 0.295782,-0.252342 0.439453,-0.382812 0.121033,-0.11019 0.241091,-0.221283 0.361328,-0.332031 l 0.002,-0.002 c 0.04715,-0.01429 0.111515,-0.04247 0.166016,-0.0625 1.038105,-0.171687 1.35764,-1.18182 1.011718,-1.90625 0.05187,-0.564621 -0.221049,-1.159575 -0.984374,-1.404296 -0.496212,-0.157022 -0.25316,-0.08628 -0.730469,-0.214844 -0.683672,-0.18071 -1.37519,-0.334293 -2.044922,-0.564453 -0.654587,-0.22264 -1.30738,-0.458719 -1.929688,-0.761719 -0.541055,-0.26672 -1.069959,-0.563657 -1.541015,-0.94336 -0.3994,-0.321249 -0.771126,-0.670363 -1.138672,-1.027343 -0.283982,-0.283981 -0.592873,-0.415963 -0.890625,-0.445313 -0.156104,-0.046 -0.326953,-0.07431 -0.521485,-0.06836 -0.653988,0.03373 -1.160666,-0.04887 -1.757812,-0.332031 -0.768344,-0.32097 -1.554559,-0.646581 -2.402344,-0.642578 z m 0.429688,2.765624 c 0.319366,0.09482 0.631605,0.218988 0.9375,0.347657 0.729318,0.32447 1.506265,0.525928 2.30664,0.548828 0.10221,0.0029 0.204402,-0.0025 0.306641,-0.0059 0.340898,0.323168 0.681518,0.64493 1.046875,0.941406 0.620838,0.50525 1.318123,0.902035 2.03125,1.259765 0.728198,0.35796 1.492865,0.636268 2.259766,0.898438 0.30944,0.107585 0.624118,0.195461 0.939453,0.28125 -0.09879,0.08784 -0.201691,0.171691 -0.292969,0.267578 -0.21125,0.23686 -0.413307,0.479762 -0.605469,0.732422 -0.142634,0.171615 -0.284079,0.344929 -0.427734,0.515625 -0.210109,0.19498 -0.422516,0.387648 -0.626953,0.58789 -0.580025,0.581221 -1.156707,1.163731 -1.705078,1.775391 -0.654852,0.72144 -1.311611,1.441937 -1.941407,2.185547 -0.82096,0.99184 -1.612938,2.011736 -2.277343,3.117188 -0.67173,1.12918 -1.317373,2.27509 -1.88086,3.46289 -0.208764,0.46988 -0.325792,0.715762 -0.503906,1.201172 -0.291485,0.79438 -0.495221,1.617999 -0.648438,2.449219 -0.19111,1.20617 -0.287528,2.422571 -0.287109,3.644531 0.0028,0.117087 0.01339,0.234389 0.01758,0.351562 -0.558814,-0.330076 -1.116133,-0.660477 -1.6875,-0.96875 -0.886453,-0.476528 -1.76684,-0.964034 -2.660156,-1.427734 -0.785813,-0.41293 -1.559843,-0.850524 -2.347656,-1.259766 -0.482933,-0.252674 -0.975588,-0.489706 -1.486328,-0.68164 -0.0051,-0.0045 -0.0085,-0.0092 -0.01367,-0.01367 -0.295445,-0.25059 -0.542924,-0.552996 -0.785157,-0.853516 -0.441091,-0.56511 -0.899203,-1.116128 -1.349609,-1.673828 -0.287929,-0.34433 -0.557773,-0.702703 -0.726562,-1.121094 -0.0436,-0.118707 0.0133,-0.169486 0.05469,-0.279296 0.06873,-0.1263 0.185804,-0.204957 0.300781,-0.285157 0.187638,-0.13436 0.395546,-0.223931 0.621094,-0.269531 0.355406,-0.0596 0.716823,-0.05945 1.076172,-0.06445 0.583081,0.0066 1.165201,-0.0044 1.746094,-0.05664 0.390919,-0.05748 0.787745,-0.104007 1.167969,-0.216796 0.304428,-0.09031 0.340597,-0.116125 0.623046,-0.240235 0.472917,-0.23814 0.909926,-0.569557 1.1875,-1.029297 0.06092,-0.1009 0.10846,-0.211466 0.16211,-0.316406 0.188705,-0.46261 0.226001,-0.952373 0.207031,-1.445312 -0.03422,-0.322272 -0.06547,-0.645187 -0.105469,-0.966797 -0.03386,-0.41016 -0.09119,-0.816757 -0.158203,-1.222657 -0.07904,-0.4416 -0.188249,-0.876163 -0.306641,-1.308593 -0.158028,-0.51478 -0.438521,-0.969657 -0.740234,-1.410157 -0.142437,-0.23416 -0.348226,-0.431959 -0.441406,-0.693359 -0.0079,-0.01891 -0.01522,-0.03782 -0.02344,-0.05664 -0.0109,-0.02496 -0.02399,-0.04862 -0.0332,-0.07422 -0.0013,-0.004 0.0082,0.0039 0.01172,0.0059 0.0037,0.002 0.0089,-0.0099 0.0098,-0.0059 0.0057,0.0245 6.84e-4,0.05162 0.01172,0.07422 0.0056,0.0115 0.0037,-0.02451 0.0059,-0.03711 0.0027,-0.004 0.0069,-0.01867 0.0078,-0.01367 0.0037,0.0206 -0.01155,0.0742 0.0059,0.0625 0.04914,-0.03318 0.13924,-0.16359 0.1875,-0.212891 0.247362,-0.23284 0.528685,-0.426537 0.855468,-0.523437 0.470048,-0.11696 0.957911,-0.123366 1.439454,-0.134766 0.709082,-0.0077 1.411202,-0.09107 2.105468,-0.230468 0.60719,-0.12427 1.193399,-0.347693 1.708985,-0.695313 0.09827,-0.06626 0.189816,-0.140537 0.285156,-0.210937 0.537224,-0.44102 0.840159,-0.962295 1.044922,-1.615235 0.147731,-0.57644 0.05526,-1.107143 -0.128907,-1.658203 -0.103452,-0.30354 -0.289195,-0.567017 -0.384765,-0.873047 -0.03759,-0.185093 -0.06578,-0.372192 -0.0957,-0.558594 z m -1.960938,2.335938 c -0.0044,0.03026 -0.02683,0.05301 -0.03516,0.08203 0.0023,-0.04324 0.0058,-0.103027 0.03516,-0.08203 z m 14.978516,2.880859 c 0.08456,-0.06058 -0.152311,0.142572 -0.238281,0.201172 -0.003,0.0018 -0.0067,0.0021 -0.0098,0.0039 0.0876,-0.05986 0.161003,-0.142725 0.248047,-0.205079 z m -0.44336,0.257813 c -0.03374,0.02387 -0.01318,0.0098 -0.0039,0.0039 l -0.002,0.002 c -0.03781,0.0187 -0.06938,0.03039 -0.103515,0.04687 -0.02295,0.0058 -0.04318,0.01909 -0.06641,0.02344 0.0047,-0.0044 0.009,-0.0092 0.01367,-0.01367 0.05397,-0.02107 0.108138,-0.04142 0.162109,-0.0625 z m -0.21289,0.08203 c -0.0046,0.0032 -0.009,0.0067 -0.01367,0.0098 0.002,-1.59e-4 0.0039,1.64e-4 0.0059,0 -0.0035,4.98e-4 -0.0063,0.0034 -0.0098,0.0039 -0.01623,0.01048 -0.03193,0.02185 -0.04883,0.03125 -0.04156,0.01552 -0.08968,0.02455 -0.134766,0.03516 0.05419,-0.02116 0.107917,-0.04329 0.162109,-0.06445 0.0028,-2.19e-4 0.0049,8.03e-4 0.01367,0 0.0027,-3.35e-4 0.0052,-0.0016 0.0078,-0.002 0.0015,-9.78e-4 0.0024,-0.0029 0.0039,-0.0039 -0.0055,4.38e-4 -0.01005,0.0035 -0.01563,0.0039 0.01002,-0.0039 0.01927,-0.0098 0.0293,-0.01367 z m -0.107422,0.07227 c -0.08541,0.0421 -0.174714,0.07576 -0.265625,0.101562 0.06352,-0.0165 -0.151084,0.03228 -0.115234,0.01758 0.06512,-0.02543 0.130188,-0.05074 0.195312,-0.07617 0.04449,-0.0067 0.114521,-0.02459 0.185547,-0.04297 z m -20.056641,6.978515 c -0.0089,0.02596 -0.05235,0.05056 -0.08789,0.07422 0.01512,-0.02096 0.02456,-0.03947 0.05273,-0.05664 0.01128,-0.0069 0.03946,-0.03008 0.03516,-0.01758 z m -13.691406,2.060547 c 0.0031,0.006 0.0084,0.0084 0.01172,0.01563 0.06742,0.14764 0.01202,0.05482 -0.0078,-0.0059 -0.0011,-0.0033 -0.0028,-0.0064 -0.0039,-0.0098 z"
     id="path4485"
     inkscape:connector-curvature="0" />
</svg>
