<?xml version="1.0" encoding="UTF-8" standalone="no"?>
<svg
   xmlns:dc="http://purl.org/dc/elements/1.1/"
   xmlns:cc="http://creativecommons.org/ns#"
   xmlns:rdf="http://www.w3.org/1999/02/22-rdf-syntax-ns#"
   xmlns:svg="http://www.w3.org/2000/svg"
   xmlns="http://www.w3.org/2000/svg"
   xmlns:sodipodi="http://sodipodi.sourceforge.net/DTD/sodipodi-0.dtd"
   xmlns:inkscape="http://www.inkscape.org/namespaces/inkscape"
   version="1.1"
   x="0px"
   y="0px"
   viewBox="0 0 110 110"
   enable-background="new 0 0 100 100"
   xml:space="preserve"
   id="svg9086"
   sodipodi:docname="noun_CNC Milling Machine_189666.svg"
   width="110"
   height="110"
   inkscape:version="0.92.1 r15371"><metadata
     id="metadata9092"><rdf:RDF><cc:Work
         rdf:about=""><dc:format>image/svg+xml</dc:format><dc:type
           rdf:resource="http://purl.org/dc/dcmitype/StillImage" /><dc:title></dc:title></cc:Work></rdf:RDF></metadata><defs
     id="defs9090" /><sodipodi:namedview
     pagecolor="#ffffff"
     bordercolor="#666666"
     borderopacity="1"
     objecttolerance="10"
     gridtolerance="10"
     guidetolerance="10"
     inkscape:pageopacity="0"
     inkscape:pageshadow="2"
     inkscape:window-width="1920"
     inkscape:window-height="1017"
     id="namedview9088"
     showgrid="false"
     fit-margin-top="10"
     fit-margin-left="10"
     fit-margin-bottom="10"
     fit-margin-right="10"
     inkscape:zoom="1.888"
     inkscape:cx="55"
     inkscape:cy="42.5"
     inkscape:window-x="1912"
     inkscape:window-y="-8"
     inkscape:window-maximized="1"
     inkscape:current-layer="svg9086" /><rect
     x="10"
     y="94"
     width="90"
     height="6"
     id="rect9072" /><polygon
     points="26.115,38 25,38 25,56 25,86 75,86 75,56 54,56 54,38 "
     id="polygon9074"
     transform="translate(5,5)" /><polygon
     points="51,5 51,9 5,9 5,15 51,15 51,19 57,29 57,39.001 63,29 69,19 69,15 95,15 95,9 69,9 69,5 "
     id="polygon9076"
     transform="translate(5,5)" /><polygon
     points="57,53 63,53 63,42.998 "
     id="polygon9078"
     transform="translate(5,5)" /><polygon
     points="63,39.111 63,32.888 57,42.89 57,49.112 "
     id="polygon9080"
     transform="translate(5,5)" /></svg>