<?xml version="1.0" encoding="UTF-8" standalone="no"?>
<svg
   xmlns:dc="http://purl.org/dc/elements/1.1/"
   xmlns:cc="http://creativecommons.org/ns#"
   xmlns:rdf="http://www.w3.org/1999/02/22-rdf-syntax-ns#"
   xmlns:svg="http://www.w3.org/2000/svg"
   xmlns="http://www.w3.org/2000/svg"
   xmlns:sodipodi="http://sodipodi.sourceforge.net/DTD/sodipodi-0.dtd"
   xmlns:inkscape="http://www.inkscape.org/namespaces/inkscape"
   viewBox="0 0 108.68 62.004551"
   x="0px"
   y="0px"
   version="1.1"
   id="svg5678"
   sodipodi:docname="noun_Laser Cutter_2090700.svg"
   width="108.68"
   height="62.004551"
   inkscape:version="0.92.1 r15371">
  <metadata
     id="metadata5684">
    <rdf:RDF>
      <cc:Work
         rdf:about="">
        <dc:format>image/svg+xml</dc:format>
        <dc:type
           rdf:resource="http://purl.org/dc/dcmitype/StillImage" />
        <dc:title>LaserCutter</dc:title>
      </cc:Work>
    </rdf:RDF>
  </metadata>
  <defs
     id="defs5682" />
  <sodipodi:namedview
     pagecolor="#ffffff"
     bordercolor="#666666"
     borderopacity="1"
     objecttolerance="10"
     gridtolerance="10"
     guidetolerance="10"
     inkscape:pageopacity="0"
     inkscape:pageshadow="2"
     inkscape:window-width="1920"
     inkscape:window-height="1017"
     id="namedview5680"
     showgrid="false"
     fit-margin-top="10"
     fit-margin-left="10"
     fit-margin-right="10"
     fit-margin-bottom="10"
     inkscape:zoom="1.888"
     inkscape:cx="54.34"
     inkscape:cy="27.36"
     inkscape:window-x="1912"
     inkscape:window-y="-8"
     inkscape:window-maximized="1"
     inkscape:current-layer="svg5678" />
  <title
     id="title5658">LaserCutter</title>
  <g
     id="g5672"
     transform="translate(4.34,-27.855447)">
    <path
       d="m 38.86,66.06 -0.63,0.28 a 0.5,0.5 0 1 0 0.4,0.91 l 0.63,-0.28 a 0.5,0.5 0 1 0 -0.4,-0.91 z"
       id="path5660"
       inkscape:connector-curvature="0" />
    <rect
       x="88.169998"
       y="67.510002"
       width="1.42"
       height="1.42"
       id="rect5662" />
    <path
       d="m 42.76,68.89 a 0.50204581,0.50204581 0 0 0 0.71,-0.71 L 42,66.71 a 0.50204581,0.50204581 0 0 0 -0.71,0.71 z"
       id="path5664"
       inkscape:connector-curvature="0" />
    <path
       d="m 39.18,63.84 a 0.50204581,0.50204581 0 1 0 -0.71,0.71 l 0.74,0.74 a 0.50204581,0.50204581 0 0 0 0.71,-0.71 z"
       id="path5666"
       inkscape:connector-curvature="0" />
    <path
       d="m 41.58,65.22 a 0.5,0.5 0 0 0 0.2,0 l 0.63,-0.28 A 0.51276213,0.51276213 0 0 0 42,64 l -0.63,0.28 a 0.50990195,0.50990195 0 0 0 0.2,1 z"
       id="path5668"
       inkscape:connector-curvature="0" />
    <path
       d="M 92.25,42 H 90.7 v -2.48 a 0.5,0.5 0 0 0 -0.5,-0.5 h -12 a 0.5,0.5 0 0 0 -0.5,0.5 V 42 H 76 a 1.35,1.35 0 0 0 -0.77,-0.76 c -0.09,-1.84 -0.53,-2.88 -1.36,-3.25 -1.54,-0.67 -3.75,1.24 -6.76,4 H 7.75 a 2.09,2.09 0 0 0 -2.09,2.09 v 30.41 a 2.09,2.09 0 0 0 2.09,2.09 h 3.08 l 0.65,3.28 h 3.25 l 0.65,-3.28 h 68.54 l 0.65,3.28 h 3.25 l 0.65,-3.28 h 3.78 a 2.09,2.09 0 0 0 2.09,-2.09 V 44.06 A 2.09,2.09 0 0 0 92.25,42 Z M 78.74,40 h 11 v 1 h -11 z m -18.9,8 a 14.72,14.72 0 0 1 -4.09,2 c -2.73,0.76 -5.56,-0.52 -8.07,-2 z m -39.23,0 h 18.6 c 0.09,0.28 0.21,0.55 0.32,0.81 A 4.84,4.84 0 0 1 40,50.52 h -2.77 a 0.5,0.5 0 0 0 -0.5,0.5 V 53.8 H 20.61 Z m 19.9,6.38 a 1,1 0 1 1 -1,1 1,1 0 0 1 1,-0.98 z m -19.9,0.39 h 16.12 v 2.78 a 0.5,0.5 0 0 0 0.5,0.5 H 38 l 2.15,2.15 v 0 1.46 h -17 a 0.5,0.5 0 0 0 -0.31,0.11 l -2.2,1.75 z m -9,-6.78 h 8 v 5.81 h -8 z m 0,22.75 v -16 h 8 v 9.55 z m 57.3,-3.53 h -15 l 1.59,-2.75 h -4.03 l -1.14,1.14 h -9.82 a 0.25,0.25 0 0 0 0,0.5 h 10 L 51.67,65 h 2.88 L 53,67.74 H 68.9 V 71 h -56 l 10.44,-8.33 h 16.82 v 1.45 l 0.35,0.8 0.35,-0.8 v -1.43 h 28 z m 0,-5.55 h -28 v -1.43 0 L 43,58.08 h 0.78 a 0.5,0.5 0 0 0 0.5,-0.5 V 54.8 h 24.58 z m 0,-7.89 H 44.29 V 51 a 0.5,0.5 0 0 0 -0.5,-0.5 H 41 A 5.78,5.78 0 0 0 40.46,48.41 L 40.27,48 h 5.51 c 2.45,1.57 5.3,3.25 8.25,3.25 A 7.32,7.32 0 0 0 56,51 17.8,17.8 0 0 0 61.55,48 h 7.29 z M 68.55,42 c 2.08,-1.88 4,-3.46 4.87,-3.09 0.26,0.11 0.67,0.58 0.76,2.34 A 1.35,1.35 0 0 0 73.44,42 Z m 7.26,27.37 h -2.22 v -2.26 h 2.22 z m 3.43,0 H 77 v -2.26 h 2.22 z m 3.43,0 h -2.22 v -2.26 h 2.22 z m -9.07,-9.21 2.15,-7.74 h 7.6 l 2.15,7.74 z m 15.28,10.38 a 2.32,2.32 0 1 1 2.32,-2.32 2.32,2.32 0 0 1 -2.32,2.32 z"
       id="path5670"
       inkscape:connector-curvature="0" />
  </g>
</svg>
