<svg xmlns="http://www.w3.org/2000/svg" xmlns:xlink="http://www.w3.org/1999/xlink" version="1.1" x="0px" y="0px" viewBox="0 0 100 125" enable-background="new 0 0 100 100" xml:space="preserve"><path d="M93.4,65.9c0.2-0.3-0.1-0.6-0.4-0.4c-2.1,1.1-6.5,2.7-14.5,2.7c-0.4,0-14,0-14.2,0c-0.4,0-0.6,0-0.7-0.2  c-0.1-0.1-0.1-0.4-0.1-0.7l0-5.9c0-0.3-0.4-0.4-0.5-0.2c0,0-12.4,14.9-14.2,17c-0.1,0.2-0.1,0.4,0,0.5c1.8,2.2,14.1,17.1,14.1,17.1  c0.2,0.2,0.6,0.1,0.6-0.2v-6.1c0-0.4,0.1-0.7,0.6-0.7c0,0,1.8,0,8.4,0c6.4,0,8.6-1.7,13.4-9.8L93.4,65.9z"/><path d="M95.3,59.8c1.1-1.9,0.9-4.2-0.6-6.7l-8.2-14.3c-0.1-0.1-0.3-0.2-0.4-0.1L68.5,48.8c-0.1,0.1-0.2,0.3-0.1,0.4l9.2,16  c0.1,0.1,0.2,0.2,0.3,0.2C84.8,65.4,92.9,63.8,95.3,59.8z"/><path d="M15.6,81.3c0.2,0.3,0.6,0.2,0.6-0.1c0.1-2.4,0.9-7,4.9-13.9c0-0.1,7.1-12.2,7.1-12.3c0.2-0.3,0.3-0.5,0.5-0.5  c0.2,0,0.4,0.1,0.7,0.2l5.1,2.9c0.3,0.1,0.5-0.1,0.4-0.4c0,0-6.7-18.1-7.7-20.8c-0.1-0.2-0.3-0.3-0.5-0.3C24,36.6,4.9,39.8,4.9,39.8  c-0.3,0-0.4,0.5-0.1,0.6l5.3,3c0.3,0.2,0.6,0.4,0.3,0.9c0,0-0.9,1.5-4.2,7.3C2.9,57.1,3.2,59.9,7.9,68L15.6,81.3z"/><path d="M19.9,86c1.1,1.9,3.1,2.9,6.1,2.9l16.5,0c0.2,0,0.3-0.1,0.3-0.3l0-20.3c0-0.2-0.1-0.3-0.3-0.3l-18.4,0  c-0.1,0-0.2,0.1-0.3,0.2C20.2,74.1,17.6,81.9,19.9,86z"/><path d="M41.3,5.5c-0.3,0-0.4,0.4-0.2,0.6c2.1,1.3,5.6,4.3,9.6,11.2c0,0.1,7.1,12.2,7.1,12.3c0.2,0.3,0.3,0.5,0.2,0.7  c-0.1,0.2-0.2,0.3-0.6,0.5l-5.1,2.9c-0.3,0.1-0.2,0.5,0.1,0.6c0,0,19.1,3.3,21.8,3.7c0.2,0,0.4-0.1,0.5-0.3c1-2.6,7.8-20.8,7.8-20.8  c0.1-0.3-0.2-0.6-0.5-0.4l-5.3,3c-0.3,0.2-0.6,0.3-0.9-0.2c0,0-0.9-1.6-4.2-7.3C68.6,6.6,66,5.5,56.6,5.5L41.3,5.5z"/><path d="M35.1,6.9c-2.2,0-4.1,1.3-5.6,3.9l-8.2,14.3c-0.1,0.1,0,0.3,0.1,0.4l17.6,10.1c0.1,0.1,0.3,0,0.4-0.1l9.2-16  c0.1-0.1,0.1-0.2,0-0.3C45.2,13.1,39.8,7,35.1,6.9z"/><text x="0" y="115" fill="#000000" font-size="5px" font-weight="bold" font-family="'Helvetica Neue', Helvetica, Arial-Unicode, Arial, Sans-serif">Created by Loren Klein</text><text x="0" y="120" fill="#000000" font-size="5px" font-weight="bold" font-family="'Helvetica Neue', Helvetica, Arial-Unicode, Arial, Sans-serif">from the Noun Project</text></svg>