<?xml version="1.0" encoding="UTF-8" standalone="no"?>
<svg
   xmlns:dc="http://purl.org/dc/elements/1.1/"
   xmlns:cc="http://creativecommons.org/ns#"
   xmlns:rdf="http://www.w3.org/1999/02/22-rdf-syntax-ns#"
   xmlns:svg="http://www.w3.org/2000/svg"
   xmlns="http://www.w3.org/2000/svg"
   xmlns:sodipodi="http://sodipodi.sourceforge.net/DTD/sodipodi-0.dtd"
   xmlns:inkscape="http://www.inkscape.org/namespaces/inkscape"
   version="1.1"
   x="0px"
   y="0px"
   viewBox="0 0 110 80.085996"
   enable-background="new 0 0 100 70.09"
   xml:space="preserve"
   id="svg5107"
   sodipodi:docname="noun_Lathe Machine_78251.svg"
   width="110"
   height="80.085999"
   inkscape:version="0.92.1 r15371"><metadata
     id="metadata5113"><rdf:RDF><cc:Work
         rdf:about=""><dc:format>image/svg+xml</dc:format><dc:type
           rdf:resource="http://purl.org/dc/dcmitype/StillImage" /><dc:title></dc:title></cc:Work></rdf:RDF></metadata><defs
     id="defs5111" /><sodipodi:namedview
     pagecolor="#ffffff"
     bordercolor="#666666"
     borderopacity="1"
     objecttolerance="10"
     gridtolerance="10"
     guidetolerance="10"
     inkscape:pageopacity="0"
     inkscape:pageshadow="2"
     inkscape:window-width="1920"
     inkscape:window-height="1017"
     id="namedview5109"
     showgrid="false"
     fit-margin-top="10"
     fit-margin-left="10"
     fit-margin-bottom="10"
     fit-margin-right="10"
     inkscape:zoom="2.6936795"
     inkscape:cx="46.090254"
     inkscape:cy="31.281748"
     inkscape:window-x="1912"
     inkscape:window-y="-8"
     inkscape:window-maximized="1"
     inkscape:current-layer="svg5107" /><path
     d="M 31.094,69.024 V 43.027 h -13.53 v 25.997 h -2.652 v 1.062 h 2.653 13.529 2.652 v -1.062 z m -2.919,-4.907 c 0,0.439 -0.356,0.796 -0.795,0.796 h -6.102 c -0.439,0 -0.796,-0.356 -0.796,-0.796 V 48.996 c 0,-0.439 0.356,-0.796 0.796,-0.796 h 6.102 c 0.439,0 0.795,0.356 0.795,0.796 z"
     id="path5057"
     inkscape:connector-curvature="0" /><circle
     cx="26.319"
     cy="57.220001"
     r="1.061"
     id="circle5059" /><path
     d="M 95.025,69.024 V 43.027 H 81.496 v 25.997 h -2.652 v 1.062 h 2.652 13.529 2.653 v -1.062 z m -2.918,-4.907 c 0,0.439 -0.356,0.796 -0.796,0.796 H 85.21 c -0.439,0 -0.796,-0.356 -0.796,-0.796 V 48.996 c 0,-0.439 0.356,-0.796 0.796,-0.796 h 6.102 c 0.439,0 0.796,0.356 0.796,0.796 v 15.121 z"
     id="path5061"
     inkscape:connector-curvature="0" /><circle
     cx="88.417"
     cy="63.212002"
     r="1.061"
     id="circle5063" /><rect
     x="10"
     y="12.123"
     width="6.5040002"
     height="22.548"
     id="rect5065" /><circle
     cx="61.826"
     cy="33.677002"
     r="0.56599998"
     id="circle5067" /><circle
     cx="60.334999"
     cy="33.097"
     r="0.83999997"
     id="circle5069" /><path
     d="m 64.715,37.179 c -0.249,0.424 -0.394,0.879 -0.446,1.339 l 2.515,0.02 c 0.145,-0.339 0.48,-0.577 0.873,-0.577 0.055,0 0.107,0.007 0.159,0.016 l 1.273,-2.164 c -1.572,-0.73 -3.478,-0.159 -4.374,1.366 z"
     id="path5071"
     inkscape:connector-curvature="0" /><path
     d="m 69.593,41.712 c 0.397,-0.273 0.743,-0.632 1.004,-1.074 0.917,-1.559 0.447,-3.553 -1.031,-4.552 l -1.258,2.138 c 0.182,0.172 0.296,0.415 0.296,0.685 0,0.242 -0.094,0.46 -0.243,0.627 z"
     id="path5073"
     inkscape:connector-curvature="0" /><path
     d="m 65.925,41.85 c 1.012,0.595 2.206,0.607 3.193,0.141 L 67.89,39.824 c -0.075,0.02 -0.153,0.033 -0.234,0.033 -0.463,0 -0.847,-0.332 -0.931,-0.769 l -2.476,-0.021 c 0.055,1.112 0.647,2.177 1.676,2.783 z"
     id="path5075"
     inkscape:connector-curvature="0" /><circle
     cx="69.588997"
     cy="42.581001"
     r="0.54100001"
     id="circle5077" /><rect
     x="57.323002"
     y="25.681"
     width="9.8149996"
     height="2.52"
     id="rect5079" /><rect
     x="57.838001"
     y="22.542"
     width="11.273"
     height="2.7850001"
     id="rect5081" /><path
     d="m 72.199,21.951 c -0.245,0 -0.473,0.012 -0.672,0.032 v -0.049 c 0,-0.193 -0.241,-0.351 -0.539,-0.351 -0.297,0 -0.538,0.157 -0.538,0.351 v 1.489 h -1.051 v 0.964 h 1.051 v 1.489 c 0,0.193 0.241,0.35 0.538,0.35 0.298,0 0.539,-0.157 0.539,-0.35 v -1.489 -0.964 -1.012 c 0.199,0.02 0.427,0.033 0.672,0.033 0.763,0 1.38,-0.11 1.38,-0.247 0,-0.136 -0.617,-0.246 -1.38,-0.246 z"
     id="path5083"
     inkscape:connector-curvature="0" /><path
     d="m 98.209,15.704 c -0.342,0 -0.66,0.036 -0.933,0.098 -0.019,-0.423 -0.364,-0.761 -0.792,-0.761 -0.439,0 -0.796,0.356 -0.796,0.796 v 7.428 c 0,0.439 0.356,0.796 0.796,0.796 0.44,0 0.796,-0.356 0.796,-0.796 v -6.331 c 0.271,0.061 0.588,0.097 0.929,0.097 0.989,0 1.791,-0.297 1.791,-0.664 0,-0.367 -0.802,-0.663 -1.791,-0.663 z"
     id="path5085"
     inkscape:connector-curvature="0" /><path
     d="M 40.322,18.608 V 17.765 H 39.386 V 16.828 H 38.73 v -1.077 l -0.563,0.033 v -1.423 h -5.571 v 10.081 h 5.571 v -1.424 l 0.563,0.033 v -1.077 h 0.656 v -0.937 h 0.936 v -0.843 h -2.155 v -1.586 z m -3.79,1.368 c -0.317,0 -0.575,-0.257 -0.575,-0.575 0,-0.318 0.257,-0.575 0.575,-0.575 0.318,0 0.575,0.257 0.575,0.575 0,0.318 -0.258,0.575 -0.575,0.575 z"
     id="path5087"
     inkscape:connector-curvature="0" /><path
     d="m 65.063,15.648 c -0.326,0 -0.59,0.264 -0.59,0.59 0,0.036 0.004,0.071 0.011,0.106 l -1.264,0.698 c -0.105,-0.316 -0.4,-0.546 -0.752,-0.546 H 62.29 c -0.439,0 -0.796,0.356 -0.796,0.796 v 1.16 h 1.77 v -1.064 l 1.364,-0.753 c 0.107,0.118 0.262,0.194 0.435,0.194 0.325,0 0.59,-0.264 0.59,-0.59 0,-0.326 -0.264,-0.591 -0.59,-0.591 z"
     id="path5089"
     inkscape:connector-curvature="0" /><polygon
     points="59.762,14.938 59.762,13.661 59.074,13.661 55.388,13.661 54.7,13.661 54.7,14.938 55.388,14.938 55.388,15.529 51.029,15.529 51.029,14.984 49.848,15.19 48.819,16.218 48.819,17.297 51.029,17.297 55.388,17.297 59.074,17.297 60.491,17.297 60.491,15.529 59.074,15.529 59.074,14.938 "
     id="polygon5091"
     transform="translate(5,4.998)" /><polygon
     points="48.119,17.205 47.419,16.32 48.451,16.357 48.451,17.205 "
     id="polygon5093"
     transform="translate(5,4.998)" /><circle
     cx="26.142"
     cy="31.310999"
     r="0.78500003"
     id="circle5095" /><path
     d="M 95.025,38.385 V 33.97 32.776 30.957 29.366 17.163 H 94.76 89.455 86.271 v 1.398 h -1.395 v 0.522 l -1.089,0.452 1.089,0.386 v 0.468 h 1.395 v 1.284 h 2.663 l -0.888,7.693 H 73.008 V 28.557 H 56.561 v 0.809 h -8.489 v 3.411 1.194 4.415 H 31.889 V 10 H 17.564 v 28.385 h -3.713 v 3.979 h 50.577 c -1.583,-1.479 -1.993,-3.912 -0.85,-5.854 1.322,-2.249 4.228,-3.001 6.477,-1.679 2.248,1.323 3.002,4.228 1.679,6.477 -0.236,0.402 -0.525,0.754 -0.85,1.057 H 99.27 V 38.386 H 95.025 Z M 23.089,28.812 c -0.879,0.025 -1.612,-0.667 -1.637,-1.545 -0.009,-0.308 0.072,-0.597 0.216,-0.845 l -1.206,-1.153 c -0.112,0.063 -0.238,0.104 -0.375,0.108 -0.449,0.013 -0.823,-0.341 -0.836,-0.789 -0.013,-0.449 0.34,-0.824 0.789,-0.836 0.449,-0.013 0.824,0.341 0.836,0.79 0.004,0.14 -0.031,0.271 -0.089,0.387 l 1.177,1.125 c 0.272,-0.252 0.633,-0.411 1.033,-0.423 0.878,-0.025 1.612,0.667 1.637,1.545 0.026,0.878 -0.666,1.611 -1.545,1.636 z m 5.794,0.411 c -0.14,0 -0.27,-0.039 -0.384,-0.101 l -1.158,1.144 c 0.244,0.28 0.393,0.645 0.393,1.045 0,0.879 -0.713,1.592 -1.592,1.592 -0.879,0 -1.592,-0.713 -1.592,-1.592 0,-0.879 0.713,-1.592 1.592,-1.592 0.309,0 0.595,0.089 0.839,0.241 l 1.187,-1.172 c -0.06,-0.113 -0.098,-0.241 -0.098,-0.378 0,-0.449 0.364,-0.813 0.813,-0.813 0.449,0 0.813,0.364 0.813,0.813 0,0.449 -0.364,0.813 -0.813,0.813 z m 27.678,9.162 h -3.554 c 0.183,-1.016 0.749,-3.241 2.324,-4.415 h 1.229 v 4.415 z m 3.774,-2.911 c -1.313,0 -2.378,-1.065 -2.378,-2.377 0,-1.313 1.064,-2.378 2.378,-2.378 1.314,0 2.378,1.064 2.378,2.378 0,1.312 -1.065,2.377 -2.378,2.377 z m 12.673,2.911 V 33.97 h 14.758 c 1.575,1.173 2.142,3.399 2.324,4.415 z M 93.523,26.471 c -0.091,0 -0.176,-0.025 -0.25,-0.065 l -0.755,0.746 c 0.158,0.182 0.257,0.417 0.257,0.677 0,0.571 -0.463,1.035 -1.034,1.035 -0.571,0 -1.035,-0.463 -1.035,-1.035 0,-0.572 0.464,-1.035 1.035,-1.035 0.2,0 0.386,0.06 0.544,0.158 l 0.772,-0.763 c -0.039,-0.074 -0.062,-0.157 -0.062,-0.246 0,-0.292 0.236,-0.528 0.528,-0.528 0.292,0 0.528,0.236 0.528,0.528 0,0.292 -0.236,0.528 -0.528,0.528 z"
     id="path5097"
     inkscape:connector-curvature="0" /><circle
     cx="91.740997"
     cy="27.828999"
     r="0.50999999"
     id="circle5099" /><circle
     cx="23.044001"
     cy="27.220999"
     r="0.78500003"
     id="circle5101" /></svg>