<?xml version="1.0" encoding="UTF-8" standalone="no"?>
<svg
   xmlns:dc="http://purl.org/dc/elements/1.1/"
   xmlns:cc="http://creativecommons.org/ns#"
   xmlns:rdf="http://www.w3.org/1999/02/22-rdf-syntax-ns#"
   xmlns:svg="http://www.w3.org/2000/svg"
   xmlns="http://www.w3.org/2000/svg"
   xmlns:sodipodi="http://sodipodi.sourceforge.net/DTD/sodipodi-0.dtd"
   xmlns:inkscape="http://www.inkscape.org/namespaces/inkscape"
   version="1.1"
   x="0px"
   y="0px"
   viewBox="0 0 108.90299 111.55078"
   xml:space="preserve"
   id="svg6834"
   sodipodi:docname="noun_hand tools_1484921.svg"
   width="108.90299"
   height="111.55078"
   inkscape:version="0.92.1 r15371"><metadata
     id="metadata6840"><rdf:RDF><cc:Work
         rdf:about=""><dc:format>image/svg+xml</dc:format><dc:type
           rdf:resource="http://purl.org/dc/dcmitype/StillImage" /><dc:title></dc:title></cc:Work></rdf:RDF></metadata><defs
     id="defs6838" /><sodipodi:namedview
     pagecolor="#ffffff"
     bordercolor="#666666"
     borderopacity="1"
     objecttolerance="10"
     gridtolerance="10"
     guidetolerance="10"
     inkscape:pageopacity="0"
     inkscape:pageshadow="2"
     inkscape:window-width="1920"
     inkscape:window-height="1017"
     id="namedview6836"
     showgrid="false"
     fit-margin-top="10"
     fit-margin-left="10"
     fit-margin-bottom="10"
     fit-margin-right="10"
     inkscape:zoom="1.888"
     inkscape:cx="41.742579"
     inkscape:cy="43.275391"
     inkscape:window-x="1912"
     inkscape:window-y="-8"
     inkscape:window-maximized="1"
     inkscape:current-layer="svg6834" /><g
     id="g6828"
     transform="translate(4.4544434,5.7753909)"><path
       d="m 54.954102,17.324219 h 5.065918 c 0.828613,0 1.5,-0.671387 1.5,-1.5 0,-0.213379 0.173339,-0.386719 0.386718,-0.386719 h 4.481934 c 2.453125,0 4.449219,1.996094 4.449219,4.449219 v 3.090027 l -0.553894,20.668701 c -0.487549,1.344177 -2.604492,7.856628 -2.420227,19.192932 0.03662,2.233398 0.08594,4.459961 0.134277,6.637207 0.211426,9.53125 0.411133,18.533691 -0.677734,22.268066 -0.07764,0.265625 -0.08008,0.547852 -0.0073,0.814942 0.848145,3.106933 4.639161,3.216797 7.084473,3.216797 0.09521,0 0.188965,0 0.279785,0 l 0.279297,-4.89e-4 0.279297,4.89e-4 c 0.09131,0 0.18457,0 0.279785,0 2.445313,0 6.236817,-0.109864 7.083985,-3.217286 0.07275,-0.267089 0.07031,-0.548828 -0.0073,-0.814453 -1.088868,-3.733398 -0.889161,-12.733886 -0.677247,-22.262695 0.04834,-2.179199 0.09766,-4.407227 0.134278,-6.642578 0.16278,-10.016174 -1.473084,-16.269409 -2.193238,-18.519898 0.03601,-0.135192 0.06012,-0.273864 0.05701,-0.416137 L 79.466797,22.966797 c -1.22e-4,-0.0054 -0.0017,-0.01038 -0.0019,-0.01575 -6.1e-4,-0.02045 -0.006,-0.04114 -0.0074,-0.06165 -0.0058,-0.07928 -0.01331,-0.158081 -0.03095,-0.233398 -6.72e-4,-0.0031 -4.88e-4,-0.006 -0.0012,-0.009 -0.04004,-0.170411 -0.95166,-4.208496 1.916992,-7.257813 1.333008,-1.415527 4.969727,1.649414 6.052246,2.622559 2.711426,2.4375 4.12793,6.082519 4.141114,6.117187 0.223633,0.588867 0.786621,0.967774 1.401367,0.967774 0.07324,0 0.147461,-0.0054 0.22168,-0.01611 0.697265,-0.104004 1.228027,-0.679199 1.275879,-1.382324 0.01074,-0.158691 0.240722,-3.920898 -1.664063,-7.664551 C 91.278809,13.102051 89.579102,10.645508 87.71875,8.7333984 82.979004,3.862793 76.258789,4.1181641 71.354004,4.3027344 c -0.862793,0.032715 -1.677735,0.063965 -2.424317,0.063965 -0.312011,0 -0.61621,0.097168 -0.870117,0.2783203 C 65.395508,6.5405273 62.648926,5.9570312 61.248535,5.4409179 60.678223,5.2304687 60.333984,5.0322265 60.333984,5.0322265 60.101562,4.8940429 59.836426,4.8208007 59.565918,4.8208007 h -4.611817 c -0.828613,0 -1.5,0.6713867 -1.5,1.5 v 9.5034183 c 10e-7,0.828613 0.671387,1.5 1.500001,1.5 z m 21.927246,25.109863 h -1.924805 -1.63916 L 73.79834,24.498535 h 2.700683 z m -1.640137,50.341309 -0.284668,-4.89e-4 -0.284668,4.89e-4 c -1.327148,-9.77e-4 -3.686035,0.0063 -4.324707,-0.746582 C 71.402344,87.658203 71.213867,79.170898 70.99707,69.40918 70.94922,67.237305 70.8999,65.01709 70.863769,62.789551 70.71289,53.532227 72.188965,47.612793 72.854004,45.434082 h 2.102539 2.102051 c 0.666015,2.181152 2.141601,8.100586 1.990722,17.355469 -0.03613,2.229004 -0.08545,4.45166 -0.133789,6.625 -0.216797,9.759277 -0.404785,18.244629 0.649903,22.614258 -0.638184,0.752929 -2.993164,0.74707 -4.324219,0.746582 z M 56.454102,7.8208008 h 2.740234 c 0.242676,0.1201172 0.587402,0.2768555 1.016113,0.4345703 1.886231,0.6958008 5.530762,1.472168 9.185059,-0.8920898 0.650879,-0.00928 1.345215,-0.035156 2.071777,-0.0625 4.58252,-0.1743164 10.291992,-0.3896484 14.101074,3.5249027 1.231934,1.265625 2.393067,2.817871 3.465821,4.630859 -5.383789,-4.68457 -8.339844,-3.758789 -9.876465,-2.123047 -2.630432,2.795532 -2.969666,6.131348 -2.878174,8.165039 h -2.44165 v -1.611816 c 0,-4.107422 -3.341797,-7.449219 -7.449219,-7.449219 h -4.481934 c -1.329101,0 -2.481933,0.769531 -3.036132,1.886719 H 56.454102 Z M 8.3740234,91.080078 c 0.018066,0.08838 0.044434,0.174805 0.077637,0.258301 1.0830078,2.695312 3.6596676,4.437012 6.5639646,4.437012 2.904785,0 5.481445,-1.7417 6.564453,-4.437012 0.0332,-0.0835 0.05908,-0.169922 0.07715,-0.258301 l 1.014161,-4.94873 C 24.620605,81.203613 25.008301,75.878418 23.79248,70.71875 L 22.276855,60.191406 c -0.0068,-0.04492 -0.01514,-0.08984 -0.02588,-0.133789 -0.76416,-3.206543 -0.8208,-6.608887 -0.163574,-9.838867 l 0.713379,-3.504883 c 0.148438,-0.733398 -0.0376,-1.486328 -0.511719,-2.065918 -0.473144,-0.579102 -1.173828,-0.911133 -1.921875,-0.911133 H 18.99707 V 16.686523 l 1.395508,-1.505859 c 0.347168,-0.375488 0.47998,-0.901367 0.351074,-1.396485 L 18.552734,5.347656 C 18.381347,4.6865232 17.784179,4.2246091 17.101074,4.2246091 h -4.170898 c -0.69336,0 -1.296387,0.4750977 -1.458496,1.1494141 L 9.4438475,13.810547 c -0.1113281,0.463379 0.00439,0.952636 0.3115234,1.316894 l 1.2792971,1.519043 V 43.736816 H 9.6645508 c -0.7485352,0 -1.4492188,0.33252 -1.9228516,0.91211 -0.4736328,0.579589 -0.659668,1.333007 -0.5102539,2.065918 l 0.7128906,3.504394 c 0.6572266,3.228516 0.6005859,6.630859 -0.1635742,9.838379 -0.010742,0.04443 -0.019043,0.08887 -0.025879,0.133789 L 6.2392578,70.71875 C 5.0234375,75.878418 5.4111328,81.203613 7.3603516,86.131348 Z M 20.173218,84.199707 H 9.8585205 C 9.6644897,83.649109 9.4923096,83.094299 9.3416748,82.534668 H 20.690063 c -0.150634,0.559631 -0.322815,1.114441 -0.516845,1.665039 z m -5.157593,8.575684 c -1.630859,0 -3.082031,-0.953614 -3.731445,-2.439942 l -0.642334,-3.135742 h 8.748047 l -0.642334,3.135742 c -0.649415,1.486328 -2.100586,2.439942 -3.731934,2.439942 z m -1.333984,-77.643067 -1.143555,-1.35791 1.574219,-6.5498047 h 1.828613 l 1.692871,6.5190427 -1.237305,1.33545 c -0.256835,0.277343 -0.399414,0.641601 -0.399414,1.019531 V 43.736816 H 15.015625 14.034668 V 16.098633 c 0,-0.353516 -0.125,-0.695801 -0.353027,-0.966309 z m -1.146973,31.604492 h 2.480957 2.481445 2.237305 l -0.536072,2.636231 H 10.833374 L 10.297363,46.736816 Z M 9.1733398,71.34668 c 0.010742,-0.04395 0.019043,-0.08887 0.025879,-0.133789 L 10.714844,60.685547 c 0.637268,-2.707337 0.829468,-5.535767 0.573791,-8.3125 h 7.454468 c -0.255737,2.777405 -0.06354,5.605774 0.573791,8.3125 l 1.515625,10.527344 c 0.0068,0.04492 0.01514,0.08984 0.02588,0.133789 0.646668,2.712463 0.777466,5.475708 0.428528,8.187988 H 8.744812 C 8.395874,76.822388 8.5266724,74.059143 9.1733398,71.34668 Z M 32.619141,44.932617 c 2.149902,1.806641 3.467773,3.009766 3.467773,4.901367 v 11.175782 27.661132 c 0,3.917481 3.1875,7.104493 7.104981,7.104493 3.91748,0 7.10498,-3.187012 7.10498,-7.104493 V 61.143555 58.791992 50.785645 C 56.018066,47.874023 59.39502,41.769531 58.769043,35.288086 58.121094,28.587891 53.058594,22.930664 46.457031,21.53125 c -0.441894,-0.09521 -0.904297,0.01709 -1.255371,0.301758 -0.351562,0.284668 -0.555664,0.71289 -0.555664,1.165527 v 11.309082 c 0,0.381348 -0.310547,0.691895 -0.691894,0.691895 H 42.45752 V 22.998535 c 0,-0.461914 -0.212891,-0.897949 -0.577149,-1.182617 -0.364258,-0.28418 -0.839844,-0.386719 -1.287109,-0.272461 -5.678528,1.420777 -10.092041,6.871582 -11.035095,13.456055 h -0.500061 c -0.375489,0 -0.751465,0.154785 -1.028321,0.408203 -0.310058,0.28418 -0.486328,0.685547 -0.486328,1.105957 0,4.154785 2.814453,6.519531 5.075684,8.418945 z m 6.467773,25.870606 h 8.209961 v 2.505859 h -8.209961 z m 8.209961,-3 h -8.209961 v -2.50586 h 8.209961 z m -4.104981,24.972168 c -2.263671,0 -4.10498,-1.841309 -4.10498,-4.104493 V 76.309082 h 8.209961 v 12.361816 c 0,2.263184 -1.841309,4.104493 -4.104981,4.104493 z m 4.454102,-58.467774 v -9.310058 c 4.428223,1.676269 7.674805,5.799316 8.136719,10.579101 0.532715,5.515137 -2.513672,10.691406 -7.580567,12.880371 -0.549316,0.237305 -0.905273,0.778321 -0.905273,1.376953 v 8.958008 2.351563 1.153808 H 39.086914 V 61.009766 49.833984 c 0,-3.385254 -2.411133,-5.411132 -4.538086,-7.198242 -1.730468,-1.453613 -3.270996,-2.748047 -3.805664,-4.63623 h 13.210938 c 2.035644,0 3.691894,-1.65625 3.691894,-3.691895 z m -8.188477,-9.175781 v 9.867676 h -6.862487 c 0.758972,-4.443177 3.378906,-8.184449 6.862487,-9.867676 z"
       id="path6826"
       inkscape:connector-curvature="0" /></g></svg>