<?xml version="1.0" encoding="UTF-8" standalone="no"?>
<svg
   xmlns:dc="http://purl.org/dc/elements/1.1/"
   xmlns:cc="http://creativecommons.org/ns#"
   xmlns:rdf="http://www.w3.org/1999/02/22-rdf-syntax-ns#"
   xmlns:svg="http://www.w3.org/2000/svg"
   xmlns="http://www.w3.org/2000/svg"
   xmlns:sodipodi="http://sodipodi.sourceforge.net/DTD/sodipodi-0.dtd"
   xmlns:inkscape="http://www.inkscape.org/namespaces/inkscape"
   data-name="Layer 1"
   viewBox="0 0 117 110.71214"
   x="0px"
   y="0px"
   version="1.1"
   id="svg8521"
   sodipodi:docname="noun_Community_843313.svg"
   width="117"
   height="110.71214"
   inkscape:version="0.92.1 r15371">
  <metadata
     id="metadata8527">
    <rdf:RDF>
      <cc:Work
         rdf:about="">
        <dc:format>image/svg+xml</dc:format>
        <dc:type
           rdf:resource="http://purl.org/dc/dcmitype/StillImage" />
        <dc:title>Artboard 5</dc:title>
      </cc:Work>
    </rdf:RDF>
  </metadata>
  <defs
     id="defs8525" />
  <sodipodi:namedview
     pagecolor="#ffffff"
     bordercolor="#666666"
     borderopacity="1"
     objecttolerance="10"
     gridtolerance="10"
     guidetolerance="10"
     inkscape:pageopacity="0"
     inkscape:pageshadow="2"
     inkscape:window-width="1920"
     inkscape:window-height="1017"
     id="namedview8523"
     showgrid="false"
     fit-margin-top="10"
     fit-margin-left="10"
     fit-margin-bottom="10"
     fit-margin-right="10"
     inkscape:zoom="1.888"
     inkscape:cx="58.5"
     inkscape:cy="42.950042"
     inkscape:window-x="1912"
     inkscape:window-y="-8"
     inkscape:window-maximized="1"
     inkscape:current-layer="svg8521" />
  <title
     id="title8513">Artboard 5</title>
  <path
     d="m 39.36,76.482102 a 2.5,2.5 0 0 1 -3.54,0 31.92,31.92 0 0 1 -7.43,-12.23 2.5,2.5 0 1 1 4.75,-1.56 26.91,26.91 0 0 0 6.26,10.3 2.5,2.5 0 0 1 -0.04,3.49 z m 40,0.71 a 2.49,2.49 0 0 0 1.79,-0.75 31.94,31.94 0 0 0 7.43,-12.23 2.5013696,2.5013696 0 1 0 -4.75,-1.57 26.92,26.92 0 0 1 -6.26,10.3 2.5,2.5 0 0 0 1.79,4.25 z m -26.86,-48.88 a 27,27 0 0 1 12,0 2.5,2.5 0 1 0 1.12,-4.87 32.06,32.06 0 0 0 -14.25,0 2.5,2.5 0 1 0 1.13,4.87 z m 24.46,-7.23 a 11.42,11.42 0 0 1 22.83,0 11.42,11.42 0 0 1 -22.83,0 z m 5,0 a 6.42,6.42 0 0 0 12.83,0 6.42,6.42 0 0 0 -12.83,0 z m 25,21.53 v 6.87 a 4.74,4.74 0 0 1 -4.76,4.72 H 74.5 a 4.74,4.74 0 0 1 -4.76,-4.72 v -6.87 a 9.57,9.57 0 0 1 9.62,-9.5 h 2.57 a 2.5,2.5 0 0 1 1.75,0.72 l 4.68,4.6 4.68,-4.6 a 2.5,2.5 0 0 1 1.75,-0.72 h 2.57 a 9.57,9.57 0 0 1 9.64,9.5 z m -5,0 a 4.57,4.57 0 0 0 -4.62,-4.5 h -1.51 l -4.93,4.85 a 3.62,3.62 0 0 1 -5.06,0 l -4.93,-4.85 h -1.55 a 4.57,4.57 0 0 0 -4.62,4.5 v 6.59 H 102 Z m -84.75,-21.53 a 11.42,11.42 0 0 1 22.83,0 11.42,11.42 0 0 1 -22.83,0 z m 5,0 a 6.42,6.42 0 0 0 12.83,0 6.42,6.42 0 0 0 -12.83,0 z m -12.21,28.4 v -6.87 a 9.57,9.57 0 0 1 9.62,-9.5 h 2.58 a 2.5,2.5 0 0 1 1.75,0.72 l 4.68,4.6 4.68,-4.6 a 2.5,2.5 0 0 1 1.75,-0.72 h 2.57 a 9.57,9.57 0 0 1 9.62,9.5 v 6.87 a 4.74,4.74 0 0 1 -4.75,4.72 H 14.76 a 4.74,4.74 0 0 1 -4.76,-4.72 z m 5,-0.28 h 27.26 v -6.59 a 4.57,4.57 0 0 0 -4.62,-4.5 h -1.55 l -4.93,4.85 a 3.62,3.62 0 0 1 -5.06,0 l -4.93,-4.85 h -1.55 a 4.57,4.57 0 0 0 -4.62,4.5 z m 54.92,18.39 a 11.42,11.42 0 1 1 -11.42,-11.27 11.35,11.35 0 0 1 11.42,11.27 z m -5,0 a 6.42,6.42 0 1 0 -6.42,6.27 6.35,6.35 0 0 0 6.42,-6.27 z m 12.21,21.53 v 6.87 A 4.74,4.74 0 0 1 72.37,100.7121 H 44.63 a 4.74,4.74 0 0 1 -4.76,-4.719998 v -6.87 a 9.57,9.57 0 0 1 9.63,-9.5 h 2.57 a 2.5,2.5 0 0 1 1.75,0.72 l 4.68,4.6 4.68,-4.6 a 2.5,2.5 0 0 1 1.75,-0.72 h 2.57 a 9.57,9.57 0 0 1 9.63,9.5 z m -5,0 a 4.57,4.57 0 0 0 -4.63,-4.5 h -1.54 l -4.93,4.84 a 3.62,3.62 0 0 1 -5.05,0 l -4.93,-4.85 H 49.5 a 4.57,4.57 0 0 0 -4.62,4.5 v 6.59 h 27.25 z"
     id="path8515"
     inkscape:connector-curvature="0" />
</svg>
