<?xml version="1.0" encoding="UTF-8" standalone="no"?>
<svg
   xmlns:dc="http://purl.org/dc/elements/1.1/"
   xmlns:cc="http://creativecommons.org/ns#"
   xmlns:rdf="http://www.w3.org/1999/02/22-rdf-syntax-ns#"
   xmlns:svg="http://www.w3.org/2000/svg"
   xmlns="http://www.w3.org/2000/svg"
   xmlns:sodipodi="http://sodipodi.sourceforge.net/DTD/sodipodi-0.dtd"
   xmlns:inkscape="http://www.inkscape.org/namespaces/inkscape"
   version="1.1"
   x="0px"
   y="0px"
   viewBox="0 0 110.2 103.20131"
   xml:space="preserve"
   id="svg6275"
   sodipodi:docname="noun_IoT_1174552.svg"
   width="110.2"
   height="103.20131"
   inkscape:version="0.92.1 r15371"><metadata
     id="metadata6281"><rdf:RDF><cc:Work
         rdf:about=""><dc:format>image/svg+xml</dc:format><dc:type
           rdf:resource="http://purl.org/dc/dcmitype/StillImage" /><dc:title></dc:title></cc:Work></rdf:RDF></metadata><defs
     id="defs6279" /><sodipodi:namedview
     pagecolor="#ffffff"
     bordercolor="#666666"
     borderopacity="1"
     objecttolerance="10"
     gridtolerance="10"
     guidetolerance="10"
     inkscape:pageopacity="0"
     inkscape:pageshadow="2"
     inkscape:window-width="1920"
     inkscape:window-height="1017"
     id="namedview6277"
     showgrid="false"
     fit-margin-top="10"
     fit-margin-left="10"
     fit-margin-bottom="10"
     fit-margin-right="10"
     inkscape:zoom="1.888"
     inkscape:cx="55"
     inkscape:cy="38.799992"
     inkscape:window-x="1912"
     inkscape:window-y="-8"
     inkscape:window-maximized="1"
     inkscape:current-layer="svg6275" /><style
     type="text/css"
     id="style6229">
	.st0{stroke:#000000;stroke-miterlimit:10;}
	.st1{fill:none;stroke:#000000;stroke-width:2;stroke-miterlimit:10;}
	.st2{fill:none;stroke:#000000;stroke-miterlimit:10;}
	.st3{fill:none;}
</style><path
     d="m 25.9,70.60131 2,-3.1 c 4.9,2 10.5,1.5 15,-1.4 l 8.5,11 c -2,3.3 -0.5,7.8 3.5,9 1.5,0.4 3.1,0.3 4.5,-0.5 2.7,-1.5 3.7,-4.6 2.8,-7.3 h 0.1 l 19.3,-10.3 c 0.1,-0.1 0.2,-0.1 0.2,-0.2 4.5,4.8 12.4,4.5 16.4,-1.2 1.6,-2.2 2.2,-5.2 1.6,-8 -1,-4.5 -4.6,-7.6 -8.7,-8.2 v -16.3 c -0.9,0 -2,0 -3,0 v 16.3 c -0.8,0.1 -1.7,0.3 -2.5,0.7 0,-0.1 0,-0.1 -0.1,-0.2 l -9,-13.3 c 0,0 -0.1,0 -0.1,-0.1 2.3,-2.4 2.3,-6.2 -0.1,-8.5 -2.4,-2.3 -6.2,-2.3 -8.5,0.1 -0.3,0.3 -0.5,0.6 -0.7,0.9 -0.1,-0.1 -0.1,-0.1 -0.2,-0.2 l -32.9,-12 v -0.3 c 0,-2.9 -1.9,-5.5 -4.8,-6.1 -3.9,-0.8 -7.2,2.2 -7.2,5.9 0,3.3 2.7,6 6,6 l 3,12.8 c -9,1.7 -14.9,10.3 -13.2,19.3 0.8,4.5 3.5,8.4 7.3,10.8 l -1.6,2.5 m 45.7,-36.3 c 0.4,-1.2 1.7,-2 3,-2 1,0 1.9,0.5 2.4,1.4 1.2,2.3 -0.4,4.6 -2.6,4.6 -1.9,0 -3.5,-1.9 -2.8,-4 z m -41.2,-12.1 c -1.7,0 -3,-1.3 -3,-3 0,-1.7 1.3,-3 3,-3 1.7,0 3,1.3 3,3 0,1.7 -1.3,3 -3,3 z m 2.6,2.5 c 1,-0.5 1.9,-1.2 2.5,-2.1 l 32.9,12.1 h 0.2 v 0.6 c 0,0.3 0,0.7 0.1,1 l -17.8,10 c -2.9,-5.2 -8.4,-8.5 -14.4,-8.5 l -3,-13.2 z m 5.7,42.8 c -9.2,1.5 -17.1,-6.4 -15.6,-15.6 0.9,-5.6 5.4,-10.1 11,-11 9.2,-1.5 17.1,6.4 15.6,15.6 -0.9,5.6 -5.4,10.1 -11,11 z m 20.2,17.7 c -1.7,0 -3,-1.3 -3,-3 0,-1.7 1.3,-3 3,-3 1.7,0 3,1.3 3,3 0,1.7 -1.3,3 -3,3 z m 4.4,-7.6 c -0.1,0.1 -0.2,0.1 -0.3,0.2 -1.9,-1.8 -4.8,-2.2 -7.1,-0.8 l -8.3,-10.7 c 2.3,-2.2 4,-5 4.8,-8.1 l 29,4.6 c 0,1.6 0.4,3.1 1.1,4.5 z m 18.5,-17.8 -28.9,-4.6 v -1 c 0,-1.8 -0.3,-3.6 -0.9,-5.3 l 17.7,-10 c 1.5,2 4.2,2.8 6.6,1.9 0,0.1 0.1,0.2 0.1,0.2 l 9,13.4 c -1.7,1.4 -3,3.3 -3.6,5.4 z m 17.5,4.1 c -0.5,3.2 -3.1,5.7 -6.2,6.2 -5.1,0.8 -9.4,-3.5 -8.6,-8.6 0.5,-3.2 3.1,-5.7 6.2,-6.2 5.1,-0.8 9.4,3.5 8.6,8.6 z"
     id="path6231"
     inkscape:connector-curvature="0" /><path
     d="m 35.1,93.20131 c -8.4,0 -16.7,0 -25.1,0 0,-7.4 0,-14.8 0,-22.3 1.2,0 2.4,0 3.6,0 0,4.8 0,9.6 0,14.5 2.4,-1.3 4.8,-2.7 7.2,-4 0,1.4 0,2.7 0,4.1 2.4,-1.3 4.8,-2.7 7.2,-4 0,1.3 0,2.6 0,4 2.4,-1.3 4.8,-2.6 7.2,-4 -0.1,3.9 -0.1,7.8 -0.1,11.7 z"
     id="path6233"
     inkscape:connector-curvature="0" /><g
     id="g6241"
     transform="translate(5,1.9013106)"><path
       d="m 37.9,47.5 c -2.6,-2.5 -5.6,-3.8 -9.2,-3.8 -3.5,0 -6.6,1.3 -9.1,3.8 -0.4,-0.4 -0.8,-0.8 -1.1,-1.1 5.2,-5.5 14.7,-5.9 20.5,0 -0.3,0.3 -0.7,0.7 -1.1,1.1 z"
       id="path6235"
       inkscape:connector-curvature="0" /><path
       d="m 36.2,49.2 c -0.4,0.4 -0.8,0.7 -1.1,1.1 -1.7,-1.7 -3.8,-2.6 -6.3,-2.6 -2.5,0 -4.6,0.9 -6.3,2.7 -0.4,-0.4 -0.7,-0.8 -1.1,-1.1 3.7,-4.1 10.7,-4.4 14.8,-0.1 z"
       id="path6237"
       inkscape:connector-curvature="0" /><path
       d="m 33.4,52 c -0.4,0.4 -0.8,0.7 -1.1,1.1 -2.3,-2 -4.7,-2 -7,0 -0.4,-0.4 -0.7,-0.7 -1.1,-1.1 2.1,-2.4 6.5,-2.8 9.2,0 z"
       id="path6239"
       inkscape:connector-curvature="0" /></g><path
     class="st0"
     d="m 98.7,10.60131 c 0.2,0.1 0.5,0.2 0.7,0.4 0.2,0.2 0.3,0.5 0.3,0.7 0,0.1 0,0.1 0,0.2 0,4.1 0,8.3 0,12.4 0,0.4 -0.1,0.8 -0.4,1 -0.2,0.2 -0.4,0.2 -0.6,0.3 -0.1,0 -0.1,0 -0.2,0 -6.1,0 -12.3,0 -18.4,0 -0.4,0 -0.8,-0.2 -1,-0.5 -0.1,-0.2 -0.2,-0.3 -0.2,-0.5 0,-4.3 0,-8.7 0,-13.1 0.1,-0.2 0.2,-0.3 0.2,-0.5 0.1,-0.2 0.4,-0.4 0.7,-0.5 6.2,0.1 12.5,0.1 18.9,0.1 z m -18.7,1.3 c 0,4.1 0,8.3 0,12.4 6.1,0 12.2,0 18.3,0 0,-4.1 0,-8.3 0,-12.4 -6.1,0 -12.2,0 -18.3,0 z"
     id="path6243"
     inkscape:connector-curvature="0"
     style="stroke:#000000;stroke-miterlimit:10" /><g
     id="g6249"
     transform="translate(5,1.9013106)"><line
       class="st1"
       x1="89.900002"
       y1="28.200001"
       x2="78.099998"
       y2="28.200001"
       id="line6245"
       style="fill:none;stroke:#000000;stroke-width:2;stroke-miterlimit:10" /><path
       d="m 82.2,24.1 c 1.3,0 2.6,0 3.9,0 0,0.1 0,0.1 0,0.2 0,0.6 0,1.2 0,1.8 0,0.7 0.6,1.2 1.3,1.2 0.4,0 0.9,0 1.3,0 0.5,0 0.8,0.5 0.6,1 -0.1,0.2 -0.3,0.3 -0.5,0.3 0,0 -0.1,0 -0.2,0 -3,0 -6,0 -9,0 -0.3,0 -0.5,-0.1 -0.7,-0.4 -0.2,-0.4 0.1,-0.9 0.6,-0.9 0.4,0 0.8,0 1.2,0 0.9,0 1.4,-0.5 1.4,-1.4 0,-0.5 0,-1.1 0,-1.6 0.1,-0.1 0.1,-0.1 0.1,-0.2 z"
       id="path6247"
       inkscape:connector-curvature="0" /></g><circle
     cx="34"
     cy="57.801311"
     r="2.0999999"
     id="circle6251" /><path
     class="st2"
     d="M 27.5,72.90131"
     id="path6255"
     inkscape:connector-curvature="0"
     style="fill:none;stroke:#000000;stroke-miterlimit:10" /><line
     class="st3"
     x1="26.1"
     y1="70.301315"
     x2="26.9"
     y2="70.901314"
     id="line6257"
     style="fill:none" /><line
     class="st3"
     x1="22.4"
     y1="67.401314"
     x2="26.1"
     y2="70.301315"
     id="line6259"
     style="fill:none" /><path
     class="st3"
     d="M 91.7,34.40131"
     id="path6261"
     inkscape:connector-curvature="0"
     style="fill:none" /><line
     class="st3"
     x1="90.300003"
     y1="34.40131"
     x2="91.099998"
     y2="34.40131"
     id="line6263"
     style="fill:none" /><line
     class="st3"
     x1="89.900002"
     y1="34.40131"
     x2="90.300003"
     y2="34.40131"
     id="line6265"
     style="fill:none" /><line
     class="st3"
     x1="88.099998"
     y1="34.40131"
     x2="89.900002"
     y2="34.40131"
     id="line6267"
     style="fill:none" /><line
     class="st3"
     x1="87.300003"
     y1="34.40131"
     x2="88.099998"
     y2="34.40131"
     id="line6269"
     style="fill:none" /></svg>