<svg xmlns="http://www.w3.org/2000/svg" xmlns:xlink="http://www.w3.org/1999/xlink" version="1.1" x="0px" y="0px" viewBox="0 0 100 125" enable-background="new 0 0 100 100" xml:space="preserve"><path d="M50,75.687c-5.562,0-10.087,4.525-10.087,10.089c0,5.562,4.525,10.087,10.087,10.087c5.563,0,10.088-4.525,10.088-10.087  C60.088,80.212,55.563,75.687,50,75.687z"/><path d="M30.028,85.775c0-5.563-4.525-10.089-10.087-10.089S9.854,80.212,9.854,85.775c0,5.562,4.525,10.087,10.087,10.087  S30.028,91.337,30.028,85.775z"/><path d="M90.146,85.775c0-5.563-4.525-10.089-10.087-10.089c-5.563,0-10.088,4.525-10.088,10.089  c0,5.562,4.525,10.087,10.088,10.087C85.621,95.862,90.146,91.337,90.146,85.775z"/><path d="M81.052,66.079H18.948c-7.6,0-13.783,6.183-13.783,13.782v3.449c0,5.605,3.37,10.433,8.186,12.584  c-3.305-2.16-5.497-5.886-5.497-10.119c0-6.666,5.422-12.089,12.087-12.089c6.665,0,12.087,5.423,12.087,12.089  c0,5.186-3.289,9.606-7.885,11.318h21.655c-4.596-1.712-7.885-6.133-7.885-11.318c0-6.666,5.422-12.089,12.087-12.089  s12.088,5.423,12.088,12.089c0,5.186-3.289,9.606-7.886,11.318h21.655c-4.597-1.712-7.886-6.133-7.886-11.318  c0-6.666,5.423-12.089,12.088-12.089s12.087,5.423,12.087,12.089c0,4.231-2.189,7.956-5.491,10.116  c4.813-2.153,8.18-6.978,8.18-12.581v-3.449C94.835,72.262,88.651,66.079,81.052,66.079z"/><path d="M39.492,38.241l7.334,14.77c1.021-0.212,2.08-0.335,3.173-0.335c0.619,0,1.225,0.049,1.823,0.118l-8.234-16.579  c-0.549,0.533-1.181,0.987-1.886,1.337C40.997,37.903,40.255,38.127,39.492,38.241z"/><polygon points="59.777,10.846 60.516,12.028 61.911,4.906 68.972,4.906 68.972,2.906 60.265,2.906 58.56,11.605 "/><path d="M50,54.676c-6.218,0-11.335,4.141-11.881,9.403h23.762C61.335,58.816,56.219,54.676,50,54.676z"/><polygon points="64.313,18.117 62.917,18.988 71.634,21.391 75.519,13.598 73.729,12.706 70.579,19.025 63.697,17.129 "/><path d="M41.954,24.318c1.316,0.718,2.415,1.817,3.114,3.225c0.028,0.057,0.049,0.115,0.075,0.172l16.414-10.237l-2.419-3.877  L41.954,24.318z"/><path d="M38.375,25.396c-0.846,0-1.663,0.193-2.428,0.572c-1.308,0.65-2.285,1.77-2.75,3.154s-0.364,2.867,0.286,4.175  c0.93,1.874,2.809,3.037,4.901,3.037c0.847,0,1.664-0.192,2.428-0.572c1.308-0.649,2.284-1.77,2.75-3.154  c0.465-1.384,0.364-2.867-0.286-4.175C42.347,26.56,40.468,25.396,38.375,25.396z"/><text x="0" y="115" fill="#000000" font-size="5px" font-weight="bold" font-family="'Helvetica Neue', Helvetica, Arial-Unicode, Arial, Sans-serif">Created by Srinivas Agra</text><text x="0" y="120" fill="#000000" font-size="5px" font-weight="bold" font-family="'Helvetica Neue', Helvetica, Arial-Unicode, Arial, Sans-serif">from the Noun Project</text></svg>