<?xml version="1.0" encoding="UTF-8" standalone="no"?>
<svg
   xmlns:dc="http://purl.org/dc/elements/1.1/"
   xmlns:cc="http://creativecommons.org/ns#"
   xmlns:rdf="http://www.w3.org/1999/02/22-rdf-syntax-ns#"
   xmlns:svg="http://www.w3.org/2000/svg"
   xmlns="http://www.w3.org/2000/svg"
   xmlns:sodipodi="http://sodipodi.sourceforge.net/DTD/sodipodi-0.dtd"
   xmlns:inkscape="http://www.inkscape.org/namespaces/inkscape"
   version="1.1"
   x="0px"
   y="0px"
   viewBox="0 0 75.965462 83.967438"
   enable-background="new 0 0 66 66"
   xml:space="preserve"
   id="svg9679"
   sodipodi:docname="noun_Artificial Intelligence_1869984.svg"
   width="75.965462"
   height="83.967438"
   inkscape:version="0.92.1 r15371"><metadata
     id="metadata9685"><rdf:RDF><cc:Work
         rdf:about=""><dc:format>image/svg+xml</dc:format><dc:type
           rdf:resource="http://purl.org/dc/dcmitype/StillImage" /><dc:title></dc:title></cc:Work></rdf:RDF></metadata><defs
     id="defs9683" /><sodipodi:namedview
     pagecolor="#ffffff"
     bordercolor="#666666"
     borderopacity="1"
     objecttolerance="10"
     gridtolerance="10"
     guidetolerance="10"
     inkscape:pageopacity="0"
     inkscape:pageshadow="2"
     inkscape:window-width="1920"
     inkscape:window-height="1017"
     id="namedview9681"
     showgrid="false"
     fit-margin-top="10"
     fit-margin-left="10"
     fit-margin-bottom="10"
     fit-margin-right="10"
     inkscape:zoom="2.8606061"
     inkscape:cx="38.041421"
     inkscape:cy="33.75"
     inkscape:window-x="1912"
     inkscape:window-y="-8"
     inkscape:window-maximized="1"
     inkscape:current-layer="svg9679" /><g
     id="g9673"
     transform="translate(5.0414214,8.9674375)"><g
       id="g9639"><circle
         cx="22.9"
         cy="47.599998"
         r="1.1"
         id="circle9637" /></g><g
       id="g9643"><circle
         cx="36"
         cy="30.1"
         r="1.1"
         id="circle9641" /></g><g
       id="g9647"><circle
         cx="42.099998"
         cy="37.200001"
         r="1.1"
         id="circle9645" /></g><g
       id="g9651"><path
         d="m 57.3,39.5 c 6.1,-10.2 4.3,-22.7 -3.9,-31 l -4.1,4.8 c -0.2,0.2 -0.5,0.4 -0.8,0.4 h -4.7 c -0.4,1.2 -1.6,2.1 -2.9,2.1 -1.7,0 -3.1,-1.4 -3.1,-3.1 0,-1.7 1.4,-3.1 3.1,-3.1 1.3,0 2.5,0.9 2.9,2.1 H 48 L 51.8,7.2 C 46.1,2.3 38.6,0.1 30.8,1.4 24.2,2.6 18.3,6.4 14.4,11.9 h 7.3 c 0.2,0 0.4,0.1 0.5,0.2 l 10.1,6.4 c 0.5,-0.5 1.3,-0.8 2,-0.8 1.7,0 3.1,1.4 3.1,3.1 0,1.7 -1.4,3.1 -3.1,3.1 -1.7,0 -3.1,-1.4 -3.1,-3.1 0,-0.2 0,-0.4 0.1,-0.5 L 21.4,14 h -8.3 c -1,1.7 -1.7,3.4 -2.3,5.2 h 9.3 c 0.4,0 0.7,0.2 0.9,0.5 l 3.8,6.9 c 0.2,0 0.4,-0.1 0.5,-0.1 1.7,0 3.1,1.4 3.1,3.1 0,1.7 -1.4,3.1 -3.1,3.1 -1.7,0 -3.1,-1.4 -3.1,-3.1 0,-0.8 0.3,-1.5 0.8,-2 l -3.5,-6.4 h -9.2 c -0.7,3.2 -0.8,6.6 -0.2,9.9 l -5,9.2 C 5,40.6 4.9,40.8 5,41.1 c 0.1,0.3 0.3,0.5 0.6,0.6 l 6.6,2.6 v 2.4 H 20 c 0.4,-1.2 1.5,-2.1 2.9,-2.1 1.7,0 3.1,1.4 3.1,3.1 0,1.7 -1.4,3.1 -3.1,3.1 -1.3,0 -2.5,-0.9 -2.9,-2.1 h -7.6 v 3 c 0,2.8 2.2,5 5,5 H 23 V 64 c 0,0.5 0.4,1 1,1 h 4.9 V 47.4 c 0,-0.2 0.1,-0.4 0.2,-0.6 L 35,38.9 v -6 c -1.2,-0.4 -2.1,-1.6 -2.1,-2.9 0,-1.7 1.4,-3.1 3.1,-3.1 1.7,0 3.1,1.4 3.1,3.1 0,1.3 -0.9,2.5 -2.1,2.9 v 6.3 c 0,0.2 -0.1,0.4 -0.2,0.6 l -5.9,7.9 V 65 h 5.9 V 52.7 c 0,-0.3 0.1,-0.5 0.3,-0.7 l 4,-3.9 V 40.2 C 39.9,39.8 39,38.6 39,37.3 c 0,-1.7 1.4,-3.1 3.1,-3.1 1.7,0 3.1,1.4 3.1,3.1 0,1.3 -0.9,2.5 -2.1,2.9 v 8.3 c 0,0.3 -0.1,0.5 -0.3,0.7 l -4,3.9 V 65 h 8.8 c 0.5,0 1,-0.5 1,-1 V 48.2 C 52.2,46 54,43.8 56.1,41.1 l -10,-8.2 C 45.9,32.7 45.7,32.4 45.7,32.1 V 22 c -1.2,-0.4 -2.1,-1.6 -2.1,-2.9 0,-1.7 1.4,-3.1 3.1,-3.1 1.7,0 3.1,1.4 3.1,3.1 0,1.3 -0.9,2.5 -2.1,2.9 v 9.6 l 2.6,2.1 3,-2.2 v -4 c -1.2,-0.4 -2.1,-1.6 -2.1,-2.9 0,-1.7 1.4,-3.1 3.1,-3.1 1.7,0 3.1,1.4 3.1,3.1 0,1.3 -0.9,2.5 -2.1,2.9 V 32 c 0,0.3 -0.2,0.6 -0.4,0.8 l -3,2.2 z"
         id="path9649"
         inkscape:connector-curvature="0" /></g><g
       id="g9655"><path
         d="m 26.5,29.5 c 0,-0.6 -0.5,-1.1 -1.1,-1.1 -0.2,0 -0.3,0 -0.5,0.1 0,0 0,0 -0.1,0 0,0 0,0 0,0 -0.3,0.2 -0.5,0.5 -0.5,0.9 0,0.6 0.5,1.1 1.1,1.1 0.6,0 1.1,-0.4 1.1,-1 z"
         id="path9653"
         inkscape:connector-curvature="0" /></g><g
       id="g9659"><circle
         cx="46.799999"
         cy="19.1"
         r="1.1"
         id="circle9657" /></g><g
       id="g9663"><path
         d="m 54.3,25.8 c 0.6,0 1.1,-0.5 1.1,-1.1 0,-0.6 -0.5,-1.1 -1.1,-1.1 -0.6,0 -1.1,0.5 -1.1,1.1 0,0.6 0.5,1.1 1.1,1.1 0,0 0,0 0,0 0,0 0,0 0,0 z"
         id="path9661"
         inkscape:connector-curvature="0" /></g><g
       id="g9667"><circle
         cx="40.900002"
         cy="12.7"
         r="1.1"
         id="circle9665" /></g><g
       id="g9671"><path
         d="m 35.6,20.7 c 0,-0.6 -0.5,-1.1 -1.1,-1.1 -0.7,0 -1.1,0.6 -1.1,1.1 0,0.6 0.5,1.1 1.1,1.1 0.6,0 1.1,-0.5 1.1,-1.1 z"
         id="path9669"
         inkscape:connector-curvature="0" /></g></g></svg>