<?xml version="1.0" encoding="UTF-8" standalone="no"?>
<svg
   xmlns:dc="http://purl.org/dc/elements/1.1/"
   xmlns:cc="http://creativecommons.org/ns#"
   xmlns:rdf="http://www.w3.org/1999/02/22-rdf-syntax-ns#"
   xmlns:svg="http://www.w3.org/2000/svg"
   xmlns="http://www.w3.org/2000/svg"
   xmlns:sodipodi="http://sodipodi.sourceforge.net/DTD/sodipodi-0.dtd"
   xmlns:inkscape="http://www.inkscape.org/namespaces/inkscape"
   version="1.1"
   x="0px"
   y="0px"
   viewBox="0 0 82 82"
   xml:space="preserve"
   id="svg10240"
   sodipodi:docname="noun_Art_2041288.svg"
   width="82"
   height="82"
   inkscape:version="0.92.1 r15371"><metadata
     id="metadata10246"><rdf:RDF><cc:Work
         rdf:about=""><dc:format>image/svg+xml</dc:format><dc:type
           rdf:resource="http://purl.org/dc/dcmitype/StillImage" /><dc:title></dc:title></cc:Work></rdf:RDF></metadata><defs
     id="defs10244" /><sodipodi:namedview
     pagecolor="#ffffff"
     bordercolor="#666666"
     borderopacity="1"
     objecttolerance="10"
     gridtolerance="10"
     guidetolerance="10"
     inkscape:pageopacity="0"
     inkscape:pageshadow="2"
     inkscape:window-width="1920"
     inkscape:window-height="1017"
     id="namedview10242"
     showgrid="false"
     fit-margin-top="10"
     fit-margin-left="10"
     fit-margin-bottom="10"
     fit-margin-right="10"
     inkscape:zoom="2.95"
     inkscape:cx="41"
     inkscape:cy="33"
     inkscape:window-x="1912"
     inkscape:window-y="-8"
     inkscape:window-maximized="1"
     inkscape:current-layer="svg10240" /><g
     id="g10234"
     transform="translate(9,9)"><path
       d="M 62,7 H 36 V 5 C 36,2.794 34.206,1 32,1 29.794,1 28,2.794 28,5 V 7 H 2 C 1.447,7 1,7.447 1,8 v 36 c 0,0.553 0.447,1 1,1 h 27 v 4.586 L 17.293,61.293 c -0.286,0.286 -0.372,0.716 -0.217,1.09 C 17.23,62.757 17.596,63 18,63 h 6 c 0.266,0 0.52,-0.105 0.707,-0.293 L 29,58.414 V 62 c 0,0.553 0.447,1 1,1 h 4 c 0.553,0 1,-0.447 1,-1 v -3.586 l 4.293,4.293 C 39.48,62.895 39.734,63 40,63 h 6 c 0.404,0 0.77,-0.243 0.924,-0.617 0.155,-0.374 0.069,-0.804 -0.217,-1.09 L 35,49.586 V 45 h 9 v 1 c 0,1.654 1.346,3 3,3 1.654,0 3,-1.346 3,-3 v -1 h 12 c 0.553,0 1,-0.447 1,-1 V 8 C 63,7.447 62.553,7 62,7 Z M 29,55.586 23.586,61 H 20.414 L 29,52.414 Z M 30,5 c 0,-1.103 0.897,-2 2,-2 1.103,0 2,0.897 2,2 V 7 H 30 Z M 5,43 H 3 V 9 H 5 Z M 33,61 H 31 V 49 h 2 z m 0,-14 h -2 v -2 h 2 z M 43.586,61 H 40.414 L 35,55.586 V 52.414 Z M 49,34 c -0.553,0 -1,0.447 -1,1 v 11 c 0,0.552 -0.448,1 -1,1 -0.552,0 -1,-0.448 -1,-1 V 35 c 0,-0.553 -0.447,-1 -1,-1 h -3 c -0.552,0 -1,-0.448 -1,-1 v -3 h 12 v 3 c 0,0.552 -0.448,1 -1,1 z m -8,-6 v -2 h 12 v 2 z m 16,15 h -7 v -7 h 2 c 1.654,0 3,-1.346 3,-3 v -8 c 0,-0.553 -0.447,-1 -1,-1 H 40 c -0.553,0 -1,0.447 -1,1 v 8 c 0,1.654 1.346,3 3,3 h 2 v 7 H 7 V 9 h 38 v 9 c 0,0.552 -0.448,1 -1,1 -0.552,0 -1,-0.448 -1,-1 v -2 c 0,-1.654 -1.346,-3 -3,-3 -1.654,0 -3,1.346 -3,3 v 2 c 0,0.552 -0.448,1 -1,1 -0.552,0 -1,-0.448 -1,-1 v -2 c 0,-1.654 -1.346,-3 -3,-3 -1.654,0 -3,1.346 -3,3 v 8 c 0,0.552 -0.448,1 -1,1 -0.552,0 -1,-0.448 -1,-1 v -2 c 0,-1.654 -1.346,-3 -3,-3 -1.654,0 -3,1.346 -3,3 v 6 c 0,0.552 -0.448,1 -1,1 -0.552,0 -1,-0.448 -1,-1 v -6 c 0,-1.654 -1.346,-3 -3,-3 -1.654,0 -3,1.346 -3,3 v 2 c 0,0.552 -0.448,1 -1,1 -0.552,0 -1,-0.448 -1,-1 V 13 H 9 v 11 c 0,1.654 1.346,3 3,3 1.654,0 3,-1.346 3,-3 v -2 c 0,-0.552 0.448,-1 1,-1 0.552,0 1,0.448 1,1 v 6 c 0,1.654 1.346,3 3,3 1.654,0 3,-1.346 3,-3 v -6 c 0,-0.552 0.448,-1 1,-1 0.552,0 1,0.448 1,1 v 2 c 0,1.654 1.346,3 3,3 1.654,0 3,-1.346 3,-3 v -8 c 0,-0.552 0.448,-1 1,-1 0.552,0 1,0.448 1,1 v 2 c 0,1.654 1.346,3 3,3 1.654,0 3,-1.346 3,-3 v -2 c 0,-0.552 0.448,-1 1,-1 0.552,0 1,0.448 1,1 v 2 c 0,1.654 1.346,3 3,3 1.654,0 3,-1.346 3,-3 V 9 h 10 z m 4,0 H 59 V 9 h 2 z"
       id="path10230"
       inkscape:connector-curvature="0" /><path
       d="m 20,33 c -1.654,0 -3,1.346 -3,3 v 2 c 0,1.654 1.346,3 3,3 1.654,0 3,-1.346 3,-3 v -2 c 0,-1.654 -1.346,-3 -3,-3 z m 1,5 c 0,0.552 -0.448,1 -1,1 -0.552,0 -1,-0.448 -1,-1 v -2 c 0,-0.552 0.448,-1 1,-1 0.552,0 1,0.448 1,1 z"
       id="path10232"
       inkscape:connector-curvature="0" /></g></svg>