<?xml version="1.0" encoding="UTF-8" standalone="no"?>
<svg
   xmlns:dc="http://purl.org/dc/elements/1.1/"
   xmlns:cc="http://creativecommons.org/ns#"
   xmlns:rdf="http://www.w3.org/1999/02/22-rdf-syntax-ns#"
   xmlns:svg="http://www.w3.org/2000/svg"
   xmlns="http://www.w3.org/2000/svg"
   xmlns:sodipodi="http://sodipodi.sourceforge.net/DTD/sodipodi-0.dtd"
   xmlns:inkscape="http://www.inkscape.org/namespaces/inkscape"
   version="1.1"
   x="0px"
   y="0px"
   viewBox="0 0 91.197997 110"
   enable-background="new 0 0 79.109 100"
   xml:space="preserve"
   id="svg7962"
   sodipodi:docname="noun_Cosplay_28553.svg"
   width="91.197998"
   height="110"
   inkscape:version="0.92.1 r15371"><metadata
     id="metadata7968"><rdf:RDF><cc:Work
         rdf:about=""><dc:format>image/svg+xml</dc:format><dc:type
           rdf:resource="http://purl.org/dc/dcmitype/StillImage" /><dc:title></dc:title></cc:Work></rdf:RDF></metadata><defs
     id="defs7966" /><sodipodi:namedview
     pagecolor="#ffffff"
     bordercolor="#666666"
     borderopacity="1"
     objecttolerance="10"
     gridtolerance="10"
     guidetolerance="10"
     inkscape:pageopacity="0"
     inkscape:pageshadow="2"
     inkscape:window-width="1920"
     inkscape:window-height="1017"
     id="namedview7964"
     showgrid="false"
     fit-margin-top="10"
     fit-margin-left="10"
     fit-margin-bottom="10"
     fit-margin-right="10"
     inkscape:zoom="1.888"
     inkscape:cx="-42.589059"
     inkscape:cy="42.5"
     inkscape:window-x="1912"
     inkscape:window-y="-8"
     inkscape:window-maximized="1"
     inkscape:current-layer="svg7962" /><path
     d="m 45.257,25.517 c 2.695,0 5.049,-1.431 6.365,-3.569 -1.946,-2.476 -4.429,-4.524 -6.506,-4.524 -2.034,0 -4.457,1.915 -6.384,4.261 1.28,2.285 3.721,3.832 6.525,3.832 z"
     id="path7942"
     inkscape:connector-curvature="0" /><path
     d="m 62.791,68.282 c 0.905,-0.738 1.421,-1.484 1.198,-1.828 -0.217,-0.335 -1.068,-0.185 -2.076,0.309 l -0.849,-1.307 c 0.263,-1.923 -0.439,-3.731 -0.477,-3.821 0.028,-0.478 0.02,-0.99 -0.036,-1.525 L 58.534,41.457 c 0,0 -4.22,-2.236 -4.959,-2.79 -0.086,-0.064 -6.968,-4.738 -8.367,-5.74 -1.27,1.068 -4.5,3.692 -8.088,5.904 -2.21,1.324 -4.998,2.604 -4.998,2.604 L 30.75,60.081 c -0.041,0.532 -0.033,1.04 0.008,1.513 -0.048,0.091 -0.098,0.171 -0.144,0.271 -0.574,1.243 -0.835,2.816 -0.614,3.793 l -0.717,1.104 c -1.008,-0.494 -1.858,-0.643 -2.076,-0.309 -0.223,0.344 0.293,1.09 1.198,1.828 L 10,96.531 12.783,96.108 30.041,69.34 c 1.033,0.517 1.913,0.68 2.135,0.339 0.217,-0.335 -0.265,-1.051 -1.126,-1.771 l 1.589,-2.447 c 0.534,-0.572 1.947,-2.998 1.947,-2.998 0.457,-0.704 0.433,-1.531 -0.055,-1.847 -0.081,-0.052 -0.171,-0.082 -0.264,-0.1 0.005,-0.058 2.03,-19.463 2.03,-19.463 L 36.3,41.022 v 18.536 c 0,0.448 0.071,1.353 0.071,1.411 l 3.456,36.774 c 0,1.247 1.011,2.257 2.257,2.257 1.246,0 2.257,-1.011 2.257,-2.257 V 62.089 c 0.279,0.011 1.414,0.011 1.693,0 v 35.643 c 0,1.247 1.011,2.257 2.257,2.257 1.247,0 2.257,-1.011 2.257,-2.257 l 3.315,-36.199 c 0,-0.037 0.212,-1.285 0.212,-1.975 V 39.262 l 2.944,21.232 c 0,0.003 0.001,0.006 0.001,0.009 -0.125,0.012 -0.245,0.045 -0.351,0.114 -0.487,0.316 -0.512,1.143 -0.055,1.847 0,0 1.607,2.724 2.124,3.271 l 1.412,2.174 c -0.861,0.719 -1.344,1.436 -1.127,1.771 0.221,0.341 1.102,0.178 2.135,-0.339 l 17.257,26.768 2.783,0.423 z"
     id="path7944"
     inkscape:connector-curvature="0" /><path
     d="m 34.398,28.617 c 0,-3.918 6.04,-12.128 10.716,-12.128 4.676,0 10.725,8.49 10.725,12.418 0,0 -0.019,0.926 -0.047,1.066 0.561,-0.739 0.888,-1.889 0.888,-3.609 L 54.707,19.033 C 51.884,11.692 50.257,10 45.114,10 c -5.143,0 -7.331,1.131 -9.874,9.033 l -1.692,7.05 c 0.056,1.646 0.374,2.786 0.888,3.563 -0.028,-0.131 -0.038,-1.029 -0.038,-1.029 z"
     id="path7946"
     inkscape:connector-curvature="0" /><path
     d="m 36.605,38.052 c 4.526,-2.787 8.556,-6.312 8.556,-6.312 0,0 4.694,3.404 8.705,5.994 2.319,1.487 3.553,2.225 4.554,2.656 L 57.747,34.2 c -0.009,-0.105 -0.159,-1.524 -0.851,-2.347 -0.711,-1.047 -1.01,-1.141 -1.365,-1.337 0.131,-0.122 0.215,-0.299 0.262,-0.542 -0.131,0.178 -1.01,0.832 -1.58,0.608 -2.064,-0.812 -5.854,-3.656 -9.023,-3.656 -3.161,0 -6.966,2.815 -9.117,3.441 -0.262,0.075 -0.505,0.122 -0.711,0.122 0,0 0,0 -0.009,0 -0.084,-0.047 -0.767,-0.608 -0.916,-0.842 0.056,0.327 0.299,0.711 0.262,0.729 -0.009,0 -0.009,0.009 -0.019,0.009 -0.112,0.075 -0.701,0.421 -1.019,1.001 -0.093,0.169 -0.851,1.29 -0.954,2.394 -0.019,0.103 -0.505,6.611 -0.505,6.611 1.336,-0.562 4.3,-2.264 4.403,-2.339 z"
     id="path7948"
     inkscape:connector-curvature="0" /><path
     d="M 16.169,85.352 27.189,68.44 c -1.236,-1.251 -1.03,-2.084 -0.763,-2.495 0.147,-0.226 0.505,-0.606 1.252,-0.606 0.404,0 0.846,0.111 1.251,0.256 l 0.088,-0.135 c -0.028,-0.245 -0.044,-0.508 -0.031,-0.815 0.041,-1.014 0.813,-3.225 0.828,-3.257 -0.025,-0.446 -0.03,-0.904 0.006,-1.375 l 0.891,-12.111 c -2.363,10.615 -7.526,29.14 -15.435,32.929 -1.87,0.896 -1.163,2.578 0.893,4.521 z"
     id="path7950"
     inkscape:connector-curvature="0" /><path
     d="m 32.262,67.759 c 1.165,1.217 0.959,2.029 0.699,2.43 -0.147,0.226 -0.504,0.605 -1.251,0.605 -0.423,0 -0.888,-0.121 -1.313,-0.279 L 19.249,87.806 c 5.011,3.512 14.963,8.688 19.562,9.127 L 35.583,62.58 c -0.062,0.133 -3.321,5.179 -3.321,5.179 z"
     id="path7952"
     inkscape:connector-curvature="0" /><path
     d="m 59.489,70.794 c -0.746,0 -1.104,-0.379 -1.251,-0.605 -0.26,-0.401 -0.467,-1.213 0.699,-2.43 L 55.829,62.973 C 55.127,61.892 55.219,60.621 56,59.965 l -0.991,-7.15 v 6.743 c 0,0.558 -0.217,2.073 -0.217,2.073 l -3.277,35.78 c 7.007,0.018 15.572,-5.947 20.432,-9.608 L 60.802,70.515 c -0.425,0.158 -0.889,0.279 -1.313,0.279 z"
     id="path7954"
     inkscape:connector-curvature="0" /><path
     d="m 61.523,61.45 c 0.019,0.048 0.74,3.018 0.521,3.797 l 0.226,0.348 c 0.406,-0.146 0.847,-0.256 1.251,-0.256 0.747,0 1.105,0.379 1.252,0.606 0.267,0.411 0.473,1.245 -0.763,2.495 l 10.987,16.861 c 2.868,-2.622 4.218,-4.924 1.994,-5.873 C 68.049,75.617 63.02,61.235 60.512,51.038 l 0.97,8.973 c 0.05,0.478 0.057,0.962 0.041,1.439 z"
     id="path7956"
     inkscape:connector-curvature="0" /></svg>