<?xml version="1.0" encoding="UTF-8" standalone="no"?>
<svg
   xmlns:dc="http://purl.org/dc/elements/1.1/"
   xmlns:cc="http://creativecommons.org/ns#"
   xmlns:rdf="http://www.w3.org/1999/02/22-rdf-syntax-ns#"
   xmlns:svg="http://www.w3.org/2000/svg"
   xmlns="http://www.w3.org/2000/svg"
   xmlns:sodipodi="http://sodipodi.sourceforge.net/DTD/sodipodi-0.dtd"
   xmlns:inkscape="http://www.inkscape.org/namespaces/inkscape"
   version="1.1"
   x="0px"
   y="0px"
   viewBox="0 0 110.104 110.104"
   enable-background="new 0 0 100 100"
   xml:space="preserve"
   id="svg7391"
   sodipodi:docname="noun_Electronics_1567417.svg"
   width="110.104"
   height="110.104"
   inkscape:version="0.92.1 r15371"><metadata
     id="metadata7397"><rdf:RDF><cc:Work
         rdf:about=""><dc:format>image/svg+xml</dc:format><dc:type
           rdf:resource="http://purl.org/dc/dcmitype/StillImage" /><dc:title></dc:title></cc:Work></rdf:RDF></metadata><defs
     id="defs7395" /><sodipodi:namedview
     pagecolor="#ffffff"
     bordercolor="#666666"
     borderopacity="1"
     objecttolerance="10"
     gridtolerance="10"
     guidetolerance="10"
     inkscape:pageopacity="0"
     inkscape:pageshadow="2"
     inkscape:window-width="1920"
     inkscape:window-height="1017"
     id="namedview7393"
     showgrid="false"
     fit-margin-top="10"
     fit-margin-left="10"
     fit-margin-bottom="10"
     fit-margin-right="10"
     inkscape:zoom="1.888"
     inkscape:cx="55.05"
     inkscape:cy="42.554"
     inkscape:window-x="1912"
     inkscape:window-y="-8"
     inkscape:window-maximized="1"
     inkscape:current-layer="svg7391" /><path
     d="m 91.63,39.59 c 0.41,1.28 1.61,2.21 3.02,2.21 h 2.271 c 1.75,0 3.18,-1.43 3.18,-3.18 0,-1.76 -1.43,-3.19 -3.18,-3.19 H 94.65 c -1.409,0 -2.609,0.93 -3.02,2.21 h -6.35 v -6.27 h 6.35 c 0.41,1.28 1.61,2.21 3.02,2.21 h 2.271 c 1.75,0 3.18,-1.43 3.18,-3.18 0,-1.76 -1.43,-3.18 -3.18,-3.18 H 94.65 c -1.409,0 -2.609,0.93 -3.02,2.21 h -6.35 v -3.64 c 0,-0.53 -0.44,-0.97 -0.971,-0.97 h -3.64 v -6.34 c 1.28,-0.42 2.21,-1.62 2.21,-3.03 v -2.27 c 0,-1.75 -1.42,-3.18 -3.18,-3.18 -1.75,0 -3.181,1.43 -3.181,3.18 v 2.27 c 0,1.41 0.931,2.61 2.21,3.03 v 6.34 h -6.27 v -6.34 c 1.28,-0.42 2.2,-1.62 2.2,-3.03 v -2.27 c 0,-1.75 -1.42,-3.18 -3.181,-3.18 -1.75,0 -3.18,1.43 -3.18,3.18 v 2.27 c 0,1.41 0.93,2.61 2.21,3.03 v 6.34 h -6.27 v -6.34 c 1.279,-0.42 2.21,-1.62 2.21,-3.03 v -2.27 c 0,-1.75 -1.431,-3.18 -3.181,-3.18 -1.76,0 -3.189,1.43 -3.189,3.18 v 2.27 c 0,1.41 0.93,2.61 2.22,3.03 v 6.34 h -6.28 v -6.34 c 1.28,-0.42 2.21,-1.62 2.21,-3.03 v -2.27 c 0,-1.75 -1.43,-3.18 -3.18,-3.18 -1.75,0 -3.18,1.43 -3.18,3.18 v 2.27 c 0,1.41 0.93,2.61 2.21,3.03 v 6.34 h -6.27 v -6.34 c 1.28,-0.42 2.21,-1.62 2.21,-3.03 v -2.27 c 0,-1.75 -1.43,-3.18 -3.19,-3.18 -1.75,0 -3.18,1.43 -3.18,3.18 v 2.27 c 0,1.41 0.93,2.61 2.21,3.03 v 6.34 h -6.27 v -6.34 c 1.28,-0.42 2.21,-1.62 2.21,-3.03 v -2.27 c 0,-1.75 -1.43,-3.18 -3.18,-3.18 -1.76,0 -3.19,1.43 -3.19,3.18 v 2.27 c 0,1.41 0.93,2.61 2.21,3.03 v 6.34 h -6.27 v -6.34 c 1.28,-0.42 2.21,-1.62 2.21,-3.03 v -2.27 c 0,-1.75 -1.43,-3.18 -3.18,-3.18 -1.75,0 -3.18,1.43 -3.18,3.18 v 2.27 c 0,1.41 0.93,2.61 2.21,3.03 v 6.34 h -3.64 c -0.53,0 -0.97,0.44 -0.97,0.97 v 3.64 h -6.35 c -0.41,-1.28 -1.61,-2.21 -3.02,-2.21 H 13.18 c -1.75,0 -3.18,1.43 -3.18,3.18 0,1.75 1.43,3.18 3.18,3.18 h 2.27 c 1.41,0 2.61,-0.93 3.02,-2.21 h 6.35 v 6.27 h -6.35 c -0.41,-1.28 -1.61,-2.21 -3.02,-2.21 h -2.27 c -1.75,0 -3.18,1.43 -3.18,3.19 0,1.75 1.43,3.18 3.18,3.18 h 2.27 c 1.41,0 2.61,-0.93 3.02,-2.21 h 6.35 v 6.27 h -6.35 c -0.41,-1.28 -1.61,-2.21 -3.02,-2.21 h -2.27 c -1.75,0 -3.18,1.43 -3.18,3.18 0,1.76 1.43,3.18 3.18,3.18 h 2.27 c 1.41,0 2.61,-0.92 3.02,-2.2 h 6.35 v 6.27 H 18.47 C 18.06,52.8 16.86,51.87 15.45,51.87 h -2.27 c -1.75,0 -3.18,1.43 -3.18,3.18 0,1.75 1.43,3.18 3.18,3.18 h 2.27 c 1.41,0 2.61,-0.93 3.02,-2.21 h 6.35 v 6.28 h -6.35 c -0.41,-1.29 -1.61,-2.21 -3.02,-2.21 h -2.27 c -1.75,0 -3.18,1.42 -3.18,3.18 0,1.75 1.43,3.181 3.18,3.181 h 2.27 c 1.41,0 2.61,-0.931 3.02,-2.21 h 6.35 v 6.27 h -6.35 c -0.41,-1.28 -1.61,-2.21 -3.02,-2.21 h -2.27 c -1.75,0 -3.18,1.43 -3.18,3.18 0,1.761 1.43,3.19 3.18,3.19 h 2.27 c 1.41,0 2.61,-0.93 3.02,-2.21 h 6.35 v 6.27 h -6.35 c -0.41,-1.279 -1.61,-2.21 -3.02,-2.21 h -2.27 c -1.75,0 -3.18,1.42 -3.18,3.181 0,1.75 1.43,3.18 3.18,3.18 h 2.27 c 1.41,0 2.61,-0.93 3.02,-2.21 h 6.35 v 3.64 c 0,0.53 0.44,0.971 0.97,0.971 h 3.64 v 6.35 c -1.28,0.41 -2.21,1.61 -2.21,3.02 v 2.271 c 0,1.75 1.43,3.18 3.18,3.18 1.75,0 3.18,-1.43 3.18,-3.18 V 94.65 c 0,-1.409 -0.93,-2.609 -2.21,-3.02 v -6.35 h 6.27 v 6.35 c -1.28,0.41 -2.21,1.61 -2.21,3.02 v 2.271 c 0,1.75 1.43,3.18 3.19,3.18 1.75,0 3.18,-1.43 3.18,-3.18 V 94.65 c 0,-1.409 -0.93,-2.609 -2.21,-3.02 v -6.35 h 6.27 v 6.35 c -1.28,0.41 -2.21,1.61 -2.21,3.02 v 2.271 c 0,1.75 1.43,3.18 3.18,3.18 1.76,0 3.19,-1.43 3.19,-3.18 V 94.65 c 0,-1.409 -0.93,-2.609 -2.21,-3.02 v -6.35 h 6.27 v 6.35 c -1.28,0.41 -2.21,1.61 -2.21,3.02 v 2.271 c 0,1.75 1.43,3.18 3.18,3.18 1.76,0 3.18,-1.43 3.18,-3.18 V 94.65 c 0,-1.409 -0.93,-2.609 -2.21,-3.02 v -6.35 h 6.28 v 6.35 c -1.29,0.41 -2.22,1.61 -2.22,3.02 v 2.271 c 0,1.75 1.43,3.18 3.189,3.18 1.75,0 3.181,-1.43 3.181,-3.18 V 94.65 c 0,-1.409 -0.931,-2.609 -2.21,-3.02 v -6.35 h 6.27 v 6.35 c -1.28,0.41 -2.21,1.61 -2.21,3.02 v 2.271 c 0,1.75 1.43,3.18 3.18,3.18 1.761,0 3.181,-1.43 3.181,-3.18 V 94.65 c 0,-1.409 -0.92,-2.609 -2.2,-3.02 v -6.35 h 6.27 v 6.35 c -1.279,0.41 -2.21,1.61 -2.21,3.02 v 2.271 c 0,1.75 1.431,3.18 3.181,3.18 1.76,0 3.18,-1.43 3.18,-3.18 V 94.65 c 0,-1.409 -0.93,-2.609 -2.21,-3.02 v -6.35 h 3.64 c 0.53,0 0.971,-0.44 0.971,-0.971 v -3.64 h 6.35 c 0.41,1.28 1.61,2.21 3.02,2.21 h 2.271 c 1.75,0 3.18,-1.43 3.18,-3.18 0,-1.761 -1.43,-3.181 -3.18,-3.181 H 94.65 c -1.409,0 -2.609,0.931 -3.02,2.21 h -6.35 v -6.27 h 6.35 c 0.41,1.28 1.61,2.21 3.02,2.21 h 2.271 c 1.75,0 3.18,-1.43 3.18,-3.19 0,-1.75 -1.43,-3.18 -3.18,-3.18 H 94.65 c -1.409,0 -2.609,0.93 -3.02,2.21 h -6.35 v -6.27 h 6.35 c 0.41,1.279 1.61,2.21 3.02,2.21 h 2.271 c 1.75,0 3.18,-1.431 3.18,-3.181 0,-1.76 -1.43,-3.18 -3.18,-3.18 H 94.65 c -1.409,0 -2.609,0.92 -3.02,2.21 h -6.35 v -6.28 h 6.35 c 0.41,1.28 1.61,2.21 3.02,2.21 h 2.271 c 1.75,0 3.18,-1.43 3.18,-3.18 0,-1.75 -1.43,-3.18 -3.18,-3.18 H 94.65 c -1.409,0 -2.609,0.93 -3.02,2.21 h -6.35 v -6.27 h 6.35 c 0.41,1.28 1.61,2.2 3.02,2.2 h 2.271 c 1.75,0 3.18,-1.42 3.18,-3.18 0,-1.75 -1.43,-3.18 -3.18,-3.18 H 94.65 c -1.409,0 -2.609,0.93 -3.02,2.21 h -6.35 v -6.27 h 6.35 z M 70.49,70.48 H 39.62 V 39.61 h 23.62 l 7.25,7.25 z"
     id="path7385"
     inkscape:connector-curvature="0" /></svg>