<?xml version="1.0" encoding="UTF-8" standalone="no"?>
<svg
   xmlns:dc="http://purl.org/dc/elements/1.1/"
   xmlns:cc="http://creativecommons.org/ns#"
   xmlns:rdf="http://www.w3.org/1999/02/22-rdf-syntax-ns#"
   xmlns:svg="http://www.w3.org/2000/svg"
   xmlns="http://www.w3.org/2000/svg"
   width="891px"
   height="630px"
   viewBox="0 0 1052.3622 744.09448"

   id="svg4784"
   version="1.1">
  <defs
     id="defs4786" />
  <metadata
     id="metadata4789">
    <rdf:RDF>
      <cc:Work
         rdf:about="">
        <dc:format>image/svg+xml</dc:format>
        <dc:type
           rdf:resource="http://purl.org/dc/dcmitype/StillImage" />
        <dc:title></dc:title>
      </cc:Work>
    </rdf:RDF>
  </metadata>
  <g
     transform="translate(0,-308.26772)"
     id="g5412">
    <g
       transform="matrix(1.2806062,0,0,1.2806062,-198.89693,-125.17623)"
       id="g6446">
      <rect
         y="545.3045"
         x="323.61105"
         height="136.61707"
         width="466.27997"
         id="rect3467"
         style="opacity:1;fill:#ffffff;fill-opacity:1;stroke:none;stroke-width:3;stroke-linecap:square;stroke-linejoin:bevel;stroke-miterlimit:10;stroke-dasharray:none;stroke-dashoffset:0;stroke-opacity:1" />
      <g
         id="text6413"
         style="font-style:normal;font-variant:normal;font-weight:bold;font-stretch:normal;font-size:74.33781433px;line-height:125%;font-family:Roboto;-inkscape-font-specification:'Roboto, Bold';text-align:start;letter-spacing:0px;word-spacing:0px;writing-mode:lr-tb;text-anchor:start;fill:#28ace3;fill-opacity:1;stroke:none;stroke-width:1px;stroke-linecap:butt;stroke-linejoin:miter;stroke-opacity:1">
        <path
           id="path6201"
           style="font-style:normal;font-variant:normal;font-weight:bold;font-stretch:normal;font-size:51.10725021px;line-height:125%;font-family:Roboto;-inkscape-font-specification:'Roboto, Bold';text-align:start;writing-mode:lr-tb;text-anchor:start;fill:#28ace3;fill-opacity:1"
           d="m 471.50049,557.70803 0,6.63796 4.61663,0 0,5.2904 -4.61663,0 0,13.47554 q 0,1.49728 0.57396,2.14611 0.57396,0.64882 2.19602,0.64882 1.19782,0 2.12115,-0.17469 l 0,5.46509 q -2.12115,0.64882 -4.36708,0.64882 -7.58623,0 -7.73596,-7.6611 l 0,-14.54859 -3.94284,0 0,-5.2904 3.94284,0 0,-6.63796 7.21191,0 z" />
        <path
           id="path6203"
           style="font-style:normal;font-variant:normal;font-weight:bold;font-stretch:normal;font-size:51.10725021px;line-height:125%;font-family:Roboto;-inkscape-font-specification:'Roboto, Bold';text-align:start;writing-mode:lr-tb;text-anchor:start;fill:#28ace3;fill-opacity:1"
           d="m 487.17205,567.29064 q 2.8698,-3.44375 7.21192,-3.44375 8.78406,0 8.90883,10.20648 l 0,17.29361 -7.21191,0 0,-17.09397 q 0,-2.32079 -0.99819,-3.4188 -0.99819,-1.12296 -3.31898,-1.12296 -3.16925,0 -4.59167,2.44556 l 0,19.19017 -7.21191,0 0,-38.33043 7.21191,0 0,14.27409 z" />
        <path
           id="path6205"
           style="font-style:normal;font-variant:normal;font-weight:bold;font-stretch:normal;font-size:51.10725021px;line-height:125%;font-family:Roboto;-inkscape-font-specification:'Roboto, Bold';text-align:start;writing-mode:lr-tb;text-anchor:start;fill:#28ace3;fill-opacity:1"
           d="m 521.21028,591.84608 q -5.93922,0 -9.68243,-3.64339 -3.71825,-3.64339 -3.71825,-9.70738 l 0,-0.69873 q 0,-4.06762 1.57215,-7.26182 1.57215,-3.21916 4.44194,-4.94104 2.89474,-1.74683 6.58804,-1.74683 5.53995,0 8.7092,3.49366 3.1942,3.49366 3.1942,9.90702 l 0,2.94466 -17.1938,0 q 0.34937,2.6452 2.0962,4.2423 1.77178,1.5971 4.46689,1.5971 4.16744,0 6.51318,-3.01952 l 3.54357,3.9678 q -1.62206,2.29583 -4.39203,3.59348 -2.76997,1.27269 -6.13886,1.27269 z m -0.8235,-22.15979 q -2.14611,0 -3.49366,1.44738 -1.3226,1.44737 -1.69692,4.14248 l 10.03179,0 0,-0.57396 q -0.0499,-2.39565 -1.29764,-3.6933 -1.24774,-1.3226 -3.54357,-1.3226 z" />
      </g>
      <g
         id="flowRoot7073"
         style="font-style:normal;font-variant:normal;font-weight:600;font-stretch:normal;font-size:39.99965668px;line-height:125%;font-family:FreeSans;-inkscape-font-specification:'FreeSans, Semi-Bold';text-align:start;letter-spacing:0px;word-spacing:0px;writing-mode:lr-tb;text-anchor:start;fill:#ed1c24;fill-opacity:1;stroke:none;stroke-width:1px;stroke-linecap:butt;stroke-linejoin:miter;stroke-opacity:1"
         transform="matrix(2.3347153,0,0,2.3347153,131.47784,358.44399)">
        <path
           id="path6188"
           style="font-style:normal;font-variant:normal;font-weight:bold;font-stretch:normal;font-size:39.99965668px;line-height:125%;font-family:Roboto;-inkscape-font-specification:'Roboto, Bold';text-align:start;letter-spacing:-0.0140015px;word-spacing:-0.0140015px;writing-mode:lr-tb;text-anchor:start;fill:#ed1c24;fill-opacity:1"
           d="m 148.91788,101.02855 7.30463,20.62482 7.26556,-20.62482 7.69525,0 0,28.43726 -5.87886,0 0,-7.77337 0.58593,-13.41786 -7.67571,21.19123 -4.02341,0 -7.65618,-21.1717 0.58593,13.39833 0,7.77337 -5.85932,0 0,-28.43726 7.65618,0 z" />
        <path
           id="path6190"
           style="font-style:normal;font-variant:normal;font-weight:bold;font-stretch:normal;font-size:39.99965668px;line-height:125%;font-family:Roboto;-inkscape-font-specification:'Roboto, Bold';text-align:start;letter-spacing:-0.0140015px;word-spacing:-0.0140015px;writing-mode:lr-tb;text-anchor:start;fill:#ed1c24;fill-opacity:1"
           d="m 188.20042,129.46581 q -0.39062,-0.76172 -0.5664,-1.89452 -2.05077,2.28514 -5.33199,2.28514 -3.10544,0 -5.1562,-1.79686 -2.03124,-1.79686 -2.03124,-4.53121 0,-3.35935 2.48045,-5.15621 2.49998,-1.79686 7.20697,-1.81639 l 2.59763,0 0,-1.21093 q 0,-1.46483 -0.76171,-2.34373 -0.74218,-0.8789 -2.36326,-0.8789 -1.42577,0 -2.24607,0.68359 -0.80078,0.68359 -0.80078,1.87499 l -5.64448,0 q 0,-1.83593 1.1328,-3.39841 1.13281,-1.56249 3.2031,-2.44139 2.07029,-0.89843 4.6484,-0.89843 3.90621,0 6.19135,1.97264 2.30467,1.95311 2.30467,5.50777 l 0,9.16008 q 0.0195,3.00778 0.83983,4.55074 l 0,0.33203 -5.70307,0 z m -4.66793,-3.92575 q 1.24999,0 2.30467,-0.54687 1.05468,-0.5664 1.56248,-1.5039 l 0,-3.63278 -2.10935,0 q -4.23825,0 -4.51168,2.92967 l -0.0195,0.33202 q 0,1.05468 0.74218,1.73827 0.74218,0.68359 2.03123,0.68359 z" />
        <path
           id="path6192"
           style="font-style:normal;font-variant:normal;font-weight:bold;font-stretch:normal;font-size:39.99965668px;line-height:125%;font-family:Roboto;-inkscape-font-specification:'Roboto, Bold';text-align:start;letter-spacing:-0.0140015px;word-spacing:-0.0140015px;writing-mode:lr-tb;text-anchor:start;fill:#ed1c24;fill-opacity:1"
           d="m 205.10033,120.98932 -2.03123,2.03123 0,6.44526 -5.64448,0 0,-29.999746 5.64448,0 0,16.620946 1.09374,-1.40623 5.41011,-6.34761 6.77729,0 -7.63666,8.80852 8.30071,12.32412 -6.48432,0 -5.42964,-8.47649 z" />
        <path
           id="path6194"
           style="font-style:normal;font-variant:normal;font-weight:bold;font-stretch:normal;font-size:39.99965668px;line-height:125%;font-family:Roboto;-inkscape-font-specification:'Roboto, Bold';text-align:start;letter-spacing:-0.0140015px;word-spacing:-0.0140015px;writing-mode:lr-tb;text-anchor:start;fill:#ed1c24;fill-opacity:1"
           d="m 228.15254,129.85643 q -4.6484,0 -7.57806,-2.85154 -2.91013,-2.85154 -2.91013,-7.59759 l 0,-0.54687 q 0,-3.18357 1.23046,-5.68355 1.23045,-2.51951 3.47653,-3.86715 2.2656,-1.36718 5.1562,-1.36718 4.3359,0 6.81635,2.73435 2.49998,2.73436 2.49998,7.75384 l 0,2.30467 -13.45691,0 q 0.27343,2.0703 1.64061,3.32029 1.3867,1.24999 3.49606,1.24999 3.26169,0 5.09761,-2.36327 l 2.77342,3.10545 q -1.26952,1.79686 -3.43747,2.81247 -2.16795,0.99609 -4.80465,0.99609 z m -0.64453,-17.3436 q -1.67967,0 -2.73435,1.1328 -1.03515,1.1328 -1.32811,3.24216 l 7.85149,0 0,-0.44922 q -0.0391,-1.87498 -1.01561,-2.8906 -0.97656,-1.03514 -2.77342,-1.03514 z" />
        <path
           id="path6196"
           style="font-style:normal;font-variant:normal;font-weight:bold;font-stretch:normal;font-size:39.99965668px;line-height:125%;font-family:Roboto;-inkscape-font-specification:'Roboto, Bold';text-align:start;letter-spacing:-0.0140015px;word-spacing:-0.0140015px;writing-mode:lr-tb;text-anchor:start;fill:#ed1c24;fill-opacity:1"
           d="m 251.92739,113.6261 q -1.15233,-0.15625 -2.03123,-0.15625 -3.2031,0 -4.19918,2.16795 l 0,13.82801 -5.64449,0 0,-21.13264 5.33199,0 0.15625,2.51951 q 1.6992,-2.91013 4.70699,-2.91013 0.93749,0 1.7578,0.25391 l -0.0781,5.42964 z" />
        <path
           id="path6198"
           style="font-style:normal;font-variant:normal;font-weight:bold;font-stretch:normal;font-size:39.99965668px;line-height:125%;font-family:Roboto;-inkscape-font-specification:'Roboto, Bold';text-align:start;letter-spacing:-0.0140015px;word-spacing:-0.0140015px;writing-mode:lr-tb;text-anchor:start;fill:#ed1c24;fill-opacity:1"
           d="m 266.09296,123.62601 q 0,-1.03514 -1.03515,-1.62108 -1.01561,-0.60546 -3.28122,-1.07421 -7.539,-1.58201 -7.539,-6.40619 0,-2.81248 2.3242,-4.68746 2.34373,-1.89452 6.11323,-1.89452 4.02341,0 6.42573,1.89452 2.42185,1.89451 2.42185,4.92183 l -5.64448,0 q 0,-1.21093 -0.78124,-1.99217 -0.78125,-0.80077 -2.44139,-0.80077 -1.42577,0 -2.20701,0.64452 -0.78124,0.64453 -0.78124,1.64061 0,0.93749 0.87889,1.52343 0.89843,0.5664 3.00779,0.99608 2.10936,0.41016 3.55466,0.93749 4.47262,1.64062 4.47262,5.68355 0,2.8906 -2.48045,4.68746 -2.48045,1.77733 -6.4062,1.77733 -2.65622,0 -4.72652,-0.93749 -2.05076,-0.95703 -3.22263,-2.59764 -1.17186,-1.66014 -1.17186,-3.57419 l 5.35151,0 q 0.0781,1.5039 1.11328,2.30467 1.03514,0.80078 2.77341,0.80078 1.62108,0 2.44139,-0.60547 0.83983,-0.62499 0.83983,-1.62108 z" />
      </g>
      <g
         id="flowRoot7089"
         style="font-style:normal;font-variant:normal;font-weight:300;font-stretch:normal;font-size:20.62021255px;line-height:125%;font-family:Roboto;-inkscape-font-specification:'Roboto, Light';text-align:start;letter-spacing:0px;word-spacing:0px;writing-mode:lr-tb;text-anchor:start;fill:#000000;fill-opacity:1;stroke:none;stroke-width:1px;stroke-linecap:butt;stroke-linejoin:miter;stroke-opacity:1"
         transform="translate(120.7774,316.79319)">
        <path
           id="path6208"
           style="font-style:normal;font-variant:normal;font-weight:300;font-stretch:normal;font-size:20.62021255px;line-height:125%;font-family:Roboto;-inkscape-font-specification:'Roboto, Light';text-align:start;writing-mode:lr-tb;text-anchor:start"
           d="m 346.93489,358.60925 q 0,-0.8961 -0.72493,-1.43979 -0.71486,-0.5437 -2.16472,-0.84575 -1.44986,-0.31213 -2.25534,-0.7048 -0.79541,-0.40273 -1.18808,-0.97664 -0.3826,-0.5739 -0.3826,-1.38944 0,-1.28877 1.07733,-2.12445 1.07732,-0.84575 2.75876,-0.84575 1.82239,0 2.91985,0.90616 1.10753,0.89609 1.10753,2.34595 l -1.20821,0 q 0,-0.9565 -0.80548,-1.59082 -0.79541,-0.63431 -2.01369,-0.63431 -1.18808,0 -1.91301,0.53363 -0.71486,0.52356 -0.71486,1.36931 0,0.81555 0.59404,1.26863 0.60411,0.44301 2.18485,0.81554 1.59082,0.37254 2.37616,0.79541 0.79541,0.42288 1.17801,1.01692 0.3826,0.59404 0.3826,1.43979 0,1.37938 -1.1176,2.20499 -1.10753,0.82561 -2.89971,0.82561 -1.90294,0 -3.09102,-0.91623 -1.17801,-0.92629 -1.17801,-2.33588 l 1.20821,0 q 0.0705,1.05719 0.88603,1.65123 0.82561,0.58397 2.17479,0.58397 1.25855,0 2.03383,-0.55377 0.77527,-0.55376 0.77527,-1.39951 z" />
        <path
           id="path6210"
           style="font-style:normal;font-variant:normal;font-weight:300;font-stretch:normal;font-size:20.62021255px;line-height:125%;font-family:Roboto;-inkscape-font-specification:'Roboto, Light';text-align:start;writing-mode:lr-tb;text-anchor:start"
           d="m 351.93891,350.484 0.0403,1.77205 q 0.60411,-0.98671 1.51027,-1.48007 0.90616,-0.49335 2.01369,-0.49335 2.57753,0 3.27225,2.11438 0.58397,-1.01692 1.56061,-1.56062 0.97664,-0.55376 2.15465,-0.55376 3.50383,0 3.57431,3.82601 l 0,7.26943 -1.20822,0 0,-7.17881 q -0.0101,-1.45993 -0.63431,-2.16472 -0.61418,-0.70479 -2.01369,-0.70479 -1.29883,0.0201 -2.19493,0.84575 -0.89609,0.81555 -0.99678,1.99356 l 0,7.20901 -1.20821,0 0,-7.26943 q -0.0101,-1.39951 -0.66452,-2.08417 -0.64438,-0.69472 -1.99356,-0.69472 -1.13773,0 -1.95328,0.65445 -0.81554,0.64438 -1.20821,1.92308 l 0,7.47079 -1.20822,0 0,-10.89407 1.15787,0 z" />
        <path
           id="path6212"
           style="font-style:normal;font-variant:normal;font-weight:300;font-stretch:normal;font-size:20.62021255px;line-height:125%;font-family:Roboto;-inkscape-font-specification:'Roboto, Light';text-align:start;writing-mode:lr-tb;text-anchor:start"
           d="m 376.00254,361.37807 q -0.18123,-0.51349 -0.23157,-1.52033 -0.63432,0.82561 -1.62103,1.27869 -0.97664,0.44301 -2.0741,0.44301 -1.57068,0 -2.54732,-0.87595 -0.96657,-0.87596 -0.96657,-2.21506 0,-1.59082 1.31896,-2.51712 1.32904,-0.9263 3.69513,-0.9263 l 2.18486,0 0,-1.23842 q 0,-1.16794 -0.72493,-1.83246 -0.71486,-0.67459 -2.09424,-0.67459 -1.25856,0 -2.08417,0.64438 -0.82562,0.64439 -0.82562,1.55055 l -1.20821,-0.0101 q 0,-1.29883 1.20821,-2.24527 1.20822,-0.9565 2.9702,-0.9565 1.82239,0 2.86951,0.91623 1.05719,0.90616 1.08739,2.53725 l 0,5.15505 q 0,1.58075 0.33226,2.36609 l 0,0.12082 -1.28876,0 z m -3.78574,-0.86588 q 1.20821,0 2.15465,-0.58397 0.9565,-0.58397 1.38945,-1.56062 l 0,-2.39629 -2.15465,0 q -1.80226,0.0201 -2.81917,0.66452 -1.01692,0.63431 -1.01692,1.75191 0,0.91623 0.67459,1.52034 0.68465,0.60411 1.77205,0.60411 z" />
        <path
           id="path6214"
           style="font-style:normal;font-variant:normal;font-weight:300;font-stretch:normal;font-size:20.62021255px;line-height:125%;font-family:Roboto;-inkscape-font-specification:'Roboto, Light';text-align:start;writing-mode:lr-tb;text-anchor:start"
           d="m 385.19505,351.51098 q -0.3826,-0.0705 -0.81555,-0.0705 -1.12766,0 -1.913,0.63431 -0.77528,0.62425 -1.10754,1.8224 l 0,7.48086 -1.19814,0 0,-10.89407 1.17801,0 0.0201,1.73177 q 0.95651,-1.93314 3.07089,-1.93314 0.50342,0 0.7954,0.13089 l -0.0302,1.09746 z" />
        <path
           id="path6216"
           style="font-style:normal;font-variant:normal;font-weight:300;font-stretch:normal;font-size:20.62021255px;line-height:125%;font-family:Roboto;-inkscape-font-specification:'Roboto, Light';text-align:start;writing-mode:lr-tb;text-anchor:start"
           d="m 389.48421,347.69503 0,2.78897 2.25534,0 0,0.98671 -2.25534,0 0,7.25936 q 0,0.90616 0.32219,1.34917 0.33226,0.44302 1.09747,0.44302 0.30205,0 0.97664,-0.10069 l 0.0503,0.98671 q -0.47322,0.17116 -1.28876,0.17116 -1.23843,0 -1.80226,-0.71486 -0.56383,-0.72493 -0.56383,-2.12444 l 0,-7.26943 -2.00363,0 0,-0.98671 2.00363,0 0,-2.78897 1.20821,0 z" />
        <path
           id="path6218"
           style="font-style:normal;font-variant:normal;font-weight:300;font-stretch:normal;font-size:20.62021255px;line-height:125%;font-family:Roboto;-inkscape-font-specification:'Roboto, Light';text-align:start;writing-mode:lr-tb;text-anchor:start"
           d="m 403.31828,360.56253 q 1.25856,0 2.10431,-0.70479 0.85582,-0.71486 0.9263,-1.84253 l 1.15787,0 q -0.0503,0.99678 -0.62424,1.82239 -0.57391,0.81555 -1.53041,1.27869 -0.94644,0.46315 -2.03383,0.46315 -2.14458,0 -3.40314,-1.49013 -1.24849,-1.49013 -1.24849,-4.00725 l 0,-0.36246 q 0,-1.61096 0.56383,-2.84938 0.56384,-1.23842 1.61096,-1.913 1.05719,-0.67459 2.46677,-0.67459 1.79219,0 2.95006,1.06726 1.16794,1.06725 1.24849,2.8091 l -1.15787,0 q -0.0805,-1.2787 -0.9263,-2.06404 -0.83568,-0.78534 -2.11438,-0.78534 -1.63109,0 -2.53725,1.17801 -0.89609,1.17801 -0.89609,3.30246 l 0,0.35239 q 0,2.08418 0.89609,3.25212 0.90616,1.16794 2.54732,1.16794 z" />
        <path
           id="path6220"
           style="font-style:normal;font-variant:normal;font-weight:300;font-stretch:normal;font-size:20.62021255px;line-height:125%;font-family:Roboto;-inkscape-font-specification:'Roboto, Light';text-align:start;writing-mode:lr-tb;text-anchor:start"
           d="m 409.25868,355.76994 q 0,-1.57068 0.60411,-2.82924 0.61417,-1.25856 1.7217,-1.95328 1.1176,-0.70479 2.52719,-0.70479 2.17479,0 3.52396,1.5304 1.34917,1.52034 1.34917,4.03746 l 0,0.25171 q 0,1.58075 -0.61417,2.84938 -0.60411,1.25855 -1.71164,1.94321 -1.10753,0.68465 -2.52719,0.68465 -2.16472,0 -3.52396,-1.52033 -1.34917,-1.53041 -1.34917,-4.04753 l 0,-0.24164 z m 1.20821,0.33226 q 0,1.95328 1.00685,3.21184 1.01691,1.24849 2.65807,1.24849 1.6311,0 2.63794,-1.24849 1.01692,-1.25856 1.01692,-3.31252 l 0,-0.23158 q 0,-1.24849 -0.46315,-2.28554 -0.46315,-1.03705 -1.29883,-1.60089 -0.83569,-0.5739 -1.91301,-0.5739 -1.61096,0 -2.62787,1.26863 -1.01692,1.25856 -1.01692,3.30245 l 0,0.22151 z" />
        <path
           id="path6222"
           style="font-style:normal;font-variant:normal;font-weight:300;font-stretch:normal;font-size:20.62021255px;line-height:125%;font-family:Roboto;-inkscape-font-specification:'Roboto, Light';text-align:start;writing-mode:lr-tb;text-anchor:start"
           d="m 422.57925,350.484 0.0403,1.77205 q 0.6041,-0.98671 1.51027,-1.48007 0.90616,-0.49335 2.01369,-0.49335 2.57753,0 3.27225,2.11438 0.58397,-1.01692 1.56061,-1.56062 0.97664,-0.55376 2.15465,-0.55376 3.50383,0 3.57431,3.82601 l 0,7.26943 -1.20822,0 0,-7.17881 q -0.0101,-1.45993 -0.63431,-2.16472 -0.61418,-0.70479 -2.01369,-0.70479 -1.29884,0.0201 -2.19493,0.84575 -0.89609,0.81555 -0.99678,1.99356 l 0,7.20901 -1.20821,0 0,-7.26943 q -0.0101,-1.39951 -0.66452,-2.08417 -0.64438,-0.69472 -1.99356,-0.69472 -1.13773,0 -1.95328,0.65445 -0.81554,0.64438 -1.20822,1.92308 l 0,7.47079 -1.20821,0 0,-10.89407 1.15787,0 z" />
        <path
           id="path6224"
           style="font-style:normal;font-variant:normal;font-weight:300;font-stretch:normal;font-size:20.62021255px;line-height:125%;font-family:Roboto;-inkscape-font-specification:'Roboto, Light';text-align:start;writing-mode:lr-tb;text-anchor:start"
           d="m 440.86358,350.484 0.0403,1.77205 q 0.60411,-0.98671 1.51027,-1.48007 0.90616,-0.49335 2.01369,-0.49335 2.57753,0 3.27225,2.11438 0.58397,-1.01692 1.56062,-1.56062 0.97664,-0.55376 2.15465,-0.55376 3.50382,0 3.5743,3.82601 l 0,7.26943 -1.20821,0 0,-7.17881 q -0.0101,-1.45993 -0.63432,-2.16472 -0.61417,-0.70479 -2.01369,-0.70479 -1.29883,0.0201 -2.19493,0.84575 -0.89609,0.81555 -0.99677,1.99356 l 0,7.20901 -1.20822,0 0,-7.26943 q -0.0101,-1.39951 -0.66452,-2.08417 -0.64438,-0.69472 -1.99355,-0.69472 -1.13774,0 -1.95328,0.65445 -0.81555,0.64438 -1.20822,1.92308 l 0,7.47079 -1.20822,0 0,-10.89407 1.15788,0 z" />
        <path
           id="path6226"
           style="font-style:normal;font-variant:normal;font-weight:300;font-stretch:normal;font-size:20.62021255px;line-height:125%;font-family:Roboto;-inkscape-font-specification:'Roboto, Light';text-align:start;writing-mode:lr-tb;text-anchor:start"
           d="m 465.0581,359.9987 q -1.0874,1.58074 -3.47362,1.58074 -1.74185,0 -2.64801,-1.00684 -0.90616,-1.01692 -0.9263,-3.0004 l 0,-7.0882 1.19815,0 0,6.93717 q 0,3.11115 2.51712,3.11115 2.6178,0 3.31252,-2.16472 l 0,-7.8836 1.20822,0 0,10.89407 -1.16795,0 -0.0201,-1.37937 z" />
        <path
           id="path6228"
           style="font-style:normal;font-variant:normal;font-weight:300;font-stretch:normal;font-size:20.62021255px;line-height:125%;font-family:Roboto;-inkscape-font-specification:'Roboto, Light';text-align:start;writing-mode:lr-tb;text-anchor:start"
           d="m 470.51521,350.484 0.0403,1.86266 q 0.61418,-1.00684 1.53041,-1.5304 0.91623,-0.53363 2.02376,-0.53363 1.75191,0 2.60773,0.98671 0.85582,0.98671 0.86589,2.96013 l 0,7.1486 -1.19815,0 0,-7.15867 q -0.0101,-1.45993 -0.62424,-2.17479 -0.60411,-0.71486 -1.94322,-0.71486 -1.1176,0 -1.98348,0.70479 -0.85582,0.69473 -1.26863,1.8828 l 0,7.46073 -1.19815,0 0,-10.89407 1.14781,0 z" />
        <path
           id="path6230"
           style="font-style:normal;font-variant:normal;font-weight:300;font-stretch:normal;font-size:20.62021255px;line-height:125%;font-family:Roboto;-inkscape-font-specification:'Roboto, Light';text-align:start;writing-mode:lr-tb;text-anchor:start"
           d="m 482.03353,361.37807 -1.20821,0 0,-10.89407 1.20821,0 0,10.89407 z m -1.41965,-14.0455 q 0,-0.34233 0.22151,-0.5739 0.2215,-0.24165 0.6041,-0.24165 0.3826,0 0.60411,0.24165 0.23158,0.23157 0.23158,0.5739 0,0.34233 -0.23158,0.5739 -0.22151,0.23158 -0.60411,0.23158 -0.3826,0 -0.6041,-0.23158 -0.22151,-0.23157 -0.22151,-0.5739 z" />
        <path
           id="path6232"
           style="font-style:normal;font-variant:normal;font-weight:300;font-stretch:normal;font-size:20.62021255px;line-height:125%;font-family:Roboto;-inkscape-font-specification:'Roboto, Light';text-align:start;writing-mode:lr-tb;text-anchor:start"
           d="m 487.18858,347.69503 0,2.78897 2.25533,0 0,0.98671 -2.25533,0 0,7.25936 q 0,0.90616 0.32219,1.34917 0.33226,0.44302 1.09746,0.44302 0.30205,0 0.97664,-0.10069 l 0.0503,0.98671 q -0.47321,0.17116 -1.28876,0.17116 -1.23842,0 -1.80225,-0.71486 -0.56384,-0.72493 -0.56384,-2.12444 l 0,-7.26943 -2.00362,0 0,-0.98671 2.00362,0 0,-2.78897 1.20822,0 z" />
        <path
           id="path6234"
           style="font-style:normal;font-variant:normal;font-weight:300;font-stretch:normal;font-size:20.62021255px;line-height:125%;font-family:Roboto;-inkscape-font-specification:'Roboto, Light';text-align:start;writing-mode:lr-tb;text-anchor:start"
           d="m 495.41451,359.6463 3.18164,-9.1623 1.29883,0 -4.65163,12.74667 -0.24164,0.56384 q -0.8961,1.98348 -2.76883,1.98348 -0.43294,0 -0.9263,-0.14096 l -0.0101,-0.99677 0.62425,0.0604 q 0.88602,0 1.42972,-0.44301 0.55376,-0.43295 0.93637,-1.50021 l 0.53362,-1.46999 -4.10793,-10.80346 1.31897,0 3.383,9.1623 z" />
        <path
           id="path6236"
           style="font-style:normal;font-variant:normal;font-weight:300;font-stretch:normal;font-size:20.62021255px;line-height:125%;font-family:Roboto;-inkscape-font-specification:'Roboto, Light';text-align:start;writing-mode:lr-tb;text-anchor:start"
           d="m 513.30616,358.60925 q 0,-0.8961 -0.72492,-1.43979 -0.71487,-0.5437 -2.16472,-0.84575 -1.44986,-0.31213 -2.25534,-0.7048 -0.79541,-0.40273 -1.18808,-0.97664 -0.3826,-0.5739 -0.3826,-1.38944 0,-1.28877 1.07733,-2.12445 1.07732,-0.84575 2.75875,-0.84575 1.8224,0 2.91986,0.90616 1.10753,0.89609 1.10753,2.34595 l -1.20822,0 q 0,-0.9565 -0.80547,-1.59082 -0.79541,-0.63431 -2.0137,-0.63431 -1.18807,0 -1.913,0.53363 -0.71486,0.52356 -0.71486,1.36931 0,0.81555 0.59403,1.26863 0.60411,0.44301 2.18486,0.81554 1.59082,0.37254 2.37616,0.79541 0.79541,0.42288 1.17801,1.01692 0.3826,0.59404 0.3826,1.43979 0,1.37938 -1.1176,2.20499 -1.10753,0.82561 -2.89972,0.82561 -1.90294,0 -3.09101,-0.91623 -1.17801,-0.92629 -1.17801,-2.33588 l 1.20821,0 q 0.0705,1.05719 0.88603,1.65123 0.82561,0.58397 2.17478,0.58397 1.25856,0 2.03383,-0.55377 0.77527,-0.55376 0.77527,-1.39951 z" />
        <path
           id="path6238"
           style="font-style:normal;font-variant:normal;font-weight:300;font-stretch:normal;font-size:20.62021255px;line-height:125%;font-family:Roboto;-inkscape-font-specification:'Roboto, Light';text-align:start;writing-mode:lr-tb;text-anchor:start"
           d="m 518.41089,352.32653 q 0.59404,-0.97664 1.52033,-1.51027 0.9263,-0.53363 2.02377,-0.53363 1.75191,0 2.60773,0.98671 0.85582,0.98671 0.86589,2.96013 l 0,7.1486 -1.19815,0 0,-7.15867 q -0.0101,-1.45993 -0.62425,-2.17479 -0.6041,-0.71486 -1.94321,-0.71486 -1.1176,0 -1.98349,0.70479 -0.85582,0.69473 -1.26862,1.8828 l 0,7.46073 -1.19815,0 0,-15.46515 1.19815,0 0,6.41361 z" />
        <path
           id="path6240"
           style="font-style:normal;font-variant:normal;font-weight:300;font-stretch:normal;font-size:20.62021255px;line-height:125%;font-family:Roboto;-inkscape-font-specification:'Roboto, Light';text-align:start;writing-mode:lr-tb;text-anchor:start"
           d="m 535.40646,361.37807 q -0.18124,-0.51349 -0.23158,-1.52033 -0.63431,0.82561 -1.62102,1.27869 -0.97664,0.44301 -2.07411,0.44301 -1.57068,0 -2.54732,-0.87595 -0.96657,-0.87596 -0.96657,-2.21506 0,-1.59082 1.31897,-2.51712 1.32904,-0.9263 3.69513,-0.9263 l 2.18485,0 0,-1.23842 q 0,-1.16794 -0.72493,-1.83246 -0.71486,-0.67459 -2.09424,-0.67459 -1.25856,0 -2.08417,0.64438 -0.82561,0.64439 -0.82561,1.55055 l -1.20822,-0.0101 q 0,-1.29883 1.20822,-2.24527 1.20821,-0.9565 2.97019,-0.9565 1.8224,0 2.86952,0.91623 1.05718,0.90616 1.08739,2.53725 l 0,5.15505 q 0,1.58075 0.33226,2.36609 l 0,0.12082 -1.28876,0 z m -3.78575,-0.86588 q 1.20822,0 2.15465,-0.58397 0.95651,-0.58397 1.38945,-1.56062 l 0,-2.39629 -2.15465,0 q -1.80225,0.0201 -2.81917,0.66452 -1.01691,0.63431 -1.01691,1.75191 0,0.91623 0.67458,1.52034 0.68466,0.60411 1.77205,0.60411 z" />
        <path
           id="path6242"
           style="font-style:normal;font-variant:normal;font-weight:300;font-stretch:normal;font-size:20.62021255px;line-height:125%;font-family:Roboto;-inkscape-font-specification:'Roboto, Light';text-align:start;writing-mode:lr-tb;text-anchor:start"
           d="m 544.59896,351.51098 q -0.3826,-0.0705 -0.81554,-0.0705 -1.12767,0 -1.91301,0.63431 -0.77527,0.62425 -1.10753,1.8224 l 0,7.48086 -1.19815,0 0,-10.89407 1.17801,0 0.0201,1.73177 q 0.9565,-1.93314 3.07088,-1.93314 0.50342,0 0.79541,0.13089 l -0.0302,1.09746 z" />
        <path
           id="path6244"
           style="font-style:normal;font-variant:normal;font-weight:300;font-stretch:normal;font-size:20.62021255px;line-height:125%;font-family:Roboto;-inkscape-font-specification:'Roboto, Light';text-align:start;writing-mode:lr-tb;text-anchor:start"
           d="m 550.50914,361.57944 q -1.38945,0 -2.51712,-0.68465 -1.1176,-0.68466 -1.74184,-1.90294 -0.62425,-1.22835 -0.62425,-2.74869 l 0,-0.43295 q 0,-1.57068 0.60411,-2.82923 0.61418,-1.25856 1.70157,-1.97342 1.0874,-0.72493 2.35602,-0.72493 1.98349,0 3.14136,1.35924 1.16794,1.34918 1.16794,3.69513 l 0,0.67458 -7.77285,0 0,0.23158 q 0,1.8526 1.05719,3.09102 1.06726,1.22835 2.67821,1.22835 0.96657,0 1.70157,-0.3524 0.74507,-0.35239 1.34918,-1.12766 l 0.75513,0.5739 q -1.32904,1.92307 -3.85622,1.92307 z m -0.22151,-10.26983 q -1.35924,0 -2.29561,0.99678 -0.9263,0.99678 -1.12767,2.67821 l 6.53444,0 0,-0.13089 q -0.0503,-1.57068 -0.8961,-2.55739 -0.84575,-0.98671 -2.21506,-0.98671 z" />
        <path
           id="path6246"
           style="font-style:normal;font-variant:normal;font-weight:300;font-stretch:normal;font-size:20.62021255px;line-height:125%;font-family:Roboto;-inkscape-font-specification:'Roboto, Light';text-align:start;writing-mode:lr-tb;text-anchor:start"
           d="m 556.47974,355.83035 q 0,-2.53725 1.12767,-4.03745 1.13774,-1.51027 3.08095,-1.51027 2.20499,0 3.36287,1.74184 l 0,-6.11155 1.19814,0 0,15.46515 -1.12766,0 -0.0503,-1.44985 q -1.15787,1.65122 -3.40314,1.65122 -1.8828,0 -3.04067,-1.51027 -1.14781,-1.52033 -1.14781,-4.09786 l 0,-0.14096 z m 1.21829,0.21144 q 0,2.08417 0.83568,3.29239 0.83568,1.19814 2.35602,1.19814 2.22513,0 3.1615,-1.96335 l 0,-5.11478 q -0.93637,-2.12444 -3.14136,-2.12444 -1.52034,0 -2.36609,1.19815 -0.84575,1.18807 -0.84575,3.51389 z" />
        <path
           id="path6248"
           style="font-style:normal;font-variant:normal;font-weight:300;font-stretch:normal;font-size:20.62021255px;line-height:125%;font-family:Roboto;-inkscape-font-specification:'Roboto, Light';text-align:start;writing-mode:lr-tb;text-anchor:start"
           d="m 578.50954,351.51098 q -0.3826,-0.0705 -0.81554,-0.0705 -1.12767,0 -1.91301,0.63431 -0.77527,0.62425 -1.10753,1.8224 l 0,7.48086 -1.19815,0 0,-10.89407 1.17801,0 0.0201,1.73177 q 0.9565,-1.93314 3.07088,-1.93314 0.50342,0 0.79541,0.13089 l -0.0302,1.09746 z" />
        <path
           id="path6250"
           style="font-style:normal;font-variant:normal;font-weight:300;font-stretch:normal;font-size:20.62021255px;line-height:125%;font-family:Roboto;-inkscape-font-specification:'Roboto, Light';text-align:start;writing-mode:lr-tb;text-anchor:start"
           d="m 584.41972,361.57944 q -1.38945,0 -2.51711,-0.68465 -1.1176,-0.68466 -1.74185,-1.90294 -0.62424,-1.22835 -0.62424,-2.74869 l 0,-0.43295 q 0,-1.57068 0.60411,-2.82923 0.61417,-1.25856 1.70157,-1.97342 1.08739,-0.72493 2.35602,-0.72493 1.98348,0 3.14136,1.35924 1.16794,1.34918 1.16794,3.69513 l 0,0.67458 -7.77286,0 0,0.23158 q 0,1.8526 1.05719,3.09102 1.06726,1.22835 2.67821,1.22835 0.96658,0 1.70157,-0.3524 0.74507,-0.35239 1.34918,-1.12766 l 0.75513,0.5739 q -1.32903,1.92307 -3.85622,1.92307 z m -0.2215,-10.26983 q -1.35925,0 -2.29561,0.99678 -0.9263,0.99678 -1.12767,2.67821 l 6.53443,0 0,-0.13089 q -0.0503,-1.57068 -0.89609,-2.55739 -0.84575,-0.98671 -2.21506,-0.98671 z" />
        <path
           id="path6252"
           style="font-style:normal;font-variant:normal;font-weight:300;font-stretch:normal;font-size:20.62021255px;line-height:125%;font-family:Roboto;-inkscape-font-specification:'Roboto, Light';text-align:start;writing-mode:lr-tb;text-anchor:start"
           d="m 597.39798,358.60925 q 0,-0.8961 -0.72493,-1.43979 -0.71486,-0.5437 -2.16472,-0.84575 -1.44986,-0.31213 -2.25534,-0.7048 -0.79541,-0.40273 -1.18808,-0.97664 -0.3826,-0.5739 -0.3826,-1.38944 0,-1.28877 1.07733,-2.12445 1.07732,-0.84575 2.75876,-0.84575 1.82239,0 2.91985,0.90616 1.10753,0.89609 1.10753,2.34595 l -1.20821,0 q 0,-0.9565 -0.80548,-1.59082 -0.79541,-0.63431 -2.01369,-0.63431 -1.18808,0 -1.91301,0.53363 -0.71486,0.52356 -0.71486,1.36931 0,0.81555 0.59404,1.26863 0.6041,0.44301 2.18485,0.81554 1.59082,0.37254 2.37616,0.79541 0.79541,0.42288 1.17801,1.01692 0.3826,0.59404 0.3826,1.43979 0,1.37938 -1.1176,2.20499 -1.10753,0.82561 -2.89971,0.82561 -1.90294,0 -3.09102,-0.91623 -1.17801,-0.92629 -1.17801,-2.33588 l 1.20821,0 q 0.0705,1.05719 0.88603,1.65123 0.82561,0.58397 2.17479,0.58397 1.25855,0 2.03383,-0.55377 0.77527,-0.55376 0.77527,-1.39951 z" />
        <path
           id="path6254"
           style="font-style:normal;font-variant:normal;font-weight:300;font-stretch:normal;font-size:20.62021255px;line-height:125%;font-family:Roboto;-inkscape-font-specification:'Roboto, Light';text-align:start;writing-mode:lr-tb;text-anchor:start"
           d="m 600.64002,355.76994 q 0,-1.57068 0.60411,-2.82924 0.61417,-1.25856 1.7217,-1.95328 1.1176,-0.70479 2.52719,-0.70479 2.17479,0 3.52396,1.5304 1.34917,1.52034 1.34917,4.03746 l 0,0.25171 q 0,1.58075 -0.61417,2.84938 -0.60411,1.25855 -1.71164,1.94321 -1.10753,0.68465 -2.52719,0.68465 -2.16472,0 -3.52396,-1.52033 -1.34917,-1.53041 -1.34917,-4.04753 l 0,-0.24164 z m 1.20821,0.33226 q 0,1.95328 1.00685,3.21184 1.01691,1.24849 2.65807,1.24849 1.6311,0 2.63794,-1.24849 1.01692,-1.25856 1.01692,-3.31252 l 0,-0.23158 q 0,-1.24849 -0.46315,-2.28554 -0.46315,-1.03705 -1.29883,-1.60089 -0.83569,-0.5739 -1.91301,-0.5739 -1.61096,0 -2.62787,1.26863 -1.01692,1.25856 -1.01692,3.30245 l 0,0.22151 z" />
        <path
           id="path6256"
           style="font-style:normal;font-variant:normal;font-weight:300;font-stretch:normal;font-size:20.62021255px;line-height:125%;font-family:Roboto;-inkscape-font-specification:'Roboto, Light';text-align:start;writing-mode:lr-tb;text-anchor:start"
           d="m 619.87078,359.9987 q -1.08739,1.58074 -3.47362,1.58074 -1.74184,0 -2.64801,-1.00684 -0.90616,-1.01692 -0.92629,-3.0004 l 0,-7.0882 1.19814,0 0,6.93717 q 0,3.11115 2.51712,3.11115 2.6178,0 3.31252,-2.16472 l 0,-7.8836 1.20822,0 0,10.89407 -1.16794,0 -0.0201,-1.37937 z" />
        <path
           id="path6258"
           style="font-style:normal;font-variant:normal;font-weight:300;font-stretch:normal;font-size:20.62021255px;line-height:125%;font-family:Roboto;-inkscape-font-specification:'Roboto, Light';text-align:start;writing-mode:lr-tb;text-anchor:start"
           d="m 629.21432,351.51098 q -0.3826,-0.0705 -0.81555,-0.0705 -1.12767,0 -1.91301,0.63431 -0.77527,0.62425 -1.10753,1.8224 l 0,7.48086 -1.19814,0 0,-10.89407 1.17801,0 0.0201,1.73177 q 0.95651,-1.93314 3.07088,-1.93314 0.50343,0 0.79541,0.13089 l -0.0302,1.09746 z" />
        <path
           id="path6260"
           style="font-style:normal;font-variant:normal;font-weight:300;font-stretch:normal;font-size:20.62021255px;line-height:125%;font-family:Roboto;-inkscape-font-specification:'Roboto, Light';text-align:start;writing-mode:lr-tb;text-anchor:start"
           d="m 634.93321,360.56253 q 1.25856,0 2.10431,-0.70479 0.85582,-0.71486 0.9263,-1.84253 l 1.15787,0 q -0.0503,0.99678 -0.62424,1.82239 -0.57391,0.81555 -1.53041,1.27869 -0.94644,0.46315 -2.03383,0.46315 -2.14458,0 -3.40314,-1.49013 -1.24849,-1.49013 -1.24849,-4.00725 l 0,-0.36246 q 0,-1.61096 0.56383,-2.84938 0.56384,-1.23842 1.61096,-1.913 1.05719,-0.67459 2.46677,-0.67459 1.79219,0 2.95006,1.06726 1.16794,1.06725 1.24849,2.8091 l -1.15787,0 q -0.0806,-1.2787 -0.9263,-2.06404 -0.83568,-0.78534 -2.11438,-0.78534 -1.63109,0 -2.53725,1.17801 -0.89609,1.17801 -0.89609,3.30246 l 0,0.35239 q 0,2.08418 0.89609,3.25212 0.90616,1.16794 2.54732,1.16794 z" />
        <path
           id="path6262"
           style="font-style:normal;font-variant:normal;font-weight:300;font-stretch:normal;font-size:20.62021255px;line-height:125%;font-family:Roboto;-inkscape-font-specification:'Roboto, Light';text-align:start;writing-mode:lr-tb;text-anchor:start"
           d="m 645.7568,361.57944 q -1.38944,0 -2.51711,-0.68465 -1.1176,-0.68466 -1.74185,-1.90294 -0.62424,-1.22835 -0.62424,-2.74869 l 0,-0.43295 q 0,-1.57068 0.60411,-2.82923 0.61417,-1.25856 1.70157,-1.97342 1.08739,-0.72493 2.35602,-0.72493 1.98349,0 3.14136,1.35924 1.16794,1.34918 1.16794,3.69513 l 0,0.67458 -7.77285,0 0,0.23158 q 0,1.8526 1.05719,3.09102 1.06725,1.22835 2.67821,1.22835 0.96657,0 1.70157,-0.3524 0.74506,-0.35239 1.34917,-1.12766 l 0.75514,0.5739 q -1.32904,1.92307 -3.85623,1.92307 z m -0.2215,-10.26983 q -1.35924,0 -2.29561,0.99678 -0.9263,0.99678 -1.12767,2.67821 l 6.53443,0 0,-0.13089 q -0.0503,-1.57068 -0.89609,-2.55739 -0.84575,-0.98671 -2.21506,-0.98671 z" />
        <path
           id="path6264"
           style="font-style:normal;font-variant:normal;font-weight:300;font-stretch:normal;font-size:20.62021255px;line-height:125%;font-family:Roboto;-inkscape-font-specification:'Roboto, Light';text-align:start;writing-mode:lr-tb;text-anchor:start"
           d="m 658.73506,358.60925 q 0,-0.8961 -0.72493,-1.43979 -0.71486,-0.5437 -2.16472,-0.84575 -1.44986,-0.31213 -2.25534,-0.7048 -0.7954,-0.40273 -1.18807,-0.97664 -0.38261,-0.5739 -0.38261,-1.38944 0,-1.28877 1.07733,-2.12445 1.07733,-0.84575 2.75876,-0.84575 1.82239,0 2.91985,0.90616 1.10753,0.89609 1.10753,2.34595 l -1.20821,0 q 0,-0.9565 -0.80548,-1.59082 -0.79541,-0.63431 -2.01369,-0.63431 -1.18808,0 -1.91301,0.53363 -0.71486,0.52356 -0.71486,1.36931 0,0.81555 0.59404,1.26863 0.60411,0.44301 2.18486,0.81554 1.59081,0.37254 2.37615,0.79541 0.79541,0.42288 1.17801,1.01692 0.3826,0.59404 0.3826,1.43979 0,1.37938 -1.11759,2.20499 -1.10754,0.82561 -2.89972,0.82561 -1.90294,0 -3.09102,-0.91623 -1.17801,-0.92629 -1.17801,-2.33588 l 1.20822,0 q 0.0705,1.05719 0.88602,1.65123 0.82561,0.58397 2.17479,0.58397 1.25856,0 2.03383,-0.55377 0.77527,-0.55376 0.77527,-1.39951 z" />
      </g>
      <g
         id="flowRoot7124"
         style="font-style:normal;font-variant:normal;font-weight:bold;font-stretch:normal;font-size:23.43761444px;line-height:0.99999998%;font-family:Roboto;-inkscape-font-specification:'Roboto, Bold';text-align:start;letter-spacing:-10.15629959px;word-spacing:0px;writing-mode:tb-rl;text-anchor:start;fill:#28ace3;fill-opacity:1;stroke:none;stroke-width:1px;stroke-linecap:butt;stroke-linejoin:miter;stroke-opacity:1"
         transform="translate(120.7774,316.79319)">
        <path
           id="path6267"
           style=""
           d="m 663.12522,301.47965 q 0,2.46049 -0.86976,4.31445 -0.86975,1.85395 -2.49482,2.86103 -1.61363,1.00709 -3.7079,1.00709 -2.07139,0 -3.69646,-0.99564 -1.62507,-0.99564 -2.51772,-2.83815 -0.89264,-1.85395 -0.90408,-4.25723 l 0,-0.82397 q 0,-2.4605 0.8812,-4.32589 0.89264,-1.87684 2.50626,-2.87248 1.62507,-1.00709 3.70791,-1.00709 2.08283,0 3.69646,1.00709 1.62507,0.99564 2.50627,2.87248 0.89264,1.86539 0.89264,4.31444 l 0,0.74387 z m -3.47902,-0.75531 q 0,-2.62071 -0.93842,-3.98257 -0.93842,-1.36185 -2.67793,-1.36185 -1.72807,0 -2.66649,1.35041 -0.93842,1.33897 -0.94986,3.93679 l 0,0.81253 q 0,2.55205 0.93842,3.95968 0.93842,1.40763 2.70082,1.40763 1.72806,0 2.65504,-1.35041 0.92697,-1.36186 0.93842,-3.95968 l 0,-0.81253 z" />
        <path
           id="path6269"
           style=""
           d="m 656.2244,320.64326 -2.73515,0 0,6.09973 -3.43325,0 0,-16.66268 6.19129,0 q 2.95259,0 4.55477,1.31608 1.60218,1.31607 1.60218,3.71934 0,1.70518 -0.74387,2.8496 -0.73243,1.13297 -2.23161,1.80817 l 3.60491,6.80927 0,0.16022 -3.68502,0 -3.12425,-6.09973 z m -2.73515,-2.78093 2.76948,0 q 1.29319,0 2.00273,-0.65232 0.70953,-0.66376 0.70953,-1.81962 0,-1.17874 -0.6752,-1.85395 -0.66376,-0.6752 -2.0485,-0.6752 l -2.75804,0 0,5.00109 z" />
        <path
           id="path6271"
           style=""
           d="m 662.73612,341.94692 q -0.92698,1.11008 -2.62071,1.72807 -1.69374,0.60654 -3.75368,0.60654 -2.16295,0 -3.79946,-0.93842 -1.62507,-0.94987 -2.51771,-2.7466 -0.8812,-1.79673 -0.90409,-4.22289 l 0,-1.13297 q 0,-2.49483 0.83542,-4.31444 0.84687,-1.83107 2.42616,-2.79238 1.59074,-0.97275 3.71935,-0.97275 2.96403,0 4.63488,1.41908 1.67085,1.40763 1.97984,4.10844 l -3.34169,0 q -0.22889,-1.43051 -1.01853,-2.09427 -0.7782,-0.66377 -2.1515,-0.66377 -1.75096,0 -2.66649,1.31608 -0.91553,1.31608 -0.92697,3.9139 l 0,1.06431 q 0,2.62071 0.99564,3.95967 0.99564,1.33897 2.91825,1.33897 1.93406,0 2.75804,-0.82398 l 0,-2.87248 -3.12425,0 0,-2.52916 6.5575,0 0,6.64905 z" />
      </g>
      <path
         style="fill:#21abe3;fill-opacity:1;fill-rule:nonzero;stroke:none"
         d="m 378.76726,552.63766 -4.72376,13.61664 -9.64361,4.15619 c 0,0 -12.29553,-5.85953 -13.23997,-5.668 -0.9461,0.18493 -8.88512,9.83195 -8.88512,9.83195 l 6.99406,10.02026 -5.10301,11.91133 c 0,0 -12.4788,3.77696 -12.29057,3.77696 0.18822,0 0,12.86071 0,12.86071 l 11.34117,4.35228 3.78726,10.7736 -5.86407,11.91132 10.77876,8.32271 10.39951,-6.42907 c 0,0 12.67023,6.04983 12.10224,6.04983 -0.56798,0 3.40288,11.53467 3.40288,11.53467 l 12.28799,0 4.53543,-12.48149 10.59302,-4.53802 11.77974,6.24332 9.77519,-9.07861 -5.29392,-11.72042 5.67058,-11.91391 10.77877,-3.21453 0,-12.85815 c 0,0 -11.53333,-4.34576 -12.09967,-3.5912 -0.56798,0.75622 -4.53585,-12.66899 -4.91726,-12.85556 -0.37646,-0.18988 6.04725,-10.21377 6.04725,-10.21377 l -8.69421,-9.07604 -11.9139,6.04983 -11.34118,-5.8615 -4.16393,-11.91133 -12.09967,0 z m 6.14271,16.43387 c 20.65394,0 37.39285,16.59496 37.39285,37.07553 0,20.47892 -16.73891,37.07811 -37.39285,37.07811 -20.64899,0 -37.3877,-16.59919 -37.3877,-37.07811 0,-20.48057 16.73871,-37.07553 37.3877,-37.07553 z"
         id="path4170-2" />
      <path
         d="m 401.35253,680.53777 -33.23717,0 0,-46.06808 33.23717,0 0,46.06808 z"
         style="fill:#fafafa;fill-opacity:0.8745098;fill-rule:nonzero;stroke:none"
         id="path4176" />
      <path
         id="path4180"
         style="fill:none;stroke:#21abe3;stroke-width:3.96270323;stroke-linecap:square;stroke-linejoin:round;stroke-miterlimit:10;stroke-dasharray:none;stroke-opacity:1"
         d="m 371.87332,643.88732 25.7196,0" />
      <path
         id="path4184"
         style="fill:none;stroke:#21abe3;stroke-width:3.96270323;stroke-linecap:square;stroke-linejoin:round;stroke-miterlimit:10;stroke-dasharray:none;stroke-opacity:1"
         d="m 371.87332,651.13236 25.7196,0" />
      <path
         id="path4188"
         style="fill:none;stroke:#21abe3;stroke-width:3.96270323;stroke-linecap:square;stroke-linejoin:round;stroke-miterlimit:10;stroke-dasharray:none;stroke-opacity:1"
         d="m 371.87332,658.43975 25.7196,0" />
      <path
         id="path4192"
         style="fill:none;stroke:#21abe3;stroke-width:3.96270323;stroke-linecap:square;stroke-linejoin:round;stroke-miterlimit:10;stroke-dasharray:none;stroke-opacity:1"
         d="m 371.87332,665.29902 25.7196,0" />
      <path
         id="path4196"
         style="fill:#ed1c24;fill-opacity:1;fill-rule:nonzero;stroke:none"
         d="m 391.09343,670.30938 c 0,4.05352 -2.8482,7.34256 -6.35849,7.34256 -3.51195,0 -6.36014,-3.28904 -6.36014,-7.34256" />
      <path
         id="path4200"
         style="fill:none;stroke:#ed1c24;stroke-width:5.82502365;stroke-linecap:square;stroke-linejoin:bevel;stroke-miterlimit:10;stroke-dasharray:none;stroke-opacity:1"
         d="m 373.32748,635.82845 -3.58164,-52.37039 14.87479,52.37039 14.09239,-52.37039 -3.58346,52.37039" />
    </g>
  </g>
</svg>
